<?xml version="1.0" encoding="utf-8"?>
<!-- Generator: Adobe Illustrator 19.0.0, SVG Export Plug-In . SVG Version: 6.00 Build 0)  -->
<svg version="1.1" id="Capa_1" xmlns="http://www.w3.org/2000/svg" xmlns:xlink="http://www.w3.org/1999/xlink" x="0px" y="0px"
	 viewBox="-283 705 512 512" style="enable-background:new -283 705 512 512;" xml:space="preserve">
<style type="text/css">
	.st0{fill:#FFFFFF;stroke:#018DA6;stroke-width:20;stroke-miterlimit:10;}
</style>
<g>
	<path class="st0" d="M-2.9,1129h-199.7c-37,0-67.1-30.1-67.1-67.1c0-36.5,29.3-66.2,65.6-67.1c12.9-44.8,53.7-75.8,100.7-75.8
		c38.9,0,74,21.1,92.4,55.3c2.9-0.3,5.6-0.5,8.1-0.5c42.8,0,77.5,34.8,77.5,77.5C74.7,1094.2,39.9,1129-2.9,1129z M-202.6,1005.2
		c-31.2,0-56.7,25.4-56.7,56.7s25.4,56.7,56.7,56.7H-2.9c37,0,67.1-30.1,67.1-67.1c0-37-30.1-67.1-67.1-67.1
		c-3.1,0-6.4,0.3-10.3,0.9c-2.2,0.3-4.4-0.8-5.4-2.8c-16.1-32.6-48.6-52.8-84.8-52.8c-43.6,0-81.3,29.6-91.7,71.9
		c-0.6,2.4-2.7,3.8-5.2,4L-202.6,1005.2z"/>
	<path class="st0" d="M-2.9,1129c-2.9,0-5.2-2.3-5.2-5.2s2.3-5.2,5.2-5.2c37,0,67.1-30.1,67.1-67.1c0-37-30.1-67.1-67.1-67.1
		c-19.4,0-37.8,8.4-50.6,23c-1.9,2.2-5.2,2.4-7.4,0.5c-2.2-1.9-2.4-5.2-0.5-7.4c14.7-16.9,36-26.6,58.4-26.6
		c42.8,0,77.5,34.8,77.5,77.5C74.7,1094.2,39.9,1129-2.9,1129z"/>
	<g>
		<path class="st0" d="M105.7,1026.4c-1.3,0-2.7-0.5-3.7-1.5c-2-2-2-5.3,0-7.4c15.5-15.5,24.1-36,24.1-57.9
			c0-45.1-36.7-81.8-81.8-81.8c-23.7,0-46.3,10.3-61.8,28.3c-1.9,2.2-5.2,2.4-7.4,0.5c-2.2-1.9-2.4-5.2-0.5-7.4
			c17.5-20.2,43-31.8,69.7-31.8c50.8,0,92.2,41.4,92.2,92.2c0,24.7-9.6,47.9-27.1,65.3C108.4,1025.9,107,1026.4,105.7,1026.4z"/>
		<g>
			<path class="st0" d="M44.3,837.8c-2.9,0-5.2-2.3-5.2-5.2v-39.1c0-2.9,2.3-5.2,5.2-5.2s5.2,2.3,5.2,5.2v39.1
				C49.5,835.4,47.2,837.8,44.3,837.8z"/>
		</g>
		<g>
			<path class="st0" d="M210.5,964.8h-39.1c-2.9,0-5.2-2.3-5.2-5.2s2.3-5.2,5.2-5.2h39.1c2.9,0,5.2,2.3,5.2,5.2
				S213.3,964.8,210.5,964.8z"/>
		</g>
		<g>
			<path class="st0" d="M134.2,874.9c-1.3,0-2.7-0.5-3.7-1.5c-2-2-2-5.3,0-7.4l27.6-27.6c2-2,5.3-2,7.4,0c2,2,2,5.3,0,7.4
				l-27.6,27.6C136.8,874.4,135.5,874.9,134.2,874.9z"/>
		</g>
		<g>
			<path class="st0" d="M161.8,1082.2c-1.3,0-2.7-0.5-3.7-1.5l-27.6-27.6c-2-2-2-5.3,0-7.4c2-2,5.3-2,7.4,0l27.6,27.6
				c2,2,2,5.3,0,7.4C164.5,1081.7,163.1,1082.2,161.8,1082.2z"/>
			<path class="st0" d="M-45.5,874.9c-1.3,0-2.7-0.5-3.7-1.5l-27.6-27.6c-2-2-2-5.3,0-7.4c2-2,5.3-2,7.4,0l27.6,27.6
				c2,2,2,5.3,0,7.4C-42.8,874.4-44.2,874.9-45.5,874.9z"/>
		</g>
	</g>
</g>
</svg>
