<?xml version="1.0" encoding="utf-8"?>
<!-- Generator: Adobe Illustrator 19.0.0, SVG Export Plug-In . SVG Version: 6.00 Build 0)  -->
<svg version="1.1" xmlns="http://www.w3.org/2000/svg" xmlns:xlink="http://www.w3.org/1999/xlink" x="0px" y="0px"
	 viewBox="0 0 800 800" style="enable-background:new 0 0 800 800;" xml:space="preserve">
<style type="text/css">
	.st0{fill:#DBDBDB;}
	.st1{fill:#AEC93D;}
	.st2{fill:#00B1BF;}
	.st3{fill:none;stroke:#FFFFFF;stroke-width:8;stroke-linecap:round;stroke-linejoin:round;stroke-miterlimit:10;}
	.st4{fill:#A0D39A;}
	.st5{fill:#FEF4F1;}
	.st6{fill:none;stroke:#898989;stroke-width:2;stroke-linejoin:round;}
	.st7{fill:none;stroke:#898989;stroke-width:2;stroke-linejoin:round;stroke-dasharray:4.0143,4.0143;}
	.st8{fill:#956B98;}
	.st9{fill:#DF1B75;}
	.st10{fill:none;}
	.st11{fill:#FFFFFF;}
	.st12{font-family:'AmericanTypewriter-Bold';}
	.st13{font-size:16.907px;}
	.st14{font-size:14.8786px;}
	.st15{fill:#424242;}
	.st16{fill:#212020;}
	.st17{display:none;fill:#FEF4F1;}
	.st18{fill:#2CA3E5;}
	.st19{font-family:'BebasNeue';}
	.st20{font-size:118px;}
</style>
<g id="background">
</g>
<g id="objects">
	<rect x="-1" y="1" class="st0" width="800.1" height="769"/>
	<polygon class="st1" points="619.2,242.5 640,285.2 798,227.6 797.7,136.9 	"/>
	<polygon class="st2" points="-0.2,186 26.6,174.6 69.9,77.7 36.9,59 55.3,46.9 74.2,1 -1,1 	"/>
	<polygon class="st1" points="181.9,42.1 147.5,140 138.7,177.5 207,166 211.6,118.5 226,43 	"/>
	<g>
		<g>
			<path class="st3" d="M775.4,177.5"/>
		</g>
		<g>
			<polygon class="st4" points="529.1,357.1 567.5,440 619.2,440 601.9,365.8 580.8,330.1 			"/>
			<g>
				<g>
					<path class="st5" d="M3.2,419.7c1.4-2.3,0.7-5.2-1.7-6.6l-1.7-1v9.8C1.2,421.7,2.4,420.9,3.2,419.7z"/>
					<path class="st5" d="M565.7,702.5c1.9-0.2,3.9-0.3,5.8-0.5c4.8-0.4,9.8-0.8,14.8-1.2l12.7,69.2h10.1l-12.8-70
						c13.4-1.1,29.3-2.2,46.1-3.2l4.4,13.7l-19,1.3c-2.8,0.2-4.8,2.5-4.6,5.1c0.2,2.6,2.6,4.6,5.3,4.4l25.1-1.7c0.1,0,0.2,0,0.3,0
						l15-1l4.5,36.2l-44.2,4c0,0,0,0,0,0c-2.7,0.3-4.7,2.6-4.5,5.2c0.3,2.6,2.7,4.6,5.4,4.3l21.4-1.9l0.4,3.6h10l-0.5-4.5l17.9-1.6
						c0,0,0,0,0,0c1.3-0.1,2.5-0.8,3.4-1.8c0.8-1,1.2-2.3,1.1-3.6l-5.7-45.6c-0.3-2.5-2.6-4.4-5.3-4.2l-16,1.1l-4.4-13.7
						c24.2-1.4,49.4-2.7,71.3-3.8l-0.3,7.3l-28.2-1.2c-1.4-0.1-2.7,0.4-3.7,1.4c-1,0.9-1.5,2.2-1.5,3.5l0.3,11.4
						c0.1,2.6,2.4,4.7,5.1,4.6c0.1,0,0.2,0,0.3,0c2.6-0.2,4.6-2.4,4.5-4.9l-0.2-6.2l27.8,1.2c1.3,0.1,2.6-0.4,3.6-1.2
						c1-0.9,1.6-2,1.6-3.3l0.6-13c25.5-1.2,44.8-2,49.8-2.2c5.5,1.3,10.9,2.4,16.2,3.4v-17.4c-4.3-0.9-8.7-1.8-13.3-2.9
						c-0.8-0.2-1.6-0.3-2.4-0.2c-0.3,0-7.9,0.3-20.1,0.9l0.2-117.5l26,1.2c2.3,0.3,5.6,0.7,9.6,1.2v-9.6c-3.5-0.4-6.4-0.8-8.4-1.1
						c-0.2,0-0.3,0-0.5,0l-31.4-1.4c0,0-0.1,0-0.1,0l-18.6-0.8l1.1-22c0,0,0-0.1,0-0.1l1.2-25.8l44.4,10.1c1.5,0.3,3,0,4.2-0.9
						c1.2-0.9,1.9-2.2,1.9-3.7l0.8-39.2l0.1,0c0.1,0,0.1,0,0.2,0l2.8,0.2c0.7,0,1.4,0.1,2.2,0.1v-10.7c-0.5,0-1-0.1-1.4-0.1
						l-2.7-0.2l-1-0.1l0.1-4c0-0.1,0-0.2,0-0.4c0-0.2,0-0.3,0-0.5l-18.5-142.5c12.3-1.4,22-1.3,22.2-1.3c0.1,0,0.3,0,0.4,0l1-0.1
						v-8.5l-1.5,0.1c-3.1,0-33.6-0.1-56,8.8c-13.1,5.2-29.9,5.5-44.7,4.4c-0.8-0.5-1.8-0.7-2.8-0.7c-0.6,0-1.1,0.1-1.6,0.3
						c-7.7-0.7-14.7-1.7-20.2-2.5c-3-0.4-5.6-0.8-7.8-1.1c-8.5-1-14.6,0.9-18.6,3.2c-1.2-5.2-2.7-9.3-4.1-12.4
						c45.5-23.2,110.7-43.9,157.3-57.2v-17.8c-44.7,12.6-108.5,32.6-156.7,55.7l-17.4-33.7c47.6-25.8,145.6-86,150.5-89
						c2.3-1.4,3-4.4,1.5-6.6c-1.5-2.2-4.6-2.9-6.9-1.5c-1.2,0.7-99.3,61-147.6,87.5l-8.1-37.3l28.2,1.2c2.1,0.1,3.9-1.5,4-3.5
						c0.1-2.1-1.6-3.8-3.7-3.9l-30.2-1.3l-8.4-38.7c10.6-2.8,31-3.6,59.4-2.5c0.5,0.2,1,0.4,1.5,0.4l53.7,3.4
						c2.1,0.1,3.9-1.4,4.1-3.4c0.2-2-1.3-3.8-3.4-4c-0.2,0-23.6-2.4-50.1-3.6l0.4-7.8l13.1,0.1c2.1,0,3.9-1.6,3.9-3.7
						c0-2.1-1.7-3.7-3.8-3.7l-23.5-0.1c-2.1,0-3.8,1.5-3.9,3.5c-0.1,2,1.4,3.7,3.5,3.9l3,0.3l-0.4,7.3c-29.6-1.1-50.2,0-61.1,3.2
						c-0.1,0-0.3,0.1-0.4,0.1L573,127.3l15.6-25.5c7.4,1.7,14.7,3.1,21.6,3.9c48.8,5.5,59.4,5.6,62.6,1c2.7-3.9,8.4-23.5,0.9-31.5
						c-8.1-8.6-13.9-3.7-14.2-3.5c-1.6,1.4-1.7,3.7-0.3,5.3c1.3,1.4,3.4,1.6,5,0.6c0.4,0,1.8,0.6,3.7,2.6c3.6,3.8,0.6,18-1.4,21.8
						c-3.9,1.2-20.3-0.1-35.8-1.6l7.2-49.5l111.4,12.7l-0.1,2c-0.1,1.2,0.4,2.4,1.4,3.3c0.9,0.8,2.2,1.3,3.5,1.2l44.4-3.9
						c0,0,0,0,0,0c0.5,0,1-0.2,1.4-0.4v-7.8c-0.6-0.3-1.3-0.4-2-0.4l-34,1.2L756.8,34c-0.5-1.6-1.9-2.8-3.6-3.1L639.6,14
						c-0.5-0.3-1-0.4-1.6-0.5l-37.7-3.8l0.4-8.8h-8.9l-0.4,7.5l-22.6-1.9c-0.9-0.1-1.8,0.1-2.5,0.5L545.7,1h-49.2l34.1,3.7
						l-6.6,67.4c-15.9-4-53.6-6.6-68.2-7.5c2.2-21.8,4.4-45,6.1-63.6h-17.8c-1.4,15.2-3.1,33.2-4.9,51l-0.6-0.6
						c-0.5-0.5-1.2-0.9-1.9-1l-31.5-6.6c-2-0.4-4.1,0.8-4.6,2.7L389,91.1c-12.3-0.9-21.1-1.6-23.7-1.8c-0.2,0-0.5,0-0.7,0l6.1-24.6
						l5.2,0.9c1.9,0.3,3.8-0.8,4.4-2.6l19.2-62h-8.1l-5.1,16.4l-83.8-7.6l1-8.8h-5.6l-1,8.3l-5.1-0.5c-2-2.7-4-5.3-5.8-7.8h-21.8
						c0.9,1.3,1.9,2.5,2.9,3.9c-2.1-0.4-4.2-0.8-6.3-1.2l0.5-2.6h-5.6l-0.3,1.6c-2.7-0.5-5.3-1.1-7.8-1.6h-28.8
						c-1.6,3.4-3.6,9.5-6.3,21.2c-1.6,6.8-2.9,13.5-3.7,17.5L184,34.9c3.4-11.5,7.3-22.9,12.1-33.9H177c-1,2.6-2,5.2-3,7.8
						c-5.6-1.9-13.8-4.7-23.1-7.8h-23.3c17,5.8,34.3,11.6,43.9,14.9c-6.6,19.4-11.3,39-15.4,56.8L76.3,46c-0.5-0.5-1-0.9-1.7-1.1
						l-15.5-4.7c1.5-2.9,3.1-6,4.5-9.3c5.3-12,8.7-22.1,11.3-29.9h-8.1c-2.4,7.3-5.6,16.4-10.3,27C45,54,29.5,66.8,25.2,70.1
						L23.8,71c-1.7,1.2-2.1,3.5-0.9,5.1c1.2,1.7,3.6,2.1,5.3,1c0.1-0.1,0.8-0.5,1.9-1.3l12.3-8.7l19.3,10.4l-36.8,93.9l-25.1,10.8
						v8.2l29.7-12.8c0.9-0.4,1.7-1.2,2-2.1l38.3-97.7c0.2-0.3,0.4-0.7,0.5-1.1L76,53.8L154.4,80c-3.4,14.8-6.7,28.7-10.5,39.4
						c-12.8,36.2-43.2,92.8-45.3,96.7c-1.7,2.7-19.2,30.9-38.5,60.4L-0.2,244v11l55,29.7c-10.5,15.9-21.1,31.5-29.8,43.2
						c-8.4-3.2-16.9-6.1-25.2-8.8v18c4.7,1.6,9.5,3.2,14.2,5c-4.3,5.3-9.2,11-14.2,16.8v30.6l38.1,16.4c0.8,0.4,1.7,0.5,2.5,0.4
						c1.7-0.2,3.3-1.2,4.1-2.8c1.1-2.4,0-5.2-2.5-6.3L3.9,380.6c9.7-11.1,19.3-22.3,27.1-32c20.4,8.7,39.4,19.3,52.9,32.4
						c2.2,2.1,4.4,4.3,6.7,6.6l-19.8,16.7c-0.4,0-0.7,0-1.1,0.1c-1,0.2-1.9,0.9-2.4,1.7l-19.4,31.6c-1.5-1.1-3.5-2.3-5.7-3.4
						c-6.5-3.1-26.2-1.5-30.7,1.8c-1.2,0.9-2.8,2.3-4.5,3.9c-2,1.8-4.8,4.3-7.1,6v8.5c4-1.4,8.5-5.5,12.4-9.1c1.5-1.4,3-2.7,3.9-3.3
						c2.6-1.6,18.6-3,22.6-1.1c4.5,2.2,7.5,5,7.5,5c0.8,0.8,2,1.2,3.2,1c1.2-0.1,2.2-0.8,2.8-1.8l19.6-32c1.1,0.7,2.5,1.5,4,2.5
						c-13.2,17.3-25.4,42.2-31,55.6c-5.3,12.8-7.6,20.6-8.5,24.2l-8.7,3.4l-27.9-0.2v9.6l14.6,0.1c-4,9.7-9.3,21.7-14.6,32.4v18.6
						c10.2-17.3,20.4-42,23.5-49.6l3.4-1.3l7.9,0.1l143.7,21.5c0.5,0.1,1,0.1,1.6,0c0.5-0.1,1-0.2,1.5-0.4l35.9-16.4
						c1.3,3.6,3.2,9.8,4.1,18.2l-11.4-0.5c-2.7-0.1-5.1,1.9-5.2,4.6c-0.1,2.6,2,4.9,4.7,5l12.5,0.6c0.1,4.7-0.2,10.1-1,16
						l-44.7,12.8l-4.2-5.6c-1.6-2.1-4.7-2.6-6.9-1.1c-2.2,1.5-2.8,4.5-1.2,6.7l6.2,8.3c0.1,0.1,0.1,0.1,0.2,0.2l26.9,36.2
						c-1.1,1.3-2.3,2.6-3.5,3.8l-47.1-63.7c-1.6-2.2-4.7-2.7-6.9-1.1c-2.2,1.5-2.8,4.5-1.2,6.7l47.8,64.7
						c-22.2,17.5-53.8,24.7-77.5,27.8l5.9-21.6l10.7-16.3c0.9-1.3,1-3,0.4-4.5l-15.3-33.7c-1.1-2.4-4-3.5-6.5-2.5
						c-2.5,1.1-3.7,3.9-2.6,6.3l14.2,31.4l-8,12.1L85.6,620l-12-26.3c-1.1-2.4-4-3.5-6.6-2.5c-2.5,1.1-3.7,3.9-2.6,6.3l12.9,28.3
						L23,626.1c-2.8,0-5,2.2-4.9,4.8c0,2.6,2.3,4.8,5,4.7l57.7-0.4c2.8,0,5-2.2,4.9-4.8c0-0.3,0-0.5-0.1-0.8l18.3,3l-5.7,20.8
						c-13.2,1.2-22.2,1-22.5,1c-2.8-0.1-5,2-5.1,4.6c-0.1,2.6,2.1,4.8,4.8,4.9c0.8,0,15,0.4,34.4-2.1l-0.9,18.6c0,0.1,0,0.1,0,0.2
						l-2,41.2l-15.1-0.7c-2.7-0.1-5.1,1.9-5.2,4.6c-0.1,2.6,2,4.9,4.7,5l52.5,2.3c-5.6,6.5-8.2,12.3-8.9,14.2
						c-18.4-5.3-37.6-9.4-60.4-1.2c-0.2-0.2-0.5-0.4-0.7-0.5l-74-42.8v11.2l63.8,36.8c-23.5,10.9-44.8,15.9-63.8,17.6v1.5h63
						c3.7-1.6,7.4-3.2,11.2-5c23.2-11.1,41.4-5.7,62.5,0.7c4.9,1.5,10.1,3,15.4,4.4h57.2c10-2.4,20.2-5.4,30.3-8.4
						c32.7-9.7,63.6-18.9,76-2.2c2.7,3.6,5.4,7.1,8.1,10.6h24.2c1.7-2.6,3.6-5.2,5.7-8c2.4-3,5.2-6.2,8-9.4
						c4.4-4.9,8.5-9.6,11.4-14.1c0.4-0.6,0.8-1.2,1.1-1.8c12.9-0.3,29-1.5,44.8-3.9l7.4,37.1h10.1l-7.7-38.9
						c3.2-0.6,6.4-1.3,9.5-2.1l9.5,40.9h10.2l-10.1-43.6c5.2-1.6,10-3.5,14.3-5.6c13.3-6.6,29.6-10.4,50.2-13.1l8.2,33.5
						c0,0,0,0.1,0,0.1l7,28.8h10.2l-6.7-27.3l16.6-7.9c2.5-1.2,3.5-4,2.3-6.4c-1.2-2.4-4.2-3.3-6.7-2.2l-14.6,6.9l-6.5-26.7
						c8-0.9,16.6-1.7,25.9-2.5c5.1,20.2,11.3,44.4,16.9,66.1H583C577.4,748.2,571,723.4,565.7,702.5z M641.6,26l0.4-3l107,15.9
						l4.8,16.7L640.7,42.7L641.6,26z M64,70.1l-18.3-9.8c3.1-3.8,6.3-8.2,9.5-13.5l13.4,4.5L64,70.1z M618.5,529.2
						c-1.1,2.1-2.2,4.1-3.1,6c-7.5,15.5-4.3,47-4,49.8l0.2,3.1l-17.3,3.9l-3.6-148.9l46.3,4.7c0.3,35.6-6.5,56.4-13.1,70.7l-6.9-3.5
						c-1.9-1-4.2-0.6-5.7,0.8l-12.5,11.5c-2,1.8-2.1,4.9-0.2,6.8c1.9,1.9,5.1,2,7,0.2l9.9-9.1l4,2
						C619.3,527.8,618.9,528.5,618.5,529.2z M433.9,658.8l1.5,7.6c-0.9,0.3-1.8,0.5-2.7,0.8c-22.4,6.9-33.7,4.8-39.3,1.7
						c-4.5-2.5-5.9-6-6.2-7c0.9-1.1,5.9-5.9,26.3-9.2c32.3-5.1,88.7-20.8,108.8-26.5c3.1,6.3,6,12.3,8.4,17.5
						c-17,3.1-51.3,9.9-85.8,19.9l-1.3-6.6c-0.5-2.6-3.1-4.3-5.8-3.8C435.1,653.7,433.4,656.2,433.9,658.8z M117.1,413.3l-9,3.3
						c-0.9,0.3-1.6,0.9-2,1.7c0,0-1.5,2.4-3.7,3c-1.2,0.3-2.5,0-4.1-0.9c-2.4-1.4-6.1-3.7-10-6c1.7-1.8,3.4-3.5,5-4.9
						c3.3-2.8,6.8-6,10.3-9.3C108.1,404.6,112.6,409,117.1,413.3z M107.8,380.1l11.6-9.8l0.6,0.6c-2.4,2.6-6.1,6.5-10.4,10.9
						C109.1,381.3,108.4,380.7,107.8,380.1z M115.9,388c4.2-4.3,7.8-8.1,10.3-10.8l9.4,9.5l-11.4,9.3
						C121.3,393.3,118.6,390.6,115.9,388z M142.4,393.7l1.1,1.1l-10.3,10c-0.7-0.7-1.4-1.3-2-2L142.4,393.7z M167,228.1l24.8,1.1
						c0.8,1.4,1.5,2.7,2.1,3.7c0.6,1.8,2.6,7.9,6.1,17l-8.3-5.7c-0.5-0.3-1-0.6-1.6-0.6L167,228.1z M174.6,242.2
						c-7.5-1.8-16.5-4.6-23.9-7.3l0.3-7.5l1.1,0.1c1.1,0.6,2.2,1.3,3.2,1.9L174.6,242.2z M191.1,203.6c10-2.3,17.3-3.5,20.6-4
						l11.9,16c0,0,0.1,0.1,0.1,0.1c0.1,0.1,0.2,0.3,0.4,0.4c0,0,0,0.1,0.1,0.1l8.5,7.6c0.8,0.7,2,1.1,3,1l18-1.9l-0.4,10.8
						c0,0.7,0.1,1.4,0.4,2.1l24.4,52.9l-12.6,4.6c-3.8-9.2-7.4-17.8-8.9-20.1c-1.3-2.1-5.3-8.4-34.3,3.9c-12.4-26.4-19-47-19-47.3
						c-0.1-0.3-0.2-0.6-0.4-0.9C197.7,219.7,192.4,208.6,191.1,203.6z M192.2,195.7c2-8.2,5.3-20.3,5.7-21.8
						c3.2-0.2,6.4-0.3,9.6-0.5l1.5,19C205.6,193,199.8,194.1,192.2,195.7z M413.1,232.1c-2.1-0.1-3.9,1.5-4,3.5l-0.7,14.6l-1.6,25.7
						c-5.5-0.1-14.5-0.6-20.3-1l-0.5-7.7c11.4-0.3,12.4-2,13.2-3.2c1.5-2.4,2.2-13.6,2.2-33.4l45,0.3c-0.7,1.5-1.7,3.5-3,6.1
						c-5.2,10.8-1.3,39.4,0,47.8l-5.3,0.6c-0.1,0-0.2,0-0.3,0l-58.1,6.1c-4.3-8.5-8.3-16.5-12-23.8l10.6,1.4l0.6,9.6
						c0.1,1.9,1.6,3.3,3.6,3.5c0.9,0.1,21.5,1.7,28.2,1.2c2-0.1,3.5-1.6,3.6-3.5l1.8-29.2l0.7-14.6
						C416.9,234,415.3,232.2,413.1,232.1z M552.6,141l5.9,20.8c0.1,0.2,0.2,0.5,0.3,0.7l3.6,6.9l-12.7,3.8
						c-2.4-17.4-4.5-31.9-5.1-36l6-11.3l9.5,5.3l-6.4,6.3C552.6,138.4,552.2,139.8,552.6,141z M536.5,245.9l46.8-11.9l3.7,14.9
						l-97.2,30.6c-3.6-7.2-6.6-13.9-8.9-19.7L536.5,245.9z M478.2,252.7c-4-11.1-5.3-17.9-5.4-18.1c-0.1-0.4-0.2-0.7-0.3-1.1
						c-0.1-0.4-0.3-0.8-0.4-1.2l75.1-19.8c0.5,3.6,0.9,7.2,1.4,10.5c0.7,5.2,1.7,8.9,2.8,11.4l-16.8,4.3L478.2,252.7z M558.9,232.5
						c-0.8-1.7-2-4.9-2.7-10.4c-0.5-3.7-1-7.6-1.5-11.6l19-5l5.2-1.4l4.1,22.2L558.9,232.5z M571.6,198.3l-17.9,4.7
						c-1-7.4-2-15-3-22.3l15.1-4.5l10.8,20.8L571.6,198.3z M546.1,205l-76.5,20.2c-0.1-0.3-0.2-0.6-0.3-0.9
						c-2.9-8.4-6.3-18.1-9.5-28.5l83.3-13.3C544.1,189.9,545.1,197.6,546.1,205z M471.3,281.8l-20.1,2.1
						c-1.7-10.9-4.5-35.8-0.7-43.9l3.3-6.8c0.6,1.7,1.2,3.4,1.7,5C456.3,241.7,460.2,258.6,471.3,281.8z M475.9,290.9
						c2.6,5,5.6,10.2,8.9,15.7c16.7,27.3,21.2,46.9,22.3,53.9c-32.6,18.6-55.3,28.8-74.4,36.6c-16.4-33.1-33.6-67.2-48.4-96.6
						l51-5.4l26.3,61.4c0.9,2,3,3.1,5.1,2.9c0.5,0,0.9-0.2,1.4-0.3c2.5-1,3.8-3.8,2.7-6.2l-25.2-58.8L475.9,290.9z M453,615.6
						l2.2,10.8c-16.2,4-32.3,7.6-44.4,9.5c-3.3,0.5-6.4,1.1-9.4,1.8l-0.8-10.1L453,615.6z M399.8,617.9l-1-12.7l50-10.6l2.3,11.6
						L399.8,617.9z M447.1,536.2c3.3-1.5,6.1-2.7,8.3-3.6l20.2,46.6l-19,4L447.1,536.2z M479.5,588.2l4.6,10.6l-23.3,5.3l-2.3-11.4
						L479.5,588.2z M492,606.8c1.4-0.3,2.6-1.2,3.3-2.5c0.7-1.2,0.7-2.7,0.2-4l-32.9-75.9c-0.5-1.2-1.5-2.1-2.7-2.6
						c-1.2-0.5-2.6-0.5-3.8,0c-0.4,0.2-5.7,2.3-12.8,5.5l-3.7-8.2c10.9-4.5,21.4-8.6,27.6-10.9c5.1,10.9,8.9,19.6,11.2,25.3
						c9.7,24.2,23.2,51.2,35.2,75c0.4,0.7,0.7,1.4,1,2.1c-11.1,3.1-30,8.4-49.9,13.4l-2.1-10.6L492,606.8z M464.3,461.3
						c-7.3-15.1-15.5-31.7-24-48.9c11.1-4.5,23.4-9.9,38-17.1l14.2,35c0.8,1.9,2.5,3.1,4.6,3.4l19.1,1.9c-0.4,0.1-0.8,0.2-1.2,0.4
						L464.3,461.3z M478.4,490.7c-3-6.4-6.4-13.4-9.9-20.7l20.8-10.4l3.3,5.6c1.4,2.3,4.4,3.1,6.8,1.8c2.4-1.3,3.2-4.2,1.8-6.5
						l-3.1-5.3l21.4-10.7c2.4-1.2,3.4-4.1,2.1-6.5c-0.5-1-1.4-1.7-2.4-2.1l34.3,3.5L478.4,490.7z M513,424.5l30.7-19l9.6,23.1
						L513,424.5z M500.6,420.9l-12.4-30.5c11.7-6.1,24.9-13.3,39.9-22.2l11.8,28.4L500.6,420.9z M307.6,343.2l-35.5,11.7
						c-3.7-4.4-7.8-9.4-12-14.9c-6.5-8.4-12.9-17.7-19-27.8l18.7-6.8c2.7,6.6,5.3,13.4,7.5,18.8c0.5,1.2,1.4,2.2,2.6,2.7
						c1.2,0.5,2.6,0.5,3.9,0.1l47.6-18.2c2.6-1,3.8-3.8,2.8-6.2s-3.9-3.7-6.5-2.7l-42.9,16.4c-1.4-3.6-3.5-8.8-5.7-14.3l17.5-6.4
						c1.3-0.5,2.3-1.4,2.8-2.6c0.5-1.2,0.5-2.6,0-3.8l-26.1-56.5l0.4-10.6l54.5-0.4c0,0.3,0,0.6,0.1,0.9l5.1,22.6l-12.6,1.4
						c-0.1,0-0.1,0-0.2,0l-21.2,2.4l-12.9-23.8c-1.3-2.3-4.3-3.3-6.7-2c-2.4,1.2-3.4,4.1-2.1,6.4l14.5,26.7c1,1.8,3,2.8,5,2.5
						l20.6-2.4l6.6,20.8l-18.3,7.8c-2.5,1.1-3.7,3.9-2.5,6.3c1.1,2.4,4.1,3.5,6.6,2.4l22.3-9.5c2.3-1,3.5-3.4,2.8-5.8l-7.3-23.3
						l7.7-0.9l9.8,43.6l-5.8,1.3c-1.5,0.3-2.7,1.3-3.4,2.6c-0.7,1.3-0.7,2.8,0,4.1l55.7,112.7c-1.2,0.6-2.5,1.3-3.7,1.9
						c-3.9,2.1-8,4.3-12.3,6.6l-52.3-82.2C312.2,343.4,309.8,342.5,307.6,343.2z M313.4,363.5l-21.1,13.6
						c-3.9-3.9-8.3-8.6-13.3-14.3l28.1-9.3L313.4,363.5z M265.8,171.3c23.2-0.4,44-0.2,56.7,1.3c-0.6,7.6-0.6,14.6-0.4,20.7
						l-57.3,4.8l1.2-25.3C266,172.4,265.9,171.8,265.8,171.3z M322.4,198.3c0.5,6.3,1.2,11.6,2.1,16l-60.4,0.4l0.5-11.3L322.4,198.3
						z M373.9,380.8l25.6-11.1c5.6,11.3,11.3,22.7,16.9,34c-8.9,3.6-17.2,6.9-25.8,11L373.9,380.8z M395.2,361l-25.5,11.1l-32-64.6
						l4.6-1c2.7-0.6,4.3-3.1,3.8-5.7l-15-67C339,249.8,366.2,303.1,395.2,361z M327.7,138.8c-0.5,2.6-1.1,5.3-1.7,8.2
						c-1.3,6.4-2.2,12.5-2.8,18.2c-22.9-2.7-68.1-1.5-108.4,0.3l0.9-27.9l0.6-12.5l14.2-73.7l82.3,16c9.4,13.7,14.5,22.7,17.1,30.4
						C333.6,109.4,331.6,119.2,327.7,138.8z M256.2,171.5c-0.1,0.3-0.1,0.6-0.1,1l-2,42.5l0,0.3l-17.4,1.8l-5.7-5.1l6.6-39.9
						C243.8,171.9,250,171.7,256.2,171.5z M229.6,172.4l-5.2,31.4l-7.5-10.1l-1.7-20.7C219.9,172.8,224.8,172.6,229.6,172.4z
						 M248.6,279c1.4,2.8,4.3,9.6,7.6,17.6l-20,7.3c-3.3-5.8-6.5-11.9-9.7-18.2C235.8,281.8,245.2,278.9,248.6,279z M252.1,345.8
						c4.1,5.3,8,10.1,11.7,14.5l-38.6,37.2l-6.9-6.3c0,0-0.1-0.1-0.1-0.1l-16.3-14.8l7.7-9.7c0.9-1.1,0.7-2.8-0.5-3.7l-8.4-6.6
						l32.4-38.1C239.3,328.2,245.6,337.4,252.1,345.8z M208,394.9l-19,21.2l-10.3-10.4l17.2-21.7L208,394.9z M203.6,365.3l-5.7,7.2
						l-6.2-5.6l5.6-6.5L203.6,365.3z M191.8,380.2l-17.1,21.5l-17.9-18.1l3-10l11.4-12L191.8,380.2z M153.5,369.2
						c-0.4,0.4-0.7,0.9-0.9,1.5l-2,6.7l-8.9-9l17.4-17.8l4.5,4.1l1.9,1.9L153.5,369.2z M148.9,400.2l15,15.2l-8.4,10.6
						c-5.6-5.3-11.3-10.6-16.8-15.9L148.9,400.2z M167.7,419.3l11.5,11.6c0.3,0.7,0.7,1.3,1.3,1.8c0.3,0.3,0.7,0.5,1.1,0.7
						l26.8,27.2c-1.7,2.6-2.5,5.5-2.8,8.4c-13.7-10-29.9-24.2-46.2-39.3L167.7,419.3z M195.8,423l19.4-21.5l6.7,6.1
						c2,1.8,5,1.7,6.9-0.1l41.3-39.8c9.8,11.2,17.6,18.8,23.3,24.4c8.8,8.6,11.6,11.5,11.4,15.2l-0.2,4.8
						c-18.8,3.5-60.6,24.1-82.4,37.7L195.8,423z M223.3,469.7c2.9-2.6,12.1-8.2,23.6-14.4l13.8,23.3c-12.6,4.2-23.2,6.2-30,4.5
						c-0.7-0.2-1.4-0.4-2.1-0.6c-0.7-0.2-1.4-0.5-2.1-0.8C224.2,477,222.7,471.6,223.3,469.7z M251.8,452.8
						c20.8-11,46.8-23,57.2-24.2c4.1,3.9,11.3,10.9,18.4,19.6c-20.8,10.9-42.8,21.8-61.4,28.6L251.8,452.8z M320.8,415.9l-1-0.9
						c-1.4-1.4-3.2-2.3-5.2-2.9l0.2-4.4c0.4-8-4.8-13.1-14.2-22.3c-0.4-0.4-0.9-0.9-1.3-1.3l19.3-12.4l38.5,60.6
						c-4.5,2.4-9.2,5-14,7.6C334.6,429.1,325.7,420.6,320.8,415.9z M367.2,446.3c6.8-3.7,13.3-7.3,19.4-10.5
						c12.8-6.9,24.4-11.5,37.4-16.8c4.5,9,8.8,17.9,13,26.4l-74.5,29.1c-2.2-7.2-5.6-14.1-9.5-20.6
						C357.6,451.4,362.4,448.9,367.2,446.3z M439.4,450.3c3.2,6.5,6.3,12.8,9.2,18.9L415.1,486l-5-12.9c-1-2.5-3.8-3.7-6.4-2.8
						c-2.6,0.9-3.9,3.7-2.9,6.2l7,18c0.5,1.3,1.5,2.3,2.9,2.8c0.7,0.3,1.5,0.4,2.3,0.3c0.6-0.1,1.2-0.2,1.8-0.5l38.1-19.1
						c3.7,7.7,7.2,15,10.3,21.6c-11.4,4.3-35.9,13.8-52.5,22.1c-7.8,3.9-27.5,5.9-39.9,6.7c-2.3-20.8-4.9-39.2-6.7-48.2
						c0-0.1-0.1-0.2-0.1-0.3L439.4,450.3z M446.8,585.3L398,595.6l-2.9-36.2c5.4-1.3,14.9-4.2,26.1-10.5c5.1-2.9,11-5.8,16.6-8.5
						L446.8,585.3z M529.6,601.1c-11.8-23.5-25.2-50.2-34.6-73.7c-2.5-6.3-6.8-15.8-12.4-27.8l83.3-57c0.7-0.5,1.3-1.2,1.6-1.9
						l13.3,1.3l2.6,106.4l-36.4,8.6c-2.7,0.6-4.3,3.2-3.6,5.8c0.7,2.6,3.4,4.1,6,3.5l34.3-8.1l0.9,35.9L532,606.1
						C531.2,604.5,530.4,602.8,529.6,601.1z M564.6,429.8l-4.6-10.9l18.5-7.8c2.5-1.1,3.7-3.9,2.6-6.3c-1.1-2.4-4-3.5-6.5-2.5
						l-18.3,7.6l-19.6-47c12.8-7.7,26.8-16.6,42.4-26.8l19.8,36.2l8.6,36.9c0,0.1,0,0.1,0,0.2l5.9,25.3L564.6,429.8z M633.7,520.8
						c6.7-14.9,13.4-36.4,13.3-72.1l33.5,3.4l0.5,67.5L633.7,520.8z M681.9,529.2l1.3,28.6l-62.6,2.1c0.3-7.9,1.4-15.6,3.8-20.6
						c0.8-1.7,1.9-3.7,2.9-5.7c0.5-1,1-2,1.6-3L681.9,529.2z M642.8,437.7c-0.1,0-0.3,0-0.5,0l-18.3-1.9l-5.4-23l23.4-0.9l3.4,26.1
						L642.8,437.7z M724.8,675.3c-30.5,1.5-67.9,3.4-99.8,5.6l-0.9-43.8c0,0,0-0.1,0-0.1l-1.7-33.5l16-1.8l-2.6,45.4
						c-0.2,2.6,1.9,4.9,4.7,5c0.3,0,0.5,0,0.8,0c2.4-0.2,4.3-2.1,4.5-4.5l2.7-47l22.6-2.5l-0.5,25.1c-0.1,2.6,2.1,4.8,4.9,4.9
						c0.2,0,0.4,0,0.6,0c2.5-0.2,4.4-2.2,4.5-4.7l0.6-26.4l26.3-2.9l1.8,58c0.1,2.6,2.4,4.7,5.1,4.6c0.1,0,0.2,0,0.3,0
						c2.6-0.2,4.6-2.4,4.5-4.9l-1.8-58.8l11.6-1.3L724.8,675.3z M730.9,549.6C730.9,549.6,730.9,549.7,730.9,549.6
						c0,0.1,0,0.1,0,0.1l-1.2,25.1c-0.9-0.2-1.8-0.2-2.7-0.1l-105.4,11.7l-0.1-2c0-0.1,0-0.2,0-0.3c-0.4-3.2-0.8-8.6-0.9-14.6
						l68.1-2.3c1.3,0,2.6-0.6,3.5-1.5c0.9-0.9,1.4-2.2,1.3-3.5l-1.6-33.2l40-1L730.9,549.6z M733.7,491.1c0,0.1,0,0.1,0,0.2
						l-1.3,27.1l-12.2,0.3l0.1-62.5l15,1.5L733.7,491.1z M754.4,555.5l-0.2,118.4c-5.9,0.3-12.4,0.6-19.4,0.9l5.8-119.9L754.4,555.5
						z M784,496.8l-40.2-9.2l1.4-28.9l39.5,4L784,496.8z M766.5,307.1l18.4,142l-0.1,3l-22.5-2.3c0.4-0.7,0.6-1.5,0.6-2.4
						l-4.1-138.8C761.4,308,764,307.5,766.5,307.1z M745.8,312.5c1-0.4,2.1-0.8,3.2-1.2l4,136.3c0,0.4,0.1,0.8,0.2,1.2l-7.5-0.8
						c0,0,0-0.1,0-0.1c0,0,0,0,0,0c0-0.1,0-0.2,0-0.3l-9-132.3C739.8,314.6,742.9,313.7,745.8,312.5z M726.8,317.2l8.9,129.9
						l-31-3.1c0.2-0.5,0.3-1.1,0.3-1.7l-4.6-124.4C708.9,318.3,718,318.3,726.8,317.2z M710.4,455.2l-0.1,63.7l-18.9,0.5
						c-0.1-0.3-0.2-0.6-0.4-0.9l-0.4-65.3L710.4,455.2z M694.9,442.6c0,0.1,0,0.2,0.1,0.4l-39.4-4l-3.6-27.5l17-0.7
						c0.1,0,0.1,0,0.2,0l24.6-1L694.9,442.6z M664.3,313.6c2,0.2,4.6,0.6,7.5,1c5.1,0.7,11.4,1.7,18.5,2.4l3.1,83.2l-21,0.8
						c-4.8-13.6-22.5-64.2-23.5-78.8c-0.1-1.6-0.3-3.1-0.4-4.6C650,316.1,654.9,312.5,664.3,313.6z M662,401.5l-45.5,1.8l-7.9-33.7
						c0-0.2-0.1-0.4-0.2-0.6l38.3-13.8C652,372.8,658.6,391.9,662,401.5z M643.9,346l-40.2,14.5l-16.3-29.8c8.9-5.9,18.2-12.2,28-19
						c5.5-3.8,11.7-7.5,18.4-11.2c2,4.7,4.3,12,5,22.4C639.2,327.9,641.2,336.3,643.9,346z M617.1,247.4l17.2,33.5
						c-10.9,5.5-20.7,11.2-29.2,17c-32.6,22.5-59.4,39.7-81.9,53.1c-2.6-11.1-8.8-29.6-23.2-53.1c-2.1-3.4-4-6.7-5.8-9.9l109.8-34.5
						c0.1,0,0.2-0.1,0.3-0.1C607.3,252.3,611.7,250.2,617.1,247.4z M605.3,196.8l9,41.2c-5.8,3-10.4,5.3-13.4,6.5l-6.2,2l-8.3-44.5
						L605.3,196.8z M603.7,189.5l-19.5,5.4l-10.9-20.9l10.1-3c1.6-0.5,2.6-1.8,2.7-3.4l0.5-11l9-3.6L603.7,189.5z M589.3,147.5
						l-7.9,3.1c-1.4,0.6-2.3,1.8-2.4,3.3l-0.5,10.7l-8.8,2.6l-4-7.6l-5.2-18.4l6.3-6.1L589.3,147.5z M569.1,15.2l63.8,6.4l-0.2,3.6
						L622,99.6c-4-0.4-7.7-0.8-10.9-1.2c-6.3-0.7-12.9-1.9-19.6-3.5c1.9-6.9,4.4-18.9,1.4-24.1c-1.2-2-2.8-2.8-4-3.1
						c-5.3-1.4-21.1-2-29.1-2.2L569.1,15.2z M536,5.9l25.5,7.6l-10.2,54.9c-0.2,1.1,0.1,2.2,0.8,3c0.7,0.8,1.8,1.3,2.9,1.4
						c10,0.2,26.1,0.8,31.2,1.9c0.9,2.3-0.1,10.3-2.3,18.4c-23.6-6.1-46.3-15.4-54.7-19.2L536,5.9z M528.6,81.7
						c9.9,4.3,30.6,12.5,52.3,18.2l-14.5,23.7l-39.7-22L528.6,81.7z M455,72c23.8,1.4,56.9,4.3,68.2,7.6l-2.1,20.9
						c-8.7-0.6-37.8-2.6-68.6-4.8C453.4,88.3,454.2,80.3,455,72z M449.5,123.2c0.6-4.9,1.3-11,2.1-18c32.8,2.3,63.7,4.4,70.4,4.9
						l21.8,12.1l-5.5,10.5l-89.1-5.9C449.3,125.5,449.4,124.3,449.5,123.2z M537.1,140c0.8,5.8,2.7,19.3,4.9,35.1l-84.4,13.5
						c-5-17.7-9-36.8-8.9-54.5L537.1,140z M450.3,223.3l-52.7-0.3c-1,0-2,0.4-2.8,1.1c-0.7,0.7-1.1,1.7-1.1,2.6
						c0,12.9-0.4,27.9-1.1,32.6c-4.2,0.7-16.8,0.4-29.1-0.2c-10.2-20.1-17.2-33.9-18.8-37.1c-0.2-0.6-0.9-2.4-1.6-5.4l103.2-5.4
						C447.6,215.4,449,219.5,450.3,223.3z M443.9,203.9l-102.4,5.4c-1.7-9.7-2.9-24.8-0.5-44.4l92.9-0.2
						C436.4,178.3,440,191.6,443.9,203.9z M407.2,51.8l26.7,5.6l4.3,4.2c-1.1,11.6-2.3,22.8-3.3,32.7c-13.6-1-26.9-1.9-38.1-2.7
						L407.2,51.8z M394.3,101.1c11.6,0.8,25.4,1.8,39.6,2.8c-0.7,6.7-1.4,12.6-2,17.3c-0.4,3-0.6,6-0.7,9.1l-42.9-6.1L394.3,101.1z
						 M431.2,137.8c0.1,6.4,0.7,13,1.6,19.5l-52.9,0.1l8-25.7L431.2,137.8z M386.5,100.5l-14.9,56.9l-29.6,0.1
						c0.4-2.3,0.8-4.7,1.3-7.2c0.6-2.9,1.1-5.6,1.6-8.2c3.5-17.5,5.6-28.8,4-40c4.2-1.9,9.8-3.7,15.3-3.2
						C366.8,99.1,375.1,99.7,386.5,100.5z M342.6,20.9l41.3,3.7l-10.2,33l-31.9-5.3C344,43.1,343.2,28.4,342.6,20.9z M338.8,59.4
						l24.2,4l-6.5,26.3c-3.6,0.6-6.9,1.7-9.8,2.9c-2.6-7.7-7.1-16.2-14.2-27.1C334.7,64.1,336.9,62.1,338.8,59.4z M301.5,17.2
						l33.3,3c1,11.2,1.4,28-1.5,33.5c-1.3,2.6-3.2,4.3-5,5.5c-5.6-8.2-12.4-17.6-20.7-29c-2.2-3-4.4-6-6.5-8.8L301.5,17.2z
						 M259.4,10.9c5.3,1.1,10.3,2,14.3,2.8c5.7,7.7,12.2,16.4,19.4,26.2c5.2,7,9.7,13.2,13.6,18.8l-54.6-10.6L259.4,10.9z M225.9,4
						c5.1,1.2,16.7,3.6,28.1,5.9l-7.3,37.2l-30.3-5.9C219.4,25.7,223.4,8.9,225.9,4z M160.6,124.9c4.4-12.4,8-27.9,11.8-44.4
						c2.8-12.1,5.8-25.1,9.5-38.4l40.9,8l-14.2,74.1c0,0.2-0.1,0.3-0.1,0.5l-0.6,12.8L207,166c-29.1,1.4-54.5,3.1-65.4,3.9
						C148.8,154.6,155.8,138.5,160.6,124.9z M135.8,181.9l2.8-4.4c6-0.4,24.9-1.7,48.8-3c-1.5,5.7-4.7,17.8-6,23.8
						c-1.5,0.4-3.1,0.8-4.6,1.2c-14.4,3.7-37,0.7-48.9-1.4C130.4,193,133.1,187.6,135.8,181.9z M122.6,208.2c0.5-1,1.1-2.1,1.7-3.2
						c11.6,2.1,37.4,6,54.4,1.6c1-0.2,1.9-0.5,2.8-0.7c1.2,4.6,3.7,10.4,6.3,15.7l-33.5-1.5c-0.5-0.2-0.9-0.5-1.4-0.7
						c-6.3-3.2-13.9-6-22.5-8.3c-3.5-0.9-6-1.5-7.9-1.9L122.6,208.2z M94,256.3l56.2,34.9c0.7,0.5,1.6,0.7,2.5,0.6
						c0.2,0,0.4-0.1,0.6-0.1c1.1-0.3,1.9-1,2.4-1.9l11-20.8c1-1.8,0.2-4.1-1.7-5c-1.9-0.9-4.2-0.2-5.2,1.6l-9,17.1L98.1,250
						c2.8-4.4,5.3-8.4,7.4-11.8l48.5,28.3c0.7,0.4,1.6,0.6,2.4,0.5c1.2-0.1,2.3-0.7,2.9-1.8c1.1-1.8,0.5-4-1.3-5.1l-48.5-28.3
						c2.5-4,4.1-6.6,4.5-7.2c0.1-0.1,0.2-0.3,0.2-0.4c0.3-0.5,1.9-3.5,4.3-8.1c2.7,0.5,14.1,2.7,25,7.2c0,0,0,0.1,0,0.1l-0.6,13.9
						c-0.1,1.6,0.9,3,2.4,3.6c5.4,2,30.9,11.4,42.7,10.3l17.1,11.5c2.7,6.5,6,13.8,9.7,21.5c4.2,8.8,8.6,17.1,13.1,25l-43.5,51.1
						l-23.3-21.2c-0.9-0.8-2-1.2-3.1-1.3l-0.5-0.6c-0.1-0.1-0.1-0.1-0.2-0.2c-0.5-0.5-11.5-10.1-23.8-16.5c2.3-2.9,3.5-5.7,3.5-8.6
						c0-4.7-3.2-7.6-4.7-9.1c-0.2-0.1-0.3-0.3-0.4-0.4c-1.8-1.9-4.7-3-7.7-3c-2.4,0-6,0.8-9.3,4.5c-2.4,2.7-3.2,6.1-2.3,9.5
						c1.2,4.6,5.4,8.8,10.5,10.6c13.1,4.6,27.5,17.1,28.9,18.2l0.9,1c0.2,1,0.7,1.9,1.5,2.6l0.8,0.7L138,364.4l-30.5-30.9l-2.9-53.1
						c0,0,0-0.1,0-0.1c0-0.1,0-0.2,0-0.3c0-0.1,0-0.2-0.1-0.2c0-0.1-0.1-0.2-0.1-0.2c0-0.1-0.1-0.2-0.1-0.2c0-0.1-0.1-0.1-0.1-0.2
						c0-0.1-0.1-0.1-0.2-0.2c-0.1-0.1-0.1-0.1-0.2-0.2c-0.1-0.1-0.1-0.1-0.2-0.2c-0.1-0.1-0.1-0.1-0.2-0.2c-0.1-0.1-0.2-0.1-0.3-0.1
						c0,0-0.1,0-0.1-0.1l-17.8-7.9C88.2,265.4,91.2,260.7,94,256.3z M129.2,312.1c0,1.5-1.1,3.3-3.1,5.3c-0.1,0-0.2-0.1-0.4-0.1
						c-2.7-1-5.1-3.3-5.7-5.5c-0.4-1.4,0.2-2.3,0.7-2.8c1-1.1,2.1-1.8,3.3-1.9c0.1,0,0.1,0,0.2,0c1.1-0.1,1.9,0.4,2,0.5
						c0.2,0.2,0.4,0.4,0.7,0.7C128.1,309.5,129.2,310.7,129.2,312.1z M82.1,274.9l17,7.5l2.5,45.2l-3.7-3.7
						c-0.1-0.1-0.1-0.1-0.2-0.2c0.9-1.1,0.8-2.7-0.3-3.7l-28.8-24.4C73.2,288.7,77.7,281.6,82.1,274.9z M41.7,334.6
						c7.2-9.9,15.5-22,23.8-34.5l24.9,21.1c-1.9,0.2-3.8,1-5.2,2.3l-22.8,21.2C55.8,341.2,48.9,337.8,41.7,334.6z M77.9,354.2
						l13.3-12.4l24.4,24.7l-11.7,9.8c-2.6-2.5-5.1-4.9-7.5-7.3C91,363.7,84.7,358.8,77.9,354.2z M94.5,391.4
						c0.9,0.9,1.9,1.9,2.9,2.8c-3.4,3.2-6.7,6.3-9.9,9c-2.2,1.9-4.5,4.1-6.7,6.7c-1.8-1.1-3.4-2.1-4.7-2.9L94.5,391.4z M83.4,420.2
						c4.1,2.5,8.2,5,10.8,6.5c4.2,2.5,7.8,2.3,10.1,1.7c3.9-1,6.4-3.7,7.7-5.3L123,419c0.4,0.4,0.7,0.7,1.1,1.1l-27.9,35.7
						l-27.4-13.2c0,0,0,0,0,0C73.4,434.6,78.4,426.7,83.4,420.2z M44.3,500.2c0.1-0.3,0.2-0.6,0.3-1c0-0.1,1.4-7.6,8.6-24.8
						c3.1-7.6,7.7-17.3,13-27.1c0.1,0,0.1,0.1,0.2,0.1l26.5,12.7l-2.3,2.9c-0.8,1-1.2,2.4-0.9,3.7c0.2,1.3,1,2.4,2.1,3.2l6.4,4.2
						c-0.5,0.5-0.8,1.3-0.8,2.1l3.6,32.5L44.3,500.2z M116.6,511l-10-1.5l-3.5-32.2l18.6,12.2L116.6,511z M101.7,464.9l29.6-37.9
						c4.6,4.3,9,8.5,13.4,12.6L129,459.3c-0.9,1.1-0.7,2.7,0.4,3.6l6,4.9l-5.2,7.1c0,0-0.1,0.1-0.1,0.1l-4.2,5.7L101.7,464.9z
						 M178.4,520.3l-51.9-7.8l5.4-23.1l3.7-5.1l50.4,32.5L178.4,520.3z M196.4,512l-55.1-35.5l7.1-9.7l8,5.9c2.2,1.6,5.3,1.2,7-0.9
						c1.7-2.1,1.3-5.1-0.9-6.7l-12.2-8.9c-1.1-0.8-2.4-1.1-3.8-0.9c-1.3,0.2-2.5,0.9-3.3,2l-4.6,6.3l-3.6-3l13.7-17.2
						c26.6,24.5,49.6,43.5,66.7,52.1c0,0,0,0,0,0c3,1.7,6.1,2.9,9.2,3.8L196.4,512z M182.4,577.9l36.6-10.5
						c-2.5,10.8-6.8,22.9-14.1,35.9c-0.5,1-1.1,1.9-1.7,2.8L182.4,577.9z M196.7,628.6c3.9-3.4,7.4-7.1,10.4-10.9
						c0.2-0.2,0.4-0.5,0.6-0.7c2.3-2.9,4.3-6,6.1-9.2c27.6-49.5,16.8-87.6,12.5-98.8l11.9-5.4c3.1,1.7,5.5,4.2,7.4,8.8
						c7.1,17.3,23,81.4,27.3,119.2c0,0,0,0,0,0.1l-12.6,0.3L246.4,519c-0.3-2.6-2.8-4.5-5.5-4.2c-2.7,0.3-4.7,2.7-4.4,5.3
						l13.7,111.9l-53.8,1.1C196.4,631.5,196.4,630,196.7,628.6z M269.3,694.8l-1.3-0.2l-6.5-53.2l13.8-0.3c1.5,3.5,3.5,6.8,6.1,9.7
						c-5.4,2.2-9.6,5.8-10.2,11.6C270.6,667.1,269,680.7,269.3,694.8z M119.9,660.6c3.8-0.6,7.8-1.4,11.9-2.2
						c22.1-4.8,40.6-12.2,55-22c0.1,0.7,0.2,1.4,0.3,2.1c0,0.4,0.1,0.7,0.2,1c1.5,7.7,4.9,17,9.6,28.8l-77.6,7.4L119.9,660.6z
						 M200.6,677.5c6.2,16.1,5.6,28.2,4.8,33.9c-5.9-0.4-11.2-0.3-16.2,0.2c-3.4,0.3-6.6,0.8-9.6,1.4l-2.7-33.2L200.6,677.5z
						 M117,722.4l1.8-37.2l4.6-0.4l0.6,37.9L117,722.4z M133.9,723.2l-0.6-39.3l33.7-3.2l2.8,35c-6.5,2.3-11.7,5.3-15.9,8.3
						L133.9,723.2z M234.1,745.4c-14.4,4.3-29.3,8.7-42.5,10.7c-17.1,2.6-31.8-1.3-47.1-5.9c1-2.5,4.7-10.2,13.4-17.2
						c0.5-0.3,0.9-0.6,1.2-0.9c4.4-3.3,9.9-6.3,16.9-8.4c0.3-0.1,0.6-0.2,0.9-0.3c8.4-2.4,18.9-3.5,31.8-2.2
						c2.3,0.2,4.5-1.1,5.3-3.3c0.2-0.7,5.5-16.8-3.3-41.5l1.4-0.1c2.7-0.3,4.7-2.6,4.5-5.2c-0.3-2.6-2.7-4.5-5.4-4.3c0,0,0,0,0,0
						l-4.1,0.4c-3.9-9.8-7-18-8.8-24.5l53.2-1.1l7.1,57.7c0.3,2.1,1.9,3.8,4.1,4.2l7.2,1.1c1,10,3.2,19.3,7.9,24.8
						c1.4,1.6,2.7,3.1,4.1,4.5C266.8,735.7,250.4,740.6,234.1,745.4z M262,506.1c-1.4-3.4-3.1-6.2-4.9-8.6
						c21.6-5.7,48.9-18.7,80.3-35.3c4.2,6.8,7.6,14,9.1,21.2c1.1,5.3,2.6,15,4.2,27.3l-17.6,3.9l-1.6-12.6c-0.3-2.6-2.8-4.5-5.5-4.2
						c-2.7,0.3-4.7,2.7-4.3,5.3l2.3,17.9c0.2,1.3,0.9,2.6,2.1,3.3c1,0.7,2.2,1,3.3,0.8c0.2,0,0.4-0.1,0.6-0.1l21.9-4.9
						c1.7,13.8,3.3,30,4.8,46.6c2.1,25.2,2.9,42.6,2.9,54.1l-69.2,8.7c0,0,0,0,0-0.1c-0.7-6.3-1.8-13.5-3-21l56.5-5.8
						c2.7-0.3,4.7-2.6,4.4-5.3c-0.3-2.6-2.7-4.5-5.4-4.3c0,0,0,0,0,0l-57.1,5.8C279.1,563.5,268.4,521.4,262,506.1z M359.5,630.7
						c-0.2,3.5-0.4,6-0.7,7.6c-6.1,2.3-22.6,7.3-38,8.8c-2.5,0.2-4.6,0.3-6.5,0.4c-1.5-0.1-3-0.1-4.4-0.1c-4.3-0.3-6.5-1.2-7.4-1.7
						c-3.5-1.9-6.3-4.1-8.2-6.7L359.5,630.7z M347.9,741.7c-2.9,3.3-6,6.7-8.6,10.1c-1.4,1.7-2.7,3.5-3.9,5.2
						c-1.9-2.4-3.8-4.9-5.6-7.4c-2-2.7-4.2-5-6.6-6.9c10.5-3.9,21.8-7.1,27.7-6.3c0.4,0.1,0.9,0.1,1.5,0.2
						C351,738.1,349.4,739.9,347.9,741.7z M363.2,720c-4.3-0.1-7.7-0.2-10-0.5c-14.4-1.7-37.8,7.6-47.6,11.9
						c-3.1-2-8.3-5.9-14.1-12.7c-5.2-6.1-5.5-31.5-2.9-52.4c3.3-1.3,10.8-2.1,20.5-2c1.6,0.1,3.3,0.2,5,0.1
						c8.6,0.4,18.6,1.4,28.6,3.3c18,3.5,25,7.9,26.4,9.5C369.9,688.7,370.8,703.6,363.2,720z M371.7,653.6c-0.9,1.5-1.4,2.9-1.8,4.4
						c-2.3-1-4.8-1.9-7.5-2.8c8.3-2.8,9.5-4.4,10.5-5.6c2.7-3.4,7.7-9.7,1.8-80.9c-0.8-10.1-1.8-20.6-2.9-30.8
						c11.9-0.8,33.5-2.8,43.5-7.8c4.6-2.3,9.9-4.7,15.3-7.1l3.8,8.5c-6,2.8-12.5,6.1-18.1,9.3c-15,8.5-26.9,10.1-27,10.1
						c-2.6,0.3-4.5,2.6-4.3,5.1l6.7,84.3C381.6,643.7,375,648.1,371.7,653.6z M453.8,705.7c-17.4,8.6-47.9,12.6-71.4,13.8
						c4.6-13,5.2-24.8,4.8-34.6c7.4,3.4,16.5,4.5,27.1,3.5c7.2-0.7,15.2-2.4,23.9-5.1c39.8-12.4,82.2-20.6,99-23.6
						c0.1,0.3,0.2,0.7,0.2,1c0.8,3.8,3.1,13.6,6.3,26.5C504.4,690.6,476.3,694.5,453.8,705.7z M554.8,657.6
						c-0.5-2.7-1.7-6.2-3.3-10.2c-0.1-0.2-0.1-0.4-0.2-0.5c-2.7-6.8-6.7-15.2-11.5-25l72.7-16.4l1.6,32l0.9,44.2
						c-7.3,0.5-14.2,1-20.6,1.6c-8.5,0.7-16.6,1.4-24.4,2c-2.9,0.2-5.8,0.5-8.6,0.7C558.1,671.9,555.6,661.4,554.8,657.6z"/>
				</g>
			</g>
			<g id="Calles_anchas_2_">
				<g>
					<g>
						<path class="st6" d="M453,1c-0.1,0.7-0.1,1.3-0.2,2"/>
						<path class="st7" d="M452.4,7c-0.3,2.9-0.5,5.8-0.8,8.9l-7.8,78.8c-1.2,11-2.2,20.6-3.1,27.5c-0.3,2.6-0.4,5.2-0.7,7.8
							c-3.2,30.4,14.5,78.4,14.5,78.4c3.5,10.5,6.9,20,9.5,27.7c5,25.9,7.3,25.4,14.7,41c0,0,28.8,45.6,34.6,70.9
							c1.1,4.7,1.8,8.4,2.3,10.9"/>
						<path class="st6" d="M516,360.9c0.2,1.3,0.3,2,0.3,2"/>
					</g>
				</g>
			</g>
			<g>
				<g>
					<g>
						<path class="st5" d="M407.1,438.9c-6.9-0.3-12.7-4.8-14.6-11.1l-4.9-0.2l0.5-9.9l4.9,0.2c2.5-6.1,8.7-10,15.6-9.7
							c6.9,0.3,12.7,4.8,14.6,11.1l4.9,0.2l-0.5,9.9l-4.9-0.2C420.2,435.3,414,439.2,407.1,438.9z M407.4,432.9
							c-3.7-0.2-7-2.3-8.4-5.6l-1-2.1l19.5,0.9l-1.2,2C414.6,431.2,411.2,433.1,407.4,432.9z M417.8,422l-19.5-0.9l1.2-2
							c1.8-3.1,5.2-5,8.9-4.8c3.7,0.2,7,2.3,8.4,5.6L417.8,422z"/>
					</g>
				</g>
				<path class="st8" d="M422,420.7c-1.3-6-6.7-10.7-13.5-11c-6.7-0.3-12.6,3.9-14.5,9.8l-4.5-0.2l-0.3,7l4.5,0.2
					c1.3,6,6.7,10.7,13.5,11c6.7,0.3,12.6-3.9,14.5-9.8l4.5,0.2l0.3-7L422,420.7z M408.3,415.7c3.2,0.1,5.9,2.1,7.1,4.7l-14.6-0.6
					C402.2,417.2,405,415.6,408.3,415.7z M407.5,431.5c-3.2-0.1-5.9-2.1-7.1-4.7l14.6,0.6C413.6,429.9,410.7,431.6,407.5,431.5z"/>
			</g>
			<g>
				<g>
					<g>
						<path class="st5" d="M291.8,487.9c-6.9-0.3-12.7-4.8-14.6-11.1l-4.9-0.2l0.5-9.9l4.9,0.2c2.5-6.1,8.7-10,15.6-9.7
							c6.9,0.3,12.7,4.8,14.6,11.1l4.9,0.2l-0.5,9.9l-4.9-0.2C304.9,484.2,298.7,488.2,291.8,487.9z M292.1,481.9
							c-3.7-0.2-7-2.3-8.4-5.6l-1-2.1l19.5,0.9l-1.2,2C299.3,480.2,295.8,482,292.1,481.9z M302.4,470.9l-19.5-0.9l1.2-2
							c1.8-3.1,5.2-5,8.9-4.8s7,2.3,8.4,5.6L302.4,470.9z"/>
					</g>
				</g>
				<path class="st8" d="M306.7,469.7c-1.3-6-6.7-10.7-13.5-11c-6.7-0.3-12.6,3.9-14.5,9.8l-4.5-0.2l-0.3,7l4.5,0.2
					c1.3,6,6.7,10.7,13.5,11c6.7,0.3,12.6-3.9,14.5-9.8l4.5,0.2l0.3-7L306.7,469.7z M292.9,464.7c3.2,0.1,5.9,2.1,7.1,4.7l-14.6-0.6
					C286.9,466.2,289.7,464.5,292.9,464.7z M292.2,480.4c-3.2-0.1-5.9-2.1-7.1-4.7l14.6,0.6C298.2,478.9,295.4,480.6,292.2,480.4z"
					/>
			</g>
			<g>
				<g>
					<g>
						<path class="st5" d="M73.5,226.5c-6.9-0.3-12.7-4.8-14.6-11.1l-4.9-0.2l0.5-9.9l4.9,0.2c2.5-6.1,8.7-10,15.6-9.7
							c6.9,0.3,12.7,4.8,14.6,11.1l4.9,0.2l-0.5,9.9l-4.9-0.2C86.6,222.8,80.3,226.8,73.5,226.5z M73.8,220.5
							c-3.7-0.2-7-2.3-8.4-5.6l-1-2.1l19.5,0.9l-1.2,2C80.9,218.8,77.5,220.6,73.8,220.5z M84.1,209.5l-19.5-0.9l1.2-2
							c1.8-3.1,5.2-5,8.9-4.8s7,2.3,8.4,5.6L84.1,209.5z"/>
					</g>
				</g>
				<path class="st8" d="M88.3,208.3c-1.3-6-6.7-10.7-13.5-11c-6.7-0.3-12.6,3.9-14.5,9.8l-4.5-0.2l-0.3,7l4.5,0.2
					c1.3,6,6.7,10.7,13.5,11c6.7,0.3,12.6-3.9,14.5-9.8l4.5,0.2l0.3-7L88.3,208.3z M74.6,203.3c3.2,0.1,5.9,2.1,7.1,4.7l-14.6-0.6
					C68.5,204.8,71.4,203.1,74.6,203.3z M73.8,219c-3.2-0.1-5.9-2.1-7.1-4.7l14.6,0.6C79.9,217.5,77,219.2,73.8,219z"/>
			</g>
			<g>
				<polygon class="st5" points="387.2,182.5 382.1,182.3 382.3,178.6 378.4,178.4 378.2,182.1 373.1,181.9 372.9,185.6 
					378.1,185.8 377.7,193.2 381.5,193.4 381.9,186 387,186.2 				"/>
			</g>
			<g>
				<polygon class="st5" points="603.8,26.6 598.4,26.4 598.5,22.4 594.5,22.2 594.3,26.2 588.8,25.9 588.6,29.9 594.1,30.1 
					593.7,38 597.8,38.1 598.2,30.3 603.6,30.5 				"/>
			</g>
			<g>
				<g>
					<path class="st5" d="M462.6,161.2c0.1-2,1.3-4.2,2.6-5.5c-3.3,0.9-6,4.1-6.2,7.6c-0.2,4.3,3.3,8,7.8,8.2c2.4,0.1,4.4-0.4,5.9-2
						c-0.8,0.2-1.5,0.3-2.4,0.2C465.8,169.5,462.4,165.5,462.6,161.2z"/>
					<polygon class="st5" points="473.5,158.2 476.2,157 475.6,159.8 477.6,161.9 474.6,162.1 473.2,164.6 472,162 469.1,161.5 
						471.3,159.6 470.9,156.8 					"/>
				</g>
			</g>
			<path class="st5" d="M281.1,103.1l-2.6,0l0-1.8c0-2.3-1.7-4.2-6.1-4.2c-4.4,0-5.9,1.9-5.9,4.2l0,1.7l-3.1,0c0,0-1.3,6.3-1.6,11
				c-0.5,8.7,20.6,8.9,20.6,0.3C282.5,109,281.1,103.1,281.1,103.1z M268,103l0-1.7c0-1.6,1.5-2.8,4.4-2.8c2.9,0,4.7,1.3,4.7,2.8
				l0,1.8L268,103z"/>
			<path class="st9" d="M357.9,151.9c-0.4,7.9-7.3,14-15.6,13.6c-8.2-0.4-14.6-7.1-14.2-15c0.4-7.9,7.4-14,15.6-13.6
				C352,137.3,358.3,144,357.9,151.9z"/>
			<polygon class="st10" points="354.5,159.7 332,158.7 332.7,144.9 355.1,145.9 			"/>
			<text transform="matrix(1.0392 4.609581e-002 -4.795976e-002 0.9988 338.8172 157.1546)" class="st11 st12 st13">1</text>
			<path class="st9" d="M181.5,206.8c-0.4,7.9-7.3,14-15.6,13.6c-8.2-0.4-14.6-7.1-14.2-15c0.4-7.9,7.4-14,15.6-13.6
				C175.5,192.2,181.9,198.9,181.5,206.8z"/>
			<polygon class="st10" points="178.1,214.7 155.6,213.7 156.2,199.8 178.7,200.8 			"/>
			<text transform="matrix(1.0392 4.609581e-002 -4.795976e-002 0.9988 162.4082 212.0934)" class="st11 st12 st13">2</text>
			<path class="st9" d="M137,234.6c-0.4,7.9-7.3,14-15.6,13.6c-8.2-0.4-14.6-7.1-14.2-15c0.4-7.9,7.4-14,15.6-13.6
				C131,220,137.4,226.7,137,234.6z"/>
			<polygon class="st10" points="133.6,242.5 111.1,241.5 111.7,227.6 134.2,228.6 			"/>
			<text transform="matrix(1.0392 4.609581e-002 -4.795976e-002 0.9988 117.9072 239.9054)" class="st11 st12 st13">3</text>
			<path class="st9" d="M447,394.1c-0.4,7.9-7.3,14-15.6,13.6c-8.2-0.4-14.6-7.1-14.2-15c0.4-7.9,7.4-14,15.6-13.6
				C441,379.5,447.4,386.2,447,394.1z"/>
			<polygon class="st10" points="443.6,402 421.1,401 421.7,387.1 444.2,388.1 			"/>
			<text transform="matrix(1.0392 4.609581e-002 -4.795976e-002 0.9988 427.9046 399.3977)" class="st11 st12 st13">4</text>
			<path class="st9" d="M436.6,24.5c-0.4,7.9-7.3,14-15.6,13.6c-8.2-0.4-14.6-7.1-14.2-15c0.4-7.9,7.4-14,15.6-13.6
				C430.7,9.9,437,16.6,436.6,24.5z"/>
			<polygon class="st10" points="433.2,32.3 410.7,31.4 411.4,17.5 433.9,18.5 			"/>
			<text transform="matrix(1.0392 4.609581e-002 -4.795976e-002 0.9988 417.5294 29.7683)" class="st11 st12 st13">6</text>
			<path class="st9" d="M307.9,201.8c-0.4,7.9-7.3,14-15.6,13.6c-8.2-0.4-14.6-7.1-14.2-15c0.4-7.9,7.4-14,15.6-13.6
				C302,187.2,308.3,193.9,307.9,201.8z"/>
			<polygon class="st10" points="303.5,210.6 281,209.6 281.7,195.7 304.2,196.7 			"/>
			<text transform="matrix(1.0392 4.609581e-002 -4.795976e-002 0.9988 288.4365 206.6096)" class="st11 st12 st14">5</text>
		</g>
	</g>
	<g>
		<g>
			<path class="st15" d="M428.3,278.4c0.3,13.9-24,51.5-24,51.5s-24.9-36.4-25.2-50.3c-0.3-13.9,10.4-25.5,24-25.8
				C416.7,253.4,427.9,264.5,428.3,278.4z"/>
		</g>
		<ellipse class="st11" cx="403.7" cy="277.6" rx="14.3" ry="14.6"/>
	</g>
	<rect y="435.9" class="st16" width="798.9" height="364.7"/>
	<g>
		<g>
			<path class="st5" d="M756.4,791.4L756.4,791.4c-0.1,0-0.1,0.1-0.2,0.1c-0.1,0-0.1,0.1-0.2,0.1c-0.1,0-0.1,0-0.2,0
				c-0.1,0-0.2,0-0.3-0.1c-0.1,0-0.2-0.1-0.2-0.2c-0.1-0.1-0.1-0.2-0.1-0.3c0-0.1,0-0.2,0-0.3c0-0.3,0.1-0.5,0.2-0.6
				c0.1-0.1,0.3-0.2,0.5-0.2c0.1,0,0.2,0,0.3,0.1c0.1,0,0.2,0.1,0.2,0.2v-0.6c0-0.1,0-0.2,0.1-0.2c0,0,0.1-0.1,0.1-0.1
				s0.1,0,0.1,0.1c0,0,0.1,0.1,0.1,0.2v1.9c0,0.1,0,0.1-0.1,0.2c0,0-0.1,0.1-0.1,0.1c-0.1,0-0.1,0-0.1-0.1
				C756.4,791.5,756.4,791.5,756.4,791.4z M755.6,790.8c0,0.1,0,0.2,0.1,0.3c0,0.1,0.1,0.1,0.1,0.2c0.1,0,0.1,0.1,0.2,0.1
				c0.1,0,0.1,0,0.2-0.1c0.1,0,0.1-0.1,0.1-0.2c0-0.1,0.1-0.2,0.1-0.3c0-0.1,0-0.2-0.1-0.3c0-0.1-0.1-0.1-0.1-0.2
				c-0.1,0-0.1-0.1-0.2-0.1c-0.1,0-0.1,0-0.2,0.1c-0.1,0-0.1,0.1-0.1,0.2C755.6,790.6,755.6,790.7,755.6,790.8z"/>
			<path class="st5" d="M758.3,790.9h-0.8c0,0.1,0,0.2,0.1,0.3c0,0.1,0.1,0.1,0.1,0.2c0.1,0,0.1,0.1,0.2,0.1c0.1,0,0.1,0,0.1,0
				c0,0,0.1,0,0.1-0.1c0,0,0.1-0.1,0.1-0.1c0,0,0.1-0.1,0.1-0.1c0,0,0.1,0,0.1,0c0,0,0.1,0,0.1,0c0,0,0,0.1,0,0.1c0,0,0,0.1,0,0.1
				c0,0.1-0.1,0.1-0.1,0.1c-0.1,0-0.1,0.1-0.2,0.1c-0.1,0-0.2,0-0.3,0c-0.3,0-0.5-0.1-0.6-0.2c-0.1-0.2-0.2-0.4-0.2-0.6
				c0-0.1,0-0.2,0.1-0.3c0-0.1,0.1-0.2,0.2-0.3c0.1-0.1,0.2-0.1,0.3-0.2c0.1,0,0.2-0.1,0.3-0.1c0.2,0,0.3,0,0.4,0.1
				c0.1,0.1,0.2,0.2,0.3,0.3c0.1,0.1,0.1,0.2,0.1,0.3c0,0.1,0,0.2-0.1,0.2C758.5,790.9,758.4,790.9,758.3,790.9z M757.5,790.6h0.8
				c0-0.1,0-0.3-0.1-0.3c-0.1-0.1-0.2-0.1-0.3-0.1c-0.1,0-0.2,0-0.3,0.1C757.5,790.4,757.5,790.5,757.5,790.6z"/>
			<path class="st5" d="M760.2,791.1c0,0.1,0,0.2-0.1,0.3c-0.1,0.1-0.1,0.1-0.2,0.2c-0.1,0-0.2,0.1-0.4,0.1c-0.2,0-0.3,0-0.4-0.1
				c-0.1,0-0.2-0.1-0.2-0.2c-0.1-0.1-0.1-0.1-0.1-0.2c0,0,0-0.1,0-0.1c0,0,0.1,0,0.1,0c0,0,0.1,0,0.1,0c0,0,0,0.1,0.1,0.1
				c0,0.1,0.1,0.1,0.2,0.2c0.1,0,0.1,0.1,0.2,0.1c0.1,0,0.2,0,0.2-0.1c0.1,0,0.1-0.1,0.1-0.1c0-0.1,0-0.1-0.1-0.2
				c-0.1,0-0.1-0.1-0.3-0.1c-0.1,0-0.3-0.1-0.4-0.1c-0.1,0-0.2-0.1-0.2-0.2c-0.1-0.1-0.1-0.1-0.1-0.2c0-0.1,0-0.2,0.1-0.2
				c0.1-0.1,0.1-0.1,0.2-0.2c0.1,0,0.2-0.1,0.4-0.1c0.1,0,0.2,0,0.3,0c0.1,0,0.2,0.1,0.2,0.1c0.1,0,0.1,0.1,0.1,0.1c0,0,0,0.1,0,0.1
				c0,0,0,0.1,0,0.1c0,0-0.1,0-0.1,0c0,0-0.1,0-0.1,0c0,0-0.1-0.1-0.1-0.1c0,0-0.1-0.1-0.1-0.1c0,0-0.1,0-0.2,0c-0.1,0-0.1,0-0.2,0
				c-0.1,0-0.1,0.1-0.1,0.1c0,0,0,0.1,0.1,0.1c0,0,0.1,0.1,0.1,0.1c0.1,0,0.1,0,0.3,0.1c0.1,0,0.2,0.1,0.3,0.1
				c0.1,0,0.1,0.1,0.2,0.2C760.2,790.9,760.2,791,760.2,791.1z"/>
			<path class="st5" d="M760.6,789.7c-0.1,0-0.1,0-0.1-0.1c0,0-0.1-0.1-0.1-0.2c0-0.1,0-0.1,0.1-0.1c0,0,0.1-0.1,0.1-0.1
				c0.1,0,0.1,0,0.1,0.1c0,0,0.1,0.1,0.1,0.2c0,0.1,0,0.1-0.1,0.2C760.7,789.7,760.7,789.7,760.6,789.7z M760.8,790.2v1.2
				c0,0.1,0,0.1-0.1,0.2c0,0-0.1,0.1-0.2,0.1c-0.1,0-0.1,0-0.1-0.1c0,0-0.1-0.1-0.1-0.2v-1.2c0-0.1,0-0.1,0.1-0.2
				c0,0,0.1-0.1,0.1-0.1c0.1,0,0.1,0,0.2,0.1C760.8,790,760.8,790.1,760.8,790.2z"/>
			<path class="st5" d="M762.7,790.2v1.2c0,0.1,0,0.3,0,0.4c0,0.1-0.1,0.2-0.1,0.2c-0.1,0.1-0.2,0.1-0.3,0.1c-0.1,0-0.2,0-0.4,0
				c-0.1,0-0.3,0-0.4-0.1c-0.1,0-0.2-0.1-0.3-0.2c-0.1-0.1-0.1-0.1-0.1-0.2c0-0.1,0-0.1,0.1-0.1c0,0,0.1,0,0.1,0
				c0.1,0,0.1,0,0.2,0.1c0,0,0,0.1,0.1,0.1c0,0,0.1,0.1,0.1,0.1c0,0,0.1,0,0.1,0c0,0,0.1,0,0.1,0c0.1,0,0.2,0,0.3,0
				c0.1,0,0.1-0.1,0.1-0.1c0-0.1,0-0.1,0-0.2c0-0.1,0-0.2,0-0.3c-0.1,0.1-0.1,0.2-0.2,0.2c-0.1,0-0.2,0.1-0.3,0.1
				c-0.1,0-0.3,0-0.4-0.1c-0.1-0.1-0.2-0.2-0.2-0.3c-0.1-0.1-0.1-0.3-0.1-0.4c0-0.1,0-0.2,0.1-0.3c0-0.1,0.1-0.2,0.1-0.3
				c0.1-0.1,0.1-0.1,0.2-0.2c0.1,0,0.2-0.1,0.3-0.1c0.1,0,0.2,0,0.3,0.1c0.1,0,0.2,0.1,0.2,0.2v-0.1c0-0.1,0-0.1,0.1-0.2
				c0,0,0.1-0.1,0.1-0.1c0.1,0,0.1,0,0.2,0.1C762.7,790.1,762.7,790.1,762.7,790.2z M761.5,790.8c0,0.2,0,0.3,0.1,0.4
				c0.1,0.1,0.2,0.1,0.3,0.1c0.1,0,0.1,0,0.2-0.1c0.1,0,0.1-0.1,0.2-0.2c0-0.1,0.1-0.2,0.1-0.3c0-0.2,0-0.3-0.1-0.4
				c-0.1-0.1-0.2-0.1-0.3-0.1c-0.1,0-0.2,0-0.3,0.1C761.5,790.5,761.5,790.6,761.5,790.8z"/>
			<path class="st5" d="M763.3,790.2L763.3,790.2c0.1,0,0.2-0.1,0.2-0.2c0.1,0,0.2-0.1,0.3-0.1c0.1,0,0.2,0,0.3,0.1
				c0.1,0,0.2,0.1,0.2,0.2c0,0.1,0,0.1,0.1,0.2c0,0.1,0,0.1,0,0.2v0.8c0,0.1,0,0.1-0.1,0.2c0,0-0.1,0.1-0.2,0.1
				c-0.1,0-0.1,0-0.2-0.1c0,0-0.1-0.1-0.1-0.2v-0.7c0-0.1,0-0.2-0.1-0.3c0-0.1-0.1-0.1-0.2-0.1c-0.1,0-0.1,0-0.2,0.1
				c-0.1,0-0.1,0.1-0.1,0.2c0,0.1,0,0.2,0,0.4v0.5c0,0.1,0,0.1-0.1,0.2c0,0-0.1,0.1-0.2,0.1c-0.1,0-0.1,0-0.1-0.1
				c0,0-0.1-0.1-0.1-0.2v-1.2c0-0.1,0-0.1,0.1-0.2c0,0,0.1-0.1,0.1-0.1c0,0,0.1,0,0.1,0c0,0,0.1,0,0.1,0.1
				C763.3,790.1,763.3,790.1,763.3,790.2z"/>
			<path class="st5" d="M765.9,790.9h-0.8c0,0.1,0,0.2,0.1,0.3c0,0.1,0.1,0.1,0.1,0.2c0.1,0,0.1,0.1,0.2,0.1c0.1,0,0.1,0,0.1,0
				c0,0,0.1,0,0.1-0.1c0,0,0.1-0.1,0.1-0.1c0,0,0.1-0.1,0.1-0.1c0,0,0.1,0,0.1,0c0,0,0.1,0,0.1,0c0,0,0,0.1,0,0.1c0,0,0,0.1,0,0.1
				s-0.1,0.1-0.1,0.1c-0.1,0-0.1,0.1-0.2,0.1c-0.1,0-0.2,0-0.3,0c-0.3,0-0.5-0.1-0.6-0.2c-0.1-0.2-0.2-0.4-0.2-0.6
				c0-0.1,0-0.2,0.1-0.3c0-0.1,0.1-0.2,0.2-0.3c0.1-0.1,0.2-0.1,0.3-0.2c0.1,0,0.2-0.1,0.3-0.1c0.2,0,0.3,0,0.4,0.1
				c0.1,0.1,0.2,0.2,0.3,0.3c0.1,0.1,0.1,0.2,0.1,0.3c0,0.1,0,0.2-0.1,0.2C766.1,790.9,766,790.9,765.9,790.9z M765.1,790.6h0.8
				c0-0.1,0-0.3-0.1-0.3c-0.1-0.1-0.2-0.1-0.3-0.1c-0.1,0-0.2,0-0.3,0.1C765.1,790.4,765.1,790.5,765.1,790.6z"/>
			<path class="st5" d="M767.6,791.4L767.6,791.4c-0.1,0-0.1,0.1-0.2,0.1c-0.1,0-0.1,0.1-0.2,0.1c-0.1,0-0.1,0-0.2,0
				c-0.1,0-0.2,0-0.3-0.1c-0.1,0-0.2-0.1-0.2-0.2c-0.1-0.1-0.1-0.2-0.1-0.3c0-0.1,0-0.2,0-0.3c0-0.3,0.1-0.5,0.2-0.6
				c0.1-0.1,0.3-0.2,0.5-0.2c0.1,0,0.2,0,0.3,0.1c0.1,0,0.2,0.1,0.2,0.2v-0.6c0-0.1,0-0.2,0.1-0.2c0,0,0.1-0.1,0.1-0.1
				c0.1,0,0.1,0,0.1,0.1c0,0,0.1,0.1,0.1,0.2v1.9c0,0.1,0,0.1-0.1,0.2c0,0-0.1,0.1-0.1,0.1c-0.1,0-0.1,0-0.1-0.1
				C767.6,791.5,767.6,791.5,767.6,791.4z M766.8,790.8c0,0.1,0,0.2,0.1,0.3c0,0.1,0.1,0.1,0.1,0.2c0.1,0,0.1,0.1,0.2,0.1
				c0.1,0,0.1,0,0.2-0.1c0.1,0,0.1-0.1,0.1-0.2c0-0.1,0.1-0.2,0.1-0.3c0-0.1,0-0.2-0.1-0.3c0-0.1-0.1-0.1-0.1-0.2
				c-0.1,0-0.1-0.1-0.2-0.1c-0.1,0-0.1,0-0.2,0.1c-0.1,0-0.1,0.1-0.1,0.2C766.8,790.6,766.8,790.7,766.8,790.8z"/>
			<path class="st5" d="M769.3,789.5v0.6c0.1-0.1,0.2-0.1,0.2-0.2c0.1,0,0.2-0.1,0.3-0.1c0.1,0,0.3,0,0.4,0.1
				c0.1,0.1,0.2,0.2,0.2,0.3c0.1,0.1,0.1,0.3,0.1,0.4c0,0.1,0,0.2,0,0.3c0,0.1-0.1,0.2-0.1,0.3c-0.1,0.1-0.1,0.1-0.2,0.2
				c-0.1,0-0.2,0.1-0.3,0.1c-0.1,0-0.1,0-0.2,0c-0.1,0-0.1,0-0.1-0.1c0,0-0.1-0.1-0.1-0.1c0,0-0.1-0.1-0.1-0.1v0
				c0,0.1,0,0.1-0.1,0.2c0,0-0.1,0.1-0.1,0.1c-0.1,0-0.1,0-0.1-0.1c0,0-0.1-0.1-0.1-0.2v-1.8c0-0.1,0-0.1,0.1-0.2
				c0,0,0.1-0.1,0.1-0.1c0.1,0,0.1,0,0.1,0.1C769.3,789.4,769.3,789.5,769.3,789.5z M769.3,790.8c0,0.2,0,0.3,0.1,0.4
				c0.1,0.1,0.2,0.1,0.3,0.1c0.1,0,0.2,0,0.3-0.1c0.1-0.1,0.1-0.2,0.1-0.4c0-0.1,0-0.2,0-0.3c0-0.1-0.1-0.1-0.1-0.2
				c-0.1,0-0.1-0.1-0.2-0.1c-0.1,0-0.2,0-0.2,0.1c-0.1,0-0.1,0.1-0.1,0.2C769.4,790.6,769.3,790.7,769.3,790.8z"/>
			<path class="st17" d="M771.1,791.7L771.1,791.7l-0.5-1.4c0-0.1,0-0.1,0-0.2c0,0,0-0.1,0-0.1c0,0,0-0.1,0.1-0.1c0,0,0.1,0,0.1,0
				c0.1,0,0.1,0,0.1,0.1c0,0,0.1,0.1,0.1,0.2l0.4,1l0.3-1c0-0.1,0.1-0.1,0.1-0.2c0,0,0-0.1,0.1-0.1c0,0,0.1,0,0.1,0c0,0,0.1,0,0.1,0
				c0,0,0.1,0,0.1,0.1c0,0,0,0.1,0,0.1c0,0,0,0,0,0.1c0,0,0,0.1,0,0.1l-0.5,1.4c0,0.1-0.1,0.2-0.1,0.3c0,0.1-0.1,0.1-0.2,0.2
				c-0.1,0-0.2,0.1-0.3,0.1c-0.1,0-0.2,0-0.3,0c-0.1,0-0.1-0.1-0.1-0.1c0,0,0-0.1,0-0.1c0,0,0.1,0,0.1,0c0,0,0,0,0.1,0
				c0,0,0,0,0.1,0c0,0,0.1,0,0.1,0c0,0,0.1,0,0.1-0.1C771.1,791.8,771.1,791.8,771.1,791.7z"/>
		</g>
		<g>
			<path class="st5" d="M777.2,790h0.1v-0.1c0-0.1,0-0.2,0-0.3c0-0.1,0.1-0.1,0.2-0.2c0.1,0,0.2-0.1,0.3-0.1c0.2,0,0.4,0.1,0.4,0.2
				c0,0,0,0.1,0,0.1c0,0-0.1,0-0.1,0c0,0,0,0-0.1,0c0,0-0.1,0-0.1,0c-0.1,0-0.1,0-0.1,0.1c0,0,0,0.1,0,0.2v0.1h0.1
				c0.2,0,0.2,0,0.2,0.1c0,0.1,0,0.1-0.1,0.1c0,0-0.1,0-0.2,0h-0.1v1.1c0,0.1,0,0.1-0.1,0.2c0,0-0.1,0.1-0.2,0.1
				c-0.1,0-0.1,0-0.1-0.1c0,0-0.1-0.1-0.1-0.2v-1.1h-0.1c-0.1,0-0.1,0-0.1,0c0,0-0.1-0.1-0.1-0.1C777,790,777.1,790,777.2,790"/>
			<path class="st5" d="M778.6,791v0.4c0,0.1,0,0.1-0.1,0.2c0,0-0.1,0.1-0.2,0.1c-0.1,0-0.1,0-0.2-0.1c0,0-0.1-0.1-0.1-0.2v-1.2
				c0-0.2,0.1-0.3,0.2-0.3c0.1,0,0.1,0,0.2,0.1c0,0,0,0.1,0.1,0.2c0-0.1,0.1-0.2,0.2-0.2c0.1,0,0.1-0.1,0.2-0.1c0.1,0,0.2,0,0.3,0.1
				c0.1,0,0.1,0.1,0.1,0.2c0,0.1,0,0.1-0.1,0.1c0,0-0.1,0.1-0.1,0.1c0,0-0.1,0-0.1,0c-0.1,0-0.1,0-0.2,0c-0.1,0-0.1,0-0.2,0
				c0,0-0.1,0.1-0.1,0.1c0,0.1,0,0.1,0,0.2C778.6,790.8,778.6,790.9,778.6,791"/>
			<path class="st5" d="M780.5,790.9h-0.8c0,0.1,0,0.2,0.1,0.3c0,0.1,0.1,0.1,0.1,0.2c0.1,0,0.1,0.1,0.2,0.1c0.1,0,0.1,0,0.1,0
				c0,0,0.1,0,0.1-0.1c0,0,0.1-0.1,0.1-0.1c0,0,0.1-0.1,0.1-0.1c0,0,0.1,0,0.1,0c0,0,0.1,0,0.1,0c0,0,0,0.1,0,0.1c0,0,0,0.1,0,0.1
				c0,0.1-0.1,0.1-0.1,0.1c-0.1,0-0.1,0.1-0.2,0.1c-0.1,0-0.2,0-0.3,0c-0.3,0-0.5-0.1-0.6-0.2c-0.1-0.2-0.2-0.4-0.2-0.6
				c0-0.1,0-0.2,0.1-0.3c0-0.1,0.1-0.2,0.2-0.3c0.1-0.1,0.2-0.1,0.3-0.2c0.1,0,0.2-0.1,0.3-0.1c0.2,0,0.3,0,0.4,0.1
				c0.1,0.1,0.2,0.2,0.3,0.3c0.1,0.1,0.1,0.2,0.1,0.3c0,0.1,0,0.2-0.1,0.2C780.7,790.9,780.6,790.9,780.5,790.9 M779.7,790.6h0.8
				c0-0.1,0-0.3-0.1-0.3c-0.1-0.1-0.2-0.1-0.3-0.1c-0.1,0-0.2,0-0.3,0.1C779.7,790.4,779.7,790.5,779.7,790.6"/>
			<path class="st5" d="M782.2,790.9h-0.8c0,0.1,0,0.2,0.1,0.3c0,0.1,0.1,0.1,0.1,0.2c0.1,0,0.1,0.1,0.2,0.1c0,0,0.1,0,0.1,0
				c0,0,0.1,0,0.1-0.1c0,0,0.1-0.1,0.1-0.1c0,0,0.1-0.1,0.1-0.1c0,0,0.1,0,0.1,0c0,0,0.1,0,0.1,0c0,0,0,0.1,0,0.1c0,0,0,0.1,0,0.1
				c0,0.1-0.1,0.1-0.1,0.1c-0.1,0-0.1,0.1-0.2,0.1c-0.1,0-0.2,0-0.3,0c-0.3,0-0.5-0.1-0.6-0.2c-0.1-0.2-0.2-0.4-0.2-0.6
				c0-0.1,0-0.2,0.1-0.3c0-0.1,0.1-0.2,0.2-0.3c0.1-0.1,0.2-0.1,0.3-0.2c0.1,0,0.2-0.1,0.3-0.1c0.2,0,0.3,0,0.4,0.1
				c0.1,0.1,0.2,0.2,0.3,0.3c0.1,0.1,0.1,0.2,0.1,0.3c0,0.1,0,0.2-0.1,0.2C782.4,790.9,782.4,790.9,782.2,790.9 M781.4,790.6h0.8
				c0-0.1,0-0.3-0.1-0.3c-0.1-0.1-0.2-0.1-0.3-0.1c-0.1,0-0.2,0-0.3,0.1C781.5,790.4,781.4,790.5,781.4,790.6"/>
			<path class="st5" d="M783.2,790.2L783.2,790.2c0.1,0,0.2-0.1,0.2-0.2c0.1,0,0.2-0.1,0.3-0.1c0.1,0,0.2,0,0.4,0.1
				c0.1,0.1,0.2,0.2,0.3,0.3c0.1,0.1,0.1,0.3,0.1,0.5c0,0.1,0,0.2-0.1,0.4c0,0.1-0.1,0.2-0.2,0.3c-0.1,0.1-0.1,0.1-0.2,0.2
				c-0.1,0-0.2,0.1-0.3,0.1c-0.1,0-0.2,0-0.3-0.1c-0.1,0-0.2-0.1-0.2-0.2v0.6c0,0.2-0.1,0.3-0.2,0.3c-0.1,0-0.1,0-0.2-0.1
				c0,0,0-0.1,0-0.2v-1.8c0-0.1,0-0.1,0.1-0.2c0,0,0.1-0.1,0.1-0.1s0.1,0,0.1,0.1C783.1,790,783.2,790.1,783.2,790.2 M784,790.8
				c0-0.1,0-0.2-0.1-0.3c0-0.1-0.1-0.1-0.1-0.2c-0.1,0-0.1-0.1-0.2-0.1c-0.1,0-0.2,0-0.3,0.1c-0.1,0.1-0.1,0.2-0.1,0.4
				c0,0.2,0,0.3,0.1,0.4c0.1,0.1,0.2,0.1,0.3,0.1c0.1,0,0.1,0,0.2-0.1c0.1,0,0.1-0.1,0.1-0.2C784,791,784,790.9,784,790.8"/>
			<path class="st5" d="M784.8,789.7c-0.1,0-0.1,0-0.1-0.1c0,0-0.1-0.1-0.1-0.2c0-0.1,0-0.1,0.1-0.1c0,0,0.1-0.1,0.1-0.1
				c0.1,0,0.1,0,0.1,0.1c0,0,0.1,0.1,0.1,0.2c0,0.1,0,0.1-0.1,0.2C784.9,789.7,784.9,789.7,784.8,789.7 M785,790.2v1.2
				c0,0.1,0,0.1-0.1,0.2c0,0-0.1,0.1-0.2,0.1c-0.1,0-0.1,0-0.2-0.1c0,0-0.1-0.1-0.1-0.2v-1.2c0-0.1,0-0.1,0.1-0.2
				c0,0,0.1-0.1,0.2-0.1c0.1,0,0.1,0,0.2,0.1C785,790,785,790.1,785,790.2"/>
			<path class="st5" d="M786.4,791.4l-0.4-0.6l-0.2,0.2v0.3c0,0.1,0,0.1-0.1,0.2c0,0-0.1,0.1-0.1,0.1c-0.1,0-0.1,0-0.2-0.1
				c0,0-0.1-0.1-0.1-0.2v-1.8c0-0.1,0-0.2,0.1-0.2c0,0,0.1-0.1,0.2-0.1c0.1,0,0.1,0,0.2,0.1c0,0,0.1,0.1,0.1,0.2v1l0.5-0.5
				c0.1-0.1,0.1-0.1,0.1-0.1c0,0,0.1,0,0.1,0c0.1,0,0.1,0,0.1,0.1c0,0,0.1,0.1,0.1,0.1c0,0.1-0.1,0.1-0.2,0.2l-0.2,0.2l0.4,0.7
				c0,0.1,0.1,0.1,0.1,0.1c0,0,0,0.1,0,0.1c0,0.1,0,0.1-0.1,0.2c0,0-0.1,0.1-0.1,0.1c-0.1,0-0.1,0-0.1,0
				C786.5,791.6,786.4,791.5,786.4,791.4"/>
			<path class="st5" d="M787.3,791.6c-0.1,0-0.1,0-0.2-0.1c0,0-0.1-0.1-0.1-0.2c0-0.1,0-0.1,0.1-0.2c0,0,0.1-0.1,0.2-0.1
				s0.1,0,0.2,0.1c0,0,0.1,0.1,0.1,0.2c0,0.1,0,0.1-0.1,0.2C787.4,791.6,787.4,791.6,787.3,791.6"/>
			<path class="st5" d="M789.4,791.1c0,0.1,0,0.1,0,0.2c0,0.1-0.1,0.1-0.1,0.2c-0.1,0.1-0.1,0.1-0.2,0.1c-0.1,0-0.2,0-0.3,0
				c-0.3,0-0.5-0.1-0.6-0.2c-0.1-0.2-0.2-0.4-0.2-0.6c0-0.2,0-0.3,0.1-0.5c0.1-0.1,0.2-0.2,0.3-0.3c0.1-0.1,0.3-0.1,0.5-0.1
				c0.1,0,0.2,0,0.3,0c0.1,0,0.2,0.1,0.2,0.1c0.1,0.1,0.1,0.1,0.1,0.2c0,0.1,0.1,0.1,0.1,0.2s0,0.1-0.1,0.1c0,0-0.1,0.1-0.1,0.1
				c0,0-0.1,0-0.1,0c0,0,0,0-0.1-0.1c-0.1-0.1-0.1-0.1-0.2-0.2c-0.1,0-0.1-0.1-0.2-0.1c-0.1,0-0.2,0-0.3,0.1
				c-0.1,0.1-0.1,0.2-0.1,0.4c0,0.1,0,0.2,0,0.2c0,0.1,0,0.1,0.1,0.2c0,0,0.1,0.1,0.1,0.1c0.1,0,0.1,0,0.2,0c0.1,0,0.2,0,0.2-0.1
				c0.1,0,0.1-0.1,0.2-0.2c0,0,0.1-0.1,0.1-0.1c0,0,0.1,0,0.1,0c0.1,0,0.1,0,0.1,0.1C789.4,791,789.4,791.1,789.4,791.1"/>
			<path class="st5" d="M791.2,790.8c0,0.1,0,0.2-0.1,0.3c0,0.1-0.1,0.2-0.2,0.3c-0.1,0.1-0.2,0.1-0.3,0.2c-0.1,0-0.2,0.1-0.3,0.1
				c-0.1,0-0.2,0-0.3-0.1c-0.1,0-0.2-0.1-0.3-0.2c-0.1-0.1-0.1-0.2-0.2-0.3c0-0.1-0.1-0.2-0.1-0.3c0-0.1,0-0.2,0.1-0.3
				c0-0.1,0.1-0.2,0.2-0.3c0.1-0.1,0.2-0.1,0.3-0.2c0.1,0,0.2-0.1,0.3-0.1c0.1,0,0.2,0,0.3,0.1c0.1,0,0.2,0.1,0.3,0.2
				c0.1,0.1,0.1,0.2,0.2,0.3C791.2,790.5,791.2,790.7,791.2,790.8 M790.8,790.8c0-0.2,0-0.3-0.1-0.4c-0.1-0.1-0.2-0.1-0.3-0.1
				c-0.1,0-0.2,0-0.2,0.1c-0.1,0-0.1,0.1-0.1,0.2c0,0.1-0.1,0.2-0.1,0.3c0,0.1,0,0.2,0.1,0.3c0,0.1,0.1,0.1,0.1,0.2
				c0.1,0,0.1,0.1,0.2,0.1c0.1,0,0.2,0,0.3-0.1C790.8,791.1,790.8,791,790.8,790.8"/>
			<path class="st5" d="M792.8,790.8v0.6c0,0.1,0,0.2-0.1,0.2c0,0-0.1,0.1-0.2,0.1c-0.1,0-0.1,0-0.2-0.1c0,0-0.1-0.1-0.1-0.2v-0.7
				c0-0.1,0-0.2,0-0.2c0-0.1,0-0.1-0.1-0.1c0,0-0.1-0.1-0.2-0.1c-0.1,0-0.2,0-0.3,0.1c0,0.1-0.1,0.2-0.1,0.4v0.6
				c0,0.1,0,0.2-0.1,0.2c0,0-0.1,0.1-0.2,0.1c-0.1,0-0.1,0-0.2-0.1c0,0-0.1-0.1-0.1-0.2v-1.2c0-0.1,0-0.1,0.1-0.2
				c0,0,0.1-0.1,0.1-0.1c0.1,0,0.1,0,0.1,0.1c0,0,0.1,0.1,0.1,0.2v0c0.1-0.1,0.2-0.2,0.2-0.2c0.1,0,0.2-0.1,0.3-0.1
				c0.1,0,0.2,0,0.3,0.1c0.1,0,0.1,0.1,0.2,0.2c0.1-0.1,0.1-0.1,0.2-0.2c0.1,0,0.2-0.1,0.3-0.1c0.1,0,0.2,0,0.3,0.1
				c0.1,0,0.1,0.1,0.2,0.2c0,0.1,0.1,0.2,0.1,0.4v0.8c0,0.1,0,0.2-0.1,0.2c0,0-0.1,0.1-0.2,0.1c-0.1,0-0.1,0-0.2-0.1
				c0,0-0.1-0.1-0.1-0.2v-0.7c0-0.1,0-0.2,0-0.2c0-0.1,0-0.1-0.1-0.1c0,0-0.1-0.1-0.2-0.1c-0.1,0-0.1,0-0.2,0
				c-0.1,0-0.1,0.1-0.1,0.1C792.8,790.5,792.8,790.6,792.8,790.8"/>
		</g>
		<g>
			<path class="st5" d="M773.3,790.7C773.3,790.7,773.3,790.7,773.3,790.7C773.3,790.7,773.3,790.7,773.3,790.7z"/>
			<path class="st5" d="M773.3,790.8C773.3,790.8,773.3,790.8,773.3,790.8c0,0,0-0.1,0-0.1C773.3,790.7,773.3,790.8,773.3,790.8z"/>
			<path class="st5" d="M773.4,791.2C773.4,791.2,773.4,791.2,773.4,791.2C773.4,791.2,773.4,791.2,773.4,791.2z"/>
			<path class="st5" d="M773.4,791.2C773.4,791.2,773.4,791.2,773.4,791.2C773.4,791.2,773.4,791.2,773.4,791.2z"/>
			<path class="st5" d="M773.3,791c0,0.1,0,0.1,0.1,0.2C773.4,791.1,773.3,791,773.3,791L773.3,791z"/>
			<path class="st5" d="M774.9,789.1c0.1,0,0.1,0,0.2,0l0-0.1c0,0-0.2-0.1-0.4,0l0-0.1c0.1,0,0.1-0.1,0.1-0.2c0-0.1-0.1-0.2-0.2-0.2
				c-0.1,0-0.2,0.1-0.2,0.2c0,0.1,0.1,0.2,0.1,0.2l0,0.1c-0.3,0-0.5,0.1-0.5,0.1l0,0.1c0.2-0.1,0.3-0.1,0.4-0.1
				C774.7,789.1,774.8,789.1,774.9,789.1z"/>
			<path class="st5" d="M773.4,789.7L773.4,789.7C773.4,789.7,773.4,789.7,773.4,789.7L773.4,789.7l-0.1-0.1c0,0-0.1,0.1-0.2,0.3
				c0,0,0,0,0,0c0,0-0.1,0-0.1,0c0,0,0,0,0,0c0,0-0.1,0-0.1,0c0,0,0,0,0-0.1c0-0.1,0-0.1-0.1-0.1c-0.1,0-0.1,0-0.1,0.1
				c0,0.1,0,0.1,0.1,0.1c0,0,0,0,0,0c0,0,0.1,0.1,0.1,0.1c0,0,0.1,0,0.1,0c0,0,0,0,0,0.1c0,0,0,0,0,0c-0.1,0.2-0.1,0.4-0.1,0.4
				l0.2,0c0-0.1,0-0.2,0.1-0.4C773.3,789.8,773.4,789.7,773.4,789.7z"/>
			<path class="st5" d="M776.4,789.2c-0.1,0-0.1,0-0.1,0.1c0,0,0,0,0,0c0,0-0.1,0.1-0.1,0.1c0,0,0,0.1,0,0.1c0,0,0,0,0,0
				c-0.1-0.2-0.3-0.3-0.3-0.3l-0.1,0.1c0.1,0.1,0.2,0.2,0.3,0.3c0.1,0.1,0.1,0.2,0.2,0.3l0.2-0.1c0,0-0.1-0.2-0.2-0.4c0,0,0,0,0.1,0
				c0,0,0-0.1,0-0.1c0,0,0-0.1,0-0.1c0,0,0,0,0.1,0c0.1,0,0.1,0,0.1-0.1C776.5,789.3,776.4,789.2,776.4,789.2z"/>
			<path class="st5" d="M775.9,790.7c-0.2,0.1-0.6,0.3-1.1,0.3c-0.2,0-0.4,0-0.6,0c-0.2,0-0.4,0-0.6,0c-0.2,0-0.3,0-0.4-0.1
				c0,0.1,0,0.1,0.1,0.2c0,0,0,0,0,0c0,0,0,0,0,0c0,0,0,0,0,0c0,0,0,0,0,0c0,0.1,0.1,0.2,0.2,0.3c0.2,0.3,0.5,0.3,0.5,0.3l0,0l0,0
				c0,0,0.2,0.1,0.5,0.1c0.3,0,0.6-0.1,0.9-0.2c0.2-0.1,0.4-0.3,0.5-0.4c0.1-0.1,0.1-0.2,0.2-0.4c0-0.1,0-0.2,0-0.3
				C776.2,790.6,776.1,790.6,775.9,790.7z"/>
			<path class="st5" d="M773.5,789.8c0,0-0.1,0.1-0.2,0.4c-0.1,0.2-0.1,0.4-0.1,0.4v0c0,0.1,0,0.1,0,0.2c0,0,0,0,0,0c0,0,0,0,0,0
				c0,0,0,0.1,0,0.1c0.1,0,0.8,0.2,1.5,0.1c0.5-0.1,0.8-0.2,1.1-0.3c0.2-0.1,0.3-0.2,0.3-0.2c0-0.2-0.2-0.4-0.3-0.6
				c-0.3-0.5-0.7-0.6-0.9-0.6c-0.1,0-0.1,0-0.2,0c-0.1,0-0.2,0-0.3,0c-0.1,0-0.3,0-0.4,0.1c-0.2,0.1-0.4,0.2-0.6,0.3l0,0
				C773.6,789.6,773.5,789.7,773.5,789.8z M775.5,789.6c0.2,0,0.3,0.1,0.3,0.3c0,0.2-0.1,0.3-0.3,0.3s-0.3-0.1-0.3-0.3
				C775.2,789.8,775.3,789.6,775.5,789.6z M774.1,789.6c0.3,0,0.5,0.2,0.5,0.5c0,0.3-0.2,0.5-0.5,0.5c-0.3,0-0.5-0.2-0.5-0.5
				C773.7,789.8,773.9,789.6,774.1,789.6z"/>
		</g>
	</g>
	<rect x="0.4" y="435.4" class="st18" width="798.9" height="27.8"/>
	<text transform="matrix(1 0 0 1 100.9771 648.9559)" class="st11 st19 st20">Cmo llegar?</text>
</g>
</svg>
