<?xml version="1.0" encoding="utf-8"?>
<!-- Generator: Adobe Illustrator 19.0.0, SVG Export Plug-In . SVG Version: 6.00 Build 0)  -->
<svg version="1.1" id="Capa_1" xmlns="http://www.w3.org/2000/svg" xmlns:xlink="http://www.w3.org/1999/xlink" x="0px" y="0px"
	 viewBox="-283 705 512 512" style="enable-background:new -283 705 512 512;" xml:space="preserve">
<style type="text/css">
	.st0{fill:#018DA6;}
	.st1{fill:#504D6D;}
	.st2{fill:#F9F564;}
	.st3{fill:#FFB05A;}
	.st4{fill:#EA2FD9;}
	.st5{fill:#CCD32D;}
	.st6{fill:#69F1FF;}
	.st7{fill:#693AAD;}
	.st8{fill:#42D3E2;}
</style>
<g>
	<path class="st0" d="M-27.5,846.8v-82.7h26.7c12,0,21.8-9.8,21.8-21.8v-14.6c0-4-3.2-7.3-7.3-7.3h-97.1c-4,0-7.3,3.2-7.3,7.3v14.5
		c0,12,9.8,21.8,21.8,21.8h26.7v82.7c-79.7,3.8-143.2,69.8-143.2,150.3c0,83,67.5,150.5,150.5,150.5S115.7,1080,115.7,997
		C115.7,916.6,52,850.6-27.5,846.8z M-76.1,742.2v-7.3H6.4v7.3c0,4-3.2,7.3-7.3,7.3h-68C-72.9,749.5-76.1,746.2-76.1,742.2z
		 M-34.8,1133.2c-74.9,0-136-61-136-136s61.1-135.9,136-135.9s136,61,136,136S40.1,1133.2-34.8,1133.2z"/>
	<path class="st1" d="M-207.3,989.9h-29.1c-4,0-7.3,3.2-7.3,7.3c0,4,3.2,7.3,7.3,7.3h29.1c4,0,7.3-3.2,7.3-7.3
		C-200,993.1-203.2,989.9-207.3,989.9z"/>
	<path class="st2" d="M166.7,989.9h-29.1c-4,0-7.3,3.2-7.3,7.3c0,4,3.2,7.3,7.3,7.3h29.1c4,0,7.3-3.2,7.3-7.3
		C174,993.1,170.7,989.9,166.7,989.9z"/>
	<path class="st3" d="M-161.9,1113.9l-20.6,20.6c-2.8,2.8-2.8,7.5,0,10.3c1.4,1.4,3.3,2.1,5.1,2.1c1.9,0,3.7-0.7,5.1-2.1l20.6-20.6
		c2.8-2.8,2.8-7.5,0-10.3C-154.4,1111.1-159.1,1111.1-161.9,1113.9z"/>
	<path class="st4" d="M87.1,882.5c1.9,0,3.7-0.7,5.1-2.1l20.6-20.6c2.8-2.8,2.8-7.5,0-10.3s-7.5-2.8-10.3,0l-20.6,20.6
		c-2.8,2.8-2.8,7.5,0,10.3C83.4,881.8,85.2,882.5,87.1,882.5z"/>
	<path class="st5" d="M-161.9,880.4c1.4,1.4,3.3,2.1,5.1,2.1c1.9,0,3.7-0.7,5.1-2.1c2.8-2.8,2.8-7.5,0-10.3l-20.6-20.6
		c-2.8-2.8-7.5-2.8-10.3,0c-2.8,2.8-2.8,7.5,0,10.3C-182.5,859.8-161.9,880.4-161.9,880.4z"/>
	<path class="st6" d="M92.3,1113.9c-2.8-2.8-7.5-2.8-10.3,0c-2.8,2.8-2.8,7.5,0,10.3l20.6,20.6c1.4,1.4,3.3,2.1,5.1,2.1
		c1.9,0,3.7-0.7,5.1-2.1c2.8-2.8,2.8-7.5,0-10.3L92.3,1113.9z"/>
	<path class="st7" d="M-34.8,1162.3c-4,0-7.3,3.2-7.3,7.3v29.1c0,4,3.2,7.3,7.3,7.3c4,0,7.3-3.2,7.3-7.3v-29.1
		C-27.5,1165.6-30.9,1162.3-34.8,1162.3z"/>
	<path class="st8" d="M54,932.8c4,0,7.3-3.2,7.3-7.3c0-4.1-3.2-7.3-7.3-7.3H32.6c-3.1-9.7-6.7-18.8-11-27c-1.8-3.6-6.3-5-9.8-3.1
		c-3.6,1.8-5,6.3-3.1,9.8c3.2,6.3,6.1,13.1,8.6,20.4h-44.9V883c0-4-3.2-7.3-7.3-7.3c-4,0-7.3,3.2-7.3,7.3v35.2H-87
		c2.6-7.2,5.4-14.1,8.6-20.4c1.8-3.6,0.4-8-3.1-9.8c-3.6-1.8-8-0.4-9.8,3.1c-4.3,8.3-7.9,17.4-11,27h-21.4c-4,0-7.3,3.2-7.3,7.3
		c0,4.1,3.2,7.3,7.3,7.3h17.3c-4.3,17.7-6.8,37-7.3,57.1H-149c-4,0-7.3,3.2-7.3,7.3c0,4,3.2,7.3,7.3,7.3h35.3c0.1,5,0.4,10,0.8,14.9
		c0.3,3.8,3.5,6.7,7.3,6.7c0.2,0,0.4,0,0.6,0c4-0.3,7-3.8,6.7-7.8c-0.4-4.6-0.6-9.2-0.7-13.8h56.9v57.1h-49.2
		c-1.3-4.9-2.5-10-3.4-15.2c-0.8-4-4.6-6.5-8.5-5.8s-6.5,4.6-5.8,8.5c0.8,4.3,1.7,8.3,2.7,12.4h-17.4c-4,0-7.3,3.2-7.3,7.3
		s3.2,7.3,7.3,7.3h21.4c3.1,9.8,6.8,18.9,11,27c1.3,2.6,3.9,4,6.5,4c1.1,0,2.3-0.3,3.3-0.8c3.6-1.8,5-6.3,3.1-9.8
		c-3.2-6.2-6.1-13-8.6-20.4h45v35.2c0,4,3.2,7.3,7.3,7.3c4,0,7.3-3.2,7.3-7.3v-35.5h44.9c-2.6,7.2-5.4,14.1-8.6,20.4
		c-1.8,3.6-0.4,8,3.1,9.8c1,0.6,2.2,0.8,3.3,0.8c2.7,0,5.2-1.4,6.5-4c4.3-8.3,7.9-17.4,11-27H54c4,0,7.3-3.2,7.3-7.3
		s-3.2-7.3-7.3-7.3H36.7c4.3-17.7,6.8-37,7.3-57.1h35.3c4,0,7.3-3.2,7.3-7.3c0-4-3.2-7.3-7.3-7.3H44c-0.5-19.8-2.9-39.1-7.3-56.8H54
		L54,932.8z M-99.1,989.9c0.5-20.2,3.1-39.6,7.8-57.1h49.1v57.1H-99.1L-99.1,989.9z M21.7,1061.5h-49.2v-57.1h57
		C28.9,1024.7,26.2,1044.1,21.7,1061.5z M29.4,989.9h-56.9v-57.1h49.2C26.2,950.3,28.9,969.6,29.4,989.9L29.4,989.9z"/>
</g>
</svg>
