<?xml version="1.0" encoding="utf-8"?>
<!-- Generator: Adobe Illustrator 19.0.0, SVG Export Plug-In . SVG Version: 6.00 Build 0)  -->
<svg version="1.1" id="Capa_1" xmlns="http://www.w3.org/2000/svg" xmlns:xlink="http://www.w3.org/1999/xlink" x="0px" y="0px"
	 viewBox="-215 297 48 48" style="enable-background:new -215 297 48 48;" xml:space="preserve">
<style type="text/css">
	.st0{fill:none;}
	.st1{fill:#247CD3;}
	.st2{fill:#FFFFFF;}
</style>
<path class="st0" d="M-430,594h48v48h-48V594z"/>
<circle class="st1" cx="-190.9" cy="321" r="22.9"/>
<path id="XMLID_2_" class="st2" d="M-153.1,318.1c2,4,5.2,7.2,9.2,9.2l3.1-3.1c0.3-0.3,0.9-0.5,1.4-0.3c1.5,0.5,3.3,0.8,5,0.8
	c0.8,0,1.4,0.6,1.4,1.4v4.9c0,0.8-0.6,1.4-1.4,1.4c-13.1,0-23.7-10.6-23.7-23.7c0-0.8,0.6-1.4,1.4-1.4h4.9c0.8,0,1.4,0.6,1.4,1.4
	c0,1.7,0.3,3.4,0.8,5c0.1,0.5,0.1,1-0.3,1.4L-153.1,318.1z"/>
<g id="XMLID_6_">
	<path id="XMLID_8_" class="st2" d="M-131.7,307.9h-27.3c-0.2,0-0.4,0.2-0.4,0.4v21.3c0,0.2,0.2,0.4,0.4,0.4h27.3
		c0.2,0,0.4-0.2,0.4-0.4v-21.3C-131.2,308.1-131.4,307.9-131.7,307.9z M-133.9,326.5l-6.1-6.4c-0.1-0.1-0.2-0.1-0.3,0l-4.3,3.7
		l-5.4-6.7c0,0-0.1-0.1-0.1-0.1c-0.1,0-0.1,0-0.1,0.1l-6.4,8.6v-15.3h22.8V326.5L-133.9,326.5z"/>
	<path id="XMLID_1_" class="st2" d="M-140.6,317c1.2,0,2.2-1,2.2-2.2c0-1.2-1-2.2-2.2-2.2c-1.2,0-2.2,1-2.2,2.2
		C-142.8,316-141.8,317-140.6,317z"/>
</g>
<g id="XMLID_9_">
	<g id="XMLID_10_">
		<g id="XMLID_11_">
			<path id="XMLID_19_" class="st2" d="M-143.3,343.6h-7.1c-0.3,0-0.5,0.2-0.6,0.5l-1.4,4.7l9.6,1l0.8-3.6
				C-142.5,345.4-143,344.5-143.3,343.6z"/>
			<path id="XMLID_18_" class="st2" d="M-134.3,350.8l2.9,0.3l-0.9-3c-0.1,0.2-0.2,0.3-0.3,0.5
				C-133.2,349.5-133.8,350.2-134.3,350.8z"/>
			<path id="XMLID_17_" class="st2" d="M-140.6,348.6l-0.3,1.5l1.6,0.2C-139.7,349.8-140.1,349.2-140.6,348.6
				C-140.6,348.6-140.6,348.6-140.6,348.6z"/>
			<path id="XMLID_16_" class="st2" d="M-154.2,355.2c-0.1,0.2,0,0.4,0.1,0.6c0.1,0.2,0.3,0.3,0.5,0.3h9.5l0.9-4.3l-9.7-1.1
				L-154.2,355.2z"/>
			<path id="XMLID_15_" class="st2" d="M-130.9,353.1l-10.4-1.1l-0.8,4.1h11.2c0,0,0,0,0,0c0.4,0,0.6-0.3,0.6-0.6c0-0.1,0-0.2,0-0.2
				L-130.9,353.1z"/>
			<path id="XMLID_12_" class="st2" d="M-136.9,351.6c0.1,0.1,0.2,0.1,0.3,0.1c0.1,0,0.2,0,0.3-0.1c0.6-0.6,1.7-1.9,2.9-3.5
				c1.5-2.1,3.2-5.1,3.2-7.8c0-3.5-2.9-6.4-6.4-6.4c-3.5,0-6.4,2.9-6.4,6.4c0,2.7,1.7,5.7,3.2,7.8
				C-138.6,349.7-137.5,351-136.9,351.6z M-136.6,336.4c2.1,0,3.9,1.7,3.9,3.9c0,2.1-1.7,3.9-3.9,3.9c-2.1,0-3.9-1.7-3.9-3.9
				C-140.5,338.1-138.7,336.4-136.6,336.4z"/>
		</g>
	</g>
</g>
<g id="XMLID_24_">
	<path id="XMLID_22_" class="st2" d="M-185.3,307.5l-3.4,0c-3.8,0-6.3,2.8-6.3,7.2v3.3h-3.4c-0.3,0-0.5,0.3-0.5,0.6v4.8
		c0,0.3,0.2,0.6,0.5,0.6h3.4v12.1c0,0.3,0.2,0.6,0.5,0.6h4.5c0.3,0,0.5-0.3,0.5-0.6V324h4c0.3,0,0.5-0.3,0.5-0.6l0-4.8
		c0-0.2-0.1-0.3-0.2-0.4c-0.1-0.1-0.2-0.2-0.4-0.2h-4v-2.8c0-1.3,0.3-2,1.9-2l2.3,0c0.3,0,0.5-0.3,0.5-0.6v-4.5
		C-184.8,307.8-185,307.5-185.3,307.5z"/>
</g>
</svg>
