<?xml version="1.0" encoding="utf-8"?>
<!-- Generator: Adobe Illustrator 19.0.0, SVG Export Plug-In . SVG Version: 6.00 Build 0)  -->
<svg version="1.1" id="Capa_1" xmlns="http://www.w3.org/2000/svg" xmlns:xlink="http://www.w3.org/1999/xlink" x="0px" y="0px"
	 viewBox="-283 705 512 512" style="enable-background:new -283 705 512 512;" xml:space="preserve">
<style type="text/css">
	.st0{fill:#018DA6;}
</style>
<g>
	<g>
		<path class="st0" d="M-5.7,1082.3c65.6,0,119-53.3,119-118.9s-53.4-119-119-119s-118.9,53.4-118.9,119S-71.3,1082.3-5.7,1082.3z"
			/>
		<path class="st0" d="M-5.7,1114.3c83.3,0,150.9-67.5,150.9-150.9c0-83.3-67.5-150.9-150.9-150.9c-83.3,0-150.9,67.5-150.9,150.9
			C-156.6,1046.6-89,1114.3-5.7,1114.3z M-5.7,835.6c70.4,0,127.8,57.3,127.8,127.8c0,70.4-57.3,127.7-127.8,127.7
			s-127.7-57.3-127.7-127.7C-133.4,892.9-76.1,835.6-5.7,835.6z"/>
		<path class="st0" d="M229,1128.3l-8.8-338.6c0-7.3-5.9-13.2-13.2-13.2c-2,0-3.8,0.4-5.4,1.2v-0.1c0,0-0.3,0.2-0.8,0.6
			c-1.3,0.7-2.4,1.6-3.4,2.6c-9.7,7.9-40.5,40.3-43,83.9c-3.9,66.6,28.5,93.6,39.5,118.4l-8.8,145.2c0,7.3,14.7,13.2,22,13.2
			C214.3,1141.4,229,1135.5,229,1128.3z"/>
		<path class="st0" d="M-260,921.9l22.8,11.4c2.6,1.3,5.5,2.3,8.5,3l-8.8,198.1c0,6.1,14.7,11.1,22,11.1s22-5,22-11.1l-8.8-199.1
			c3.1-1,6.1-2.2,8.7-3.8l16.9-10.3c12.2-7.4,21.4-23.8,21.4-38v-88.7c0-7.3-5.9-13.2-13.2-13.2s-13.2,5.9-13.2,13.2v79.9h-7.3
			v-79.9c0-7.3-5.9-13.2-13.2-13.2s-13.2,5.9-13.2,13.2v79.9h-7.4v-79.9c0-7.3-5.9-13.2-13.2-13.2s-13.2,5.9-13.2,13.2v79.9h-7.3
			v-77.1c0-7.3-5.9-13.2-13.2-13.2c-7.3,0-13.2,5.9-13.2,13.2v87.4C-283,899.3-273.1,915.4-260,921.9z"/>
	</g>
</g>
</svg>
