<?xml version="1.0" encoding="utf-8"?>
<!-- Generator: Adobe Illustrator 19.0.0, SVG Export Plug-In . SVG Version: 6.00 Build 0)  -->
<svg version="1.1" id="Capa_1" xmlns="http://www.w3.org/2000/svg" xmlns:xlink="http://www.w3.org/1999/xlink" x="0px" y="0px"
	 viewBox="-283 705 512 512" style="enable-background:new -283 705 512 512;" xml:space="preserve">
<style type="text/css">
	.st0{fill:#414444;}
	.st1{fill:#018DA6;}
</style>
<g>
	<path class="st0" d="M24,1147.1c-0.8-4-4.3-6.9-8.4-6.9h-85.3c-4.1,0-7.6,2.9-8.4,6.9l-17.1,59.7c-0.5,2.5,0.1,5.1,1.8,7.1
		c1.6,2,4,3.1,6.6,3.1H32.7c0.1,0,0.1,0,0.2,0c4.7,0,8.5-3.8,8.5-8.5c0-1.2-0.2-2.3-0.7-3.3L24,1147.1z"/>
	<path class="st0" d="M-231.8,1114.6h-42.7c-4.7,0-8.5,3.8-8.5,8.5c0,4.7,3.8,8.5,8.5,8.5h42.7c4.7,0,8.5-3.8,8.5-8.5
		C-223.3,1118.4-227.1,1114.6-231.8,1114.6z"/>
	<path class="st0" d="M220.5,1114.6h-42.7c-4.7,0-8.5,3.8-8.5,8.5c0,4.7,3.8,8.5,8.5,8.5h42.7c4.7,0,8.5-3.8,8.5-8.5
		C229,1118.4,225.2,1114.6,220.5,1114.6z"/>
	<rect x="-86.7" y="1012.2" class="st1" width="51.2" height="119.5"/>
	<rect x="-18.5" y="1012.2" class="st1" width="51.2" height="119.5"/>
	<path class="st1" d="M152.2,935.4c31.7,0,59.8,15.9,76.8,40.1V730.6H92.5V705h-238.9v25.6H-283v244.9c17-24.2,45.1-40.1,76.8-40.1
		c22.7,0,43.5,8.2,59.7,21.7v24c-14.1-17.4-35.6-28.6-59.7-28.6c-42.3,0-76.8,34.5-76.8,76.8c0,39.5,29.9,72,68.3,76.3v102.9
		c0,4.7,3.8,8.5,8.5,8.5s8.5-3.8,8.5-8.5v-102.9c20.6-2.3,38.8-12.8,51.2-28.1c0,2,0,4,0,6.1c0,10.4,0,20.7,0,31.1
		c-11.4,0-22.8,0-34.1,0c-4.7,0-8.5,3.8-8.5,8.5c0,4.7,3.8,8.5,8.5,8.5h34.1h8.5h34.1v-128c0-4.7,3.8-8.5,8.5-8.5H41.3
		c4.7,0,8.5,3.8,8.5,8.5v128h34.1h8.5h34.1c4.7,0,8.5-3.8,8.5-8.5c0-4.7-3.8-8.5-8.5-8.5H92.5v-37.2c12.4,15.4,30.6,25.8,51.2,28.1
		v102.9c0,4.7,3.8,8.5,8.5,8.5s8.5-3.8,8.5-8.5v-102.9c38.3-4.3,68.3-36.8,68.3-76.3c0-42.3-34.5-76.8-76.8-76.8
		c-24.1,0-45.6,11.2-59.7,28.6v-24C108.7,943.6,129.5,935.4,152.2,935.4z M109.5,781.8h85.3v59.7h-85.3V781.8z M109.5,858.6h85.3
		v59.7h-85.3V858.6z M-163.5,918.3h-85.3v-59.7h85.3V918.3z M-163.5,841.5h-85.3v-59.7h85.3V841.5z M-197.7,1088.3v-21.4l23.1-23.1
		c3.3-3.3,3.3-8.7,0-12.1c-3.3-3.3-8.7-3.3-12.1,0l-19.6,19.6l-19.6-19.6c-3.3-3.3-8.7-3.3-12.1,0s-3.3,8.7,0,12.1l23.1,23.1v21.4
		c-28.9-4.2-51.2-29-51.2-59.1c0-32.9,26.8-59.7,59.7-59.7s59.7,26.8,59.7,59.7C-146.5,1059.3-168.8,1084.2-197.7,1088.3z
		 M-35.5,961h-76.8v-59.7h76.8V961z M-35.5,884.2h-76.8v-59.7h76.8V884.2z M-35.5,807.4h-76.8v-59.7h76.8V807.4z M58.3,961h-76.8
		v-59.7h76.8V961z M58.3,884.2h-76.8v-59.7h76.8V884.2z M58.3,807.4h-76.8v-59.7h76.8V807.4z M152.2,969.5
		c32.9,0,59.7,26.8,59.7,59.7c0,30-22.3,54.9-51.2,59.1v-21.4l23.1-23.1c3.3-3.3,3.3-8.7,0-12.1c-3.3-3.3-8.7-3.3-12.1,0l-19.6,19.6
		l-19.6-19.6c-3.3-3.3-8.7-3.3-12.1,0s-3.3,8.7,0,12.1l23.1,23.1v21.4c-28.9-4.2-51.2-29-51.2-59.1
		C92.5,996.3,119.3,969.5,152.2,969.5z"/>
	<path class="st1" d="M-146.5,1077.4"/>
</g>
</svg>
