<?xml version="1.0" encoding="utf-8"?>
<!-- Generator: Adobe Illustrator 19.0.0, SVG Export Plug-In . SVG Version: 6.00 Build 0)  -->
<svg version="1.1" id="Layer_1" xmlns="http://www.w3.org/2000/svg" xmlns:xlink="http://www.w3.org/1999/xlink" x="0px" y="0px"
	 viewBox="-43 -56 512 512" style="enable-background:new -43 -56 512 512;" xml:space="preserve">
<style type="text/css">
	.st0{fill:#F23B55;}
	.st1{fill:#F9F9F9;}
</style>
<circle class="st0" cx="213" cy="200" r="247.5"/>
<g>
	<g>
		<path class="st1" d="M385.3,289.1l4.8-168.3c0.2-6.1-2-11.9-6.2-16.4c-4.2-4.4-9.9-7-16-7.2L64.2,88.6c-6.1-0.2-11.9,2-16.4,6.2
			c-4.4,4.2-7,9.9-7.2,16l-4.8,168.3c-0.2,6.1,2,11.9,6.2,16.4c2.3,2.4,5.1,4.3,8.1,5.5c2.5,1,5.2,1.6,7.9,1.6l303.7,8.6l0,0
			C374.4,311.7,385,301.8,385.3,289.1z M342.1,119.4l-129.2,84.2L88.7,112.2L342.1,119.4z M59.1,268l4.2-146l97.6,71.8L59.1,268z
			 M80.8,280.5l99.4-72.4l25.5,18.8c0.8,0.6,1.6,1.1,2.5,1.4c3.4,1.4,7.4,1,10.5-1l26.5-17.3l95.1,78L80.8,280.5z M265.4,196.8
			l101.5-66.2l-4.1,146L265.4,196.8z"/>
	</g>
</g>
</svg>
