<?xml version="1.0" encoding="utf-8"?>
<!-- Generator: Adobe Illustrator 19.0.0, SVG Export Plug-In . SVG Version: 6.00 Build 0)  -->
<svg version="1.1" id="Capa_1" xmlns="http://www.w3.org/2000/svg" xmlns:xlink="http://www.w3.org/1999/xlink" x="0px" y="0px"
	 viewBox="-283 705 512 512" style="enable-background:new -283 705 512 512;" xml:space="preserve">
<style type="text/css">
	.st0{fill:#018DA6;}
</style>
<g>
	<path class="st0" d="M221,1154.7v-142.8c4.5-0.2,8-3.9,8-8.4c0-4.6-3.8-8.4-8.4-8.4h-7.9V877.5c0-4.6-3.8-8.4-8.4-8.4h-8.6V802
		c0-15.6-10.7-28.7-25.1-32.5v-10.7c0-4.6-3.8-8.4-8.4-8.4s-8.4,3.8-8.4,8.4v10.7c-14.4,3.7-25.1,16.9-25.1,32.5v67.1h-8.6
		c-4.6,0-8.4,3.8-8.4,8.4v117.7h-8c-4.6,0-8.4,3.8-8.4,8.4c0,4.6,3.6,8.3,8.2,8.4v8.4H78.2c0-4.6-3.8-8.4-8.4-8.4
		c-4.6,0-8.4,3.8-8.4,8.4H36v-25.5c0-4.6-3.8-8.4-8.4-8.4s-8.4,3.8-8.4,8.4v0.4h-37.7v-17.5c0-4.6-3.8-8.4-8.4-8.4s-8.4,3.8-8.4,8.4
		v17.5h-37.7v-0.4c0-4.6-3.8-8.4-8.4-8.4c-4.6,0-8.4,3.8-8.4,8.4v25.5h-25.2c0-4.6-3.8-8.4-8.4-8.4c-4.6,0-8.4,3.8-8.4,8.4H-157
		v-8.4c4.5-0.2,8-3.9,8-8.4c0-4.6-3.8-8.4-8.4-8.4h-7.9V877.5c0-4.6-3.8-8.4-8.4-8.4h-8.6V802c0-15.6-10.7-28.7-25.1-32.5v-10.7
		c0-4.6-3.8-8.4-8.4-8.4s-8.4,3.8-8.4,8.4v10.7c-14.4,3.7-25.1,16.9-25.1,32.5v67.1h-8.6c-4.6,0-8.4,3.8-8.4,8.4v117.7h-8
		c-4.6,0-8.4,3.8-8.4,8.4c0,4.6,3.6,8.3,8.2,8.4v142.7h-0.2c-4.6,0-8.4,3.8-8.4,8.4s3.8,8.4,8.4,8.4h495.2c4.6,0,8.4-3.8,8.4-8.4
		C229,1158.6,225.4,1154.9,221,1154.7z M78.2,1154.7H61.4v-25.6c0-4.6,3.8-8.4,8.4-8.4s8.4,3.8,8.4,8.4V1154.7z M69.8,1103.9
		c-13.8,0-25,11.1-25.2,24.8c0,0.1,0,0.2,0,0.3v25.8H36v-51h67.5v51H95v-25.6C95,1115.2,83.7,1103.9,69.8,1103.9z M-114.9,1154.7
		h-16.8v-25.6c0-4.6,3.8-8.4,8.4-8.4c4.6,0,8.4,3.8,8.4,8.4V1154.7z M-123.3,1103.9c-13.8,0-25,11.1-25.2,24.8c0,0.1,0,0.2,0,0.3
		v25.8h-8.5v-51h67.3v51h-8.4v-25.6C-98.1,1115.2-109.4,1103.9-123.3,1103.9z M-257.6,1012h83.8v50.7h-83.8V1012z M-72.9,1095H19
		c0,0.1,0,0.2,0,0.3c0,0.6,0.1,1.3,0.2,1.8v57.5h-92.1L-72.9,1095L-72.9,1095z M204.2,1012v50.7h-83.8v-33.8c0-0.1,0-0.1,0-0.2
		s0-0.1,0-0.2V1012L204.2,1012L204.2,1012z M120.3,1097.2c0.1-0.6,0.2-1.2,0.2-1.9s-0.1-1.3-0.2-1.9v-14h83.8v75.2h-83.8V1097.2z
		 M162.3,785.3c6.2,0,11.5,3.4,14.4,8.3h-28.9C150.7,788.7,156.1,785.3,162.3,785.3z M145.5,810.4H179v58.7h-33.5V810.4z M196,885.9
		v75.7h-67.4v-75.7H196z M128.6,978.4H196v16.7h-67.4V978.4z M61.4,1037.1v7.7c0,4.6,3.8,8.4,8.4,8.4s8.4-3.8,8.4-8.4v-7.7h25.4
		v49.8H36v-49.8H61.4z M-35.2,1012v16.8c0,4.6,3.8,8.4,8.4,8.4s8.4-3.8,8.4-8.4V1012h37.7v66.3h-92.1V1012H-35.2z M-131.7,1037.1
		v7.7c0,4.6,3.8,8.4,8.4,8.4c4.6,0,8.4-3.8,8.4-8.4v-7.7h25.2v49.8H-157v-49.8H-131.7z M-215.7,785.3c6.2,0,11.5,3.4,14.4,8.3h-28.9
		C-227.2,788.7-221.8,785.3-215.7,785.3z M-232.4,810.4h33.5v58.7h-33.5V810.4z M-182,885.9v75.7h-67.4v-75.7H-182z M-249.4,978.4
		h67.4v16.7h-67.4V978.4z M-257.6,1079.5h83.8v75.2h-83.8V1079.5z"/>
	<path class="st0" d="M-215.7,818.6c-4.6,0-8.4,3.8-8.4,8.4v24.9c0,4.6,3.8,8.4,8.4,8.4s8.4-3.8,8.4-8.4V827
		C-207.3,822.3-211,818.6-215.7,818.6z"/>
	<path class="st0" d="M-232.7,952.9h33.7c4.6,0,8.4-3.8,8.4-8.4v-24.7c0-13.9-11.3-25.3-25.3-25.3c-13.8,0-25,11.1-25.3,24.8
		c0,0.1,0,0.2,0,0.3v24.9C-241.1,949.1-237.3,952.9-232.7,952.9z M-224.3,919.8c0-4.7,3.8-8.5,8.5-8.5s8.5,3.8,8.5,8.5v16.3h-16.9
		V919.8z"/>
	<path class="st0" d="M162.3,818.6c-4.6,0-8.4,3.8-8.4,8.4v24.9c0,4.6,3.8,8.4,8.4,8.4c4.6,0,8.4-3.8,8.4-8.4V827
		C170.7,822.3,166.9,818.6,162.3,818.6z"/>
	<path class="st0" d="M145.3,952.9H179c4.6,0,8.4-3.8,8.4-8.4v-24.7c0-13.9-11.3-25.3-25.3-25.3c-13.8,0-25,11.1-25.3,24.8
		c0,0.1,0,0.2,0,0.3v24.9C136.9,949.1,140.6,952.9,145.3,952.9z M153.7,919.8c0-4.7,3.8-8.5,8.5-8.5s8.5,3.8,8.5,8.5v16.3h-16.9
		L153.7,919.8L153.7,919.8z"/>
	<path class="st0" d="M-129.2,1077c1.6,1.6,3.7,2.5,5.9,2.5c2.2,0,4.4-0.9,5.9-2.5c1.6-1.6,2.5-3.7,2.5-5.9c0-2.2-0.9-4.4-2.5-5.9
		c-1.6-1.6-3.7-2.5-5.9-2.5c-2.2,0-4.4,0.9-5.9,2.5c-1.6,1.6-2.5,3.7-2.5,5.9C-131.7,1073.3-130.8,1075.4-129.2,1077z"/>
	<path class="st0" d="M-215.7,1113.1c2.2,0,4.4-0.9,5.9-2.5c1.6-1.6,2.5-3.7,2.5-5.9c0-2.2-0.9-4.4-2.5-5.9
		c-1.6-1.6-3.7-2.5-5.9-2.5c-2.2,0-4.4,0.9-5.9,2.5c-1.6,1.6-2.5,3.7-2.5,5.9c0,2.2,0.9,4.4,2.5,5.9
		C-220.1,1112.2-218,1113.1-215.7,1113.1z"/>
	<path class="st0" d="M-209.8,1030.8c-1.6-1.6-3.7-2.5-5.9-2.5c-2.2,0-4.4,0.9-5.9,2.5c-1.6,1.6-2.5,3.7-2.5,5.9
		c0,2.2,0.9,4.4,2.5,5.9c1.6,1.6,3.7,2.5,5.9,2.5c2.2,0,4.4-0.9,5.9-2.5c1.6-1.6,2.5-3.7,2.5-5.9
		C-207.4,1034.6-208.2,1032.4-209.8,1030.8z"/>
	<path class="st0" d="M-215.7,1119.4c-2.2,0-4.4,0.9-5.9,2.5c-1.6,1.6-2.5,3.7-2.5,5.9c0,2.2,0.9,4.4,2.5,5.9
		c1.6,1.6,3.7,2.5,5.9,2.5c2.2,0,4.4-0.9,5.9-2.5c1.6-1.6,2.5-3.7,2.5-5.9c0-2.2-0.9-4.4-2.5-5.9
		C-211.4,1120.3-213.5,1119.4-215.7,1119.4z"/>
	<path class="st0" d="M162.2,1113.1c2.2,0,4.4-0.9,5.9-2.5c1.6-1.6,2.5-3.7,2.5-5.9c0-2.2-0.9-4.4-2.5-5.9c-1.6-1.6-3.7-2.5-5.9-2.5
		c-2.2,0-4.4,0.9-5.9,2.5c-1.6,1.6-2.5,3.7-2.5,5.9c0,2.2,0.9,4.4,2.5,5.9C157.8,1112.2,160,1113.1,162.2,1113.1z"/>
	<path class="st0" d="M162.2,1045.2c2.2,0,4.4-0.9,5.9-2.5c1.6-1.6,2.5-3.7,2.5-5.9c0-2.2-0.9-4.4-2.5-5.9c-1.6-1.6-3.7-2.5-5.9-2.5
		c-2.2,0-4.4,0.9-5.9,2.5c-1.6,1.6-2.5,3.7-2.5,5.9c0,2.2,0.9,4.4,2.5,5.9C157.8,1044.3,160,1045.2,162.2,1045.2z"/>
	<path class="st0" d="M162.2,1119.4c-2.2,0-4.4,0.9-5.9,2.5c-1.6,1.6-2.5,3.7-2.5,5.9c0,2.2,0.9,4.4,2.5,5.9
		c1.6,1.6,3.7,2.5,5.9,2.5c2.2,0,4.4-0.9,5.9-2.5c1.6-1.6,2.5-3.7,2.5-5.9c0-2.2-0.9-4.4-2.5-5.9
		C166.6,1120.3,164.4,1119.4,162.2,1119.4z"/>
	<path class="st0" d="M69.8,1079.5c2.2,0,4.4-0.9,5.9-2.5c1.6-1.6,2.5-3.7,2.5-5.9c0-2.2-0.9-4.4-2.5-5.9c-1.6-1.6-3.7-2.5-5.9-2.5
		c-2.2,0-4.4,0.9-5.9,2.5c-1.6,1.6-2.5,3.7-2.5,5.9c0,2.2,0.9,4.4,2.5,5.9C65.4,1078.6,67.6,1079.5,69.8,1079.5z"/>
	<path class="st0" d="M-26.8,1070.3c4.6,0,8.4-3.8,8.4-8.4v-7.7c0-4.6-3.8-8.4-8.4-8.4s-8.4,3.8-8.4,8.4v7.7
		C-35.2,1066.5-31.5,1070.3-26.8,1070.3z"/>
</g>
</svg>
