<?xml version="1.0" encoding="utf-8"?>
<!-- Generator: Adobe Illustrator 19.0.0, SVG Export Plug-In . SVG Version: 6.00 Build 0)  -->
<svg version="1.1" id="Capa_1" xmlns="http://www.w3.org/2000/svg" xmlns:xlink="http://www.w3.org/1999/xlink" x="0px" y="0px"
	 viewBox="-273 396.9 48 48" style="enable-background:new -273 396.9 48 48;" xml:space="preserve">
<style type="text/css">
	.st0{fill:none;}
	.st1{fill:#395259;}
	.st2{fill:#F0C419;}
	.st3{fill:#EDE21B;}
	.st4{fill:#D0E8F9;}
	.st5{fill:#ABCADD;}
	.st6{fill:#ABC5D3;}
	.st7{fill:#FFFFFF;}
	.st8{fill:#FFDA44;}
	.st9{fill:#FF3501;}
	.st10{fill:#2488FF;}
	.st11{fill:#005ECE;}
	.st12{fill:#CD2A00;}
	.st13{fill:#D8D7DA;}
</style>
<path class="st0" d="M-1347,1670.8h48v48h-48V1670.8z"/>
<circle class="st1" cx="-249" cy="420.9" r="22.9"/>
<g>
	<path class="st2" d="M-202.7,390.2c0-0.3-0.3-0.6-0.6-0.6h-2.3c-0.3,0-0.6,0.3-0.6,0.6s0.3,0.6,0.6,0.6h2.3
		C-202.9,390.7-202.7,390.5-202.7,390.2z"/>
	<path class="st2" d="M-194.3,378.4c-0.3,0-0.6,0.3-0.6,0.6v2.3c0,0.3,0.3,0.6,0.6,0.6s0.6-0.3,0.6-0.6V379
		C-193.7,378.6-194,378.4-194.3,378.4z"/>
	<path class="st2" d="M-202.4,381.2c-0.2-0.2-0.6-0.2-0.8,0c-0.2,0.2-0.2,0.6,0,0.8l2.2,2.2c0.1,0.1,0.3,0.2,0.4,0.2
		s0.3-0.1,0.4-0.2c0.2-0.2,0.2-0.6,0-0.8L-202.4,381.2z"/>
	<path class="st2" d="M-185.4,381.2c-0.2-0.2-0.6-0.2-0.8,0l-2.2,2.2c-0.2,0.2-0.2,0.6,0,0.8c0.1,0.1,0.3,0.2,0.4,0.2
		s0.3-0.1,0.4-0.2l2.2-2.2C-185.1,381.8-185.1,381.5-185.4,381.2z"/>
	<path class="st2" d="M-197.7,380.7c-0.1-0.3-0.5-0.4-0.7-0.3c-0.3,0.1-0.4,0.5-0.3,0.7l0.5,1.1c0.1,0.2,0.3,0.3,0.5,0.3
		c0.1,0,0.1,0,0.2,0c0.3-0.1,0.4-0.5,0.3-0.7L-197.7,380.7z"/>
	<path class="st2" d="M-190.3,380.3c-0.3-0.1-0.6,0-0.7,0.3l-0.4,1.1c-0.1,0.3,0,0.6,0.3,0.7c0.1,0,0.1,0,0.2,0
		c0.2,0,0.4-0.1,0.5-0.4l0.4-1.1C-189.9,380.7-190,380.4-190.3,380.3z"/>
	<path class="st2" d="M-202.7,393.2l-1.1,0.5c-0.3,0.1-0.4,0.5-0.3,0.7s0.3,0.3,0.5,0.3c0.1,0,0.1,0,0.2,0l1.1-0.5
		c0.3-0.1,0.4-0.5,0.3-0.7C-202.1,393.2-202.5,393-202.7,393.2z"/>
	<path class="st2" d="M-203.9,386.9l1.1,0.4c0.1,0,0.1,0,0.2,0c0.2,0,0.4-0.1,0.5-0.4s0-0.6-0.3-0.7l-1.1-0.4
		c-0.3-0.1-0.6,0-0.7,0.3C-204.3,386.5-204.2,386.8-203.9,386.9z"/>
</g>
<g>
	<path class="st3" d="M-198.9,396.4c0.4,0,0.8,0.1,1.2,0.2c-0.3-1.1,0-2.4,0.8-3.4c1.1-1.3,2.7-1.7,4.2-1.3l0,0
		c0.5-1.2,1.5-2.1,2.8-2.4c0.5-0.1,0.9-0.1,1.4-0.1c0-0.1,0-0.2,0-0.3c0-1.2,0.3-2.2,0.9-3.2c-1.4-2.3-3.8-3.8-6.6-3.8
		c-4.3,0-7.8,3.5-7.8,7.8C-202.1,392.7-200.8,395-198.9,396.4z"/>
</g>
<path class="st4" d="M-172.2,393.3L-172.2,393.3c0,0.2,0,0.3,0,0.5c0,0.3-0.3,0.6-0.6,0.6s-0.6-0.3-0.6-0.6c0-1.9-1.5-3.4-3.4-3.4
	s-3.4,1.5-3.4,3.4c0,0.3-0.3,0.6-0.6,0.6s-0.6-0.3-0.6-0.6c0-2.3,1.7-4.2,3.9-4.5c-0.1-2.8-2.5-5.1-5.3-5.1c-2.9,0-5.2,2.3-5.3,5.1
	c0.5,0.1,0.9,0.3,1.3,0.6c1,0.6,1.7,1.6,2,2.8c0.1,0.3-0.1,0.6-0.4,0.7c-0.3,0.1-0.6-0.1-0.7-0.4c-0.4-1.8-2.3-2.9-4.1-2.5
	s-2.9,2.2-2.5,4.1c0.1,0.3-0.1,0.6-0.4,0.7h-0.1c-0.3,0-0.5-0.2-0.5-0.4c-0.2-0.7-0.2-1.4,0-2.1c-1.2-0.2-2.3,0.3-3.1,1.2
	c-0.7,0.9-0.9,2-0.7,3l0,0c0.2,0.7,0.5,1.3,1.1,1.8c0.2,0.2,0.3,0.6,0.1,0.8c-0.1,0.1-0.3,0.2-0.4,0.2c-0.1,0-0.3,0-0.4-0.1
	c-0.7-0.6-1.2-1.3-1.4-2.1c-2.3-0.6-4.7,0.4-5.9,2.4c-0.7,1.2-1,2.7-0.6,4c0.3,1.4,1.2,2.6,2.4,3.3c0.3,0.2,0.4,0.5,0.2,0.8
	c-0.1,0.2-0.3,0.3-0.5,0.3c-0.1,0-0.1,0-0.2-0.1c0.9,0.5,1.9,0.8,3,0.9h4.6c3,0,5.5-1.9,6.6-4.5c1.1,2.6,3.7,4.5,6.8,4.5
	c5.3,0,9.6-4.3,9.6-9.6V394L-172.2,393.3z"/>
<g>
	<path class="st5" d="M-176.2,389.4c-0.1-3.5-3-6.2-6.5-6.2s-6.3,2.7-6.5,6.1c-0.3,0-0.6,0-0.9,0.1c-1.3,0.3-2.4,1.2-2.9,2.3
		c-1.6-0.3-3.3,0.2-4.4,1.5c-0.7,0.9-1.1,1.9-1,3c-2.6-0.5-5.3,0.7-6.7,3c-0.9,1.5-1.2,3.2-0.8,4.9s1.5,3.1,2.9,4
		c0.1,0.1,0.2,0.1,0.3,0.1c0.2,0,0.4-0.1,0.5-0.3c0.2-0.3,0.1-0.6-0.2-0.8c-1.2-0.7-2.1-1.9-2.4-3.3s-0.1-2.8,0.6-4
		c1.2-2,3.6-3,5.9-2.4c0.3,0.8,0.7,1.6,1.4,2.1c0.1,0.1,0.2,0.1,0.4,0.1s0.3-0.1,0.4-0.2c0.2-0.2,0.2-0.6-0.1-0.8
		c-0.6-0.5-0.9-1.1-1.1-1.8l0,0c-0.3-1,0-2.1,0.7-3c0.8-0.9,1.9-1.4,3.1-1.2c-0.2,0.7-0.2,1.4,0,2.1c0.1,0.3,0.3,0.4,0.5,0.4h0.1
		c0.3-0.1,0.5-0.4,0.4-0.7c-0.4-1.8,0.7-3.6,2.5-4.1c1.8-0.4,3.6,0.7,4.1,2.5c0.1,0.3,0.4,0.5,0.7,0.4s0.5-0.4,0.4-0.7
		c-0.3-1.2-1-2.2-2-2.8c-0.4-0.3-0.9-0.4-1.3-0.6c0.1-2.9,2.5-5.1,5.3-5.1c2.9,0,5.2,2.3,5.3,5.1c-2.2,0.3-3.9,2.2-3.9,4.5
		c0,0.3,0.3,0.6,0.6,0.6s0.6-0.3,0.6-0.6c0-1.9,1.5-3.4,3.4-3.4s3.4,1.5,3.4,3.4c0,0,0,0.7,0,1.7c0,0.3,0.3,0.6,0.6,0.6
		s0.6-0.3,0.6-0.6v-1.7C-172.2,391.6-174,389.7-176.2,389.4z"/>
</g>
<g>
	<path class="st6" d="M-187.8,405.3l-1.7,1.7c-0.2,0.2-0.2,0.6,0,0.8c0.1,0.1,0.3,0.2,0.4,0.2s0.3-0.1,0.4-0.2l1.7-1.7
		c0.2-0.2,0.2-0.6,0-0.8S-187.6,405.1-187.8,405.3z"/>
	<path class="st6" d="M-191.2,408.7l-1.7,1.7c-0.2,0.2-0.2,0.6,0,0.8c0.1,0.1,0.3,0.2,0.4,0.2s0.3-0.1,0.4-0.2l1.7-1.7
		c0.2-0.2,0.2-0.6,0-0.8C-190.6,408.5-191,408.5-191.2,408.7z"/>
	<path class="st7" d="M-179.2,401.9c-0.2-0.2-0.6-0.2-0.8,0l-1.7,1.7c-0.2,0.2-0.2,0.6,0,0.8c0.1,0.1,0.3,0.2,0.4,0.2
		s0.3-0.1,0.4-0.2l1.7-1.7C-178.9,402.5-178.9,402.1-179.2,401.9z"/>
	<path class="st7" d="M-183.3,405.3l-1.7,1.7c-0.2,0.2-0.2,0.6,0,0.8c0.1,0.1,0.3,0.2,0.4,0.2s0.3-0.1,0.4-0.2l1.7-1.7
		c0.2-0.2,0.2-0.6,0-0.8S-183.1,405.1-183.3,405.3z"/>
	<path class="st7" d="M-188.2,401.9c-0.2-0.2-0.6-0.2-0.8,0l-1.7,1.7c-0.2,0.2-0.2,0.6,0,0.8c0.1,0.1,0.3,0.2,0.4,0.2
		s0.3-0.1,0.4-0.2l1.7-1.7C-188,402.5-188,402.1-188.2,401.9z"/>
	<path class="st7" d="M-183.7,401.9c-0.2-0.2-0.6-0.2-0.8,0l-1.7,1.7c-0.2,0.2-0.2,0.6,0,0.8c0.1,0.1,0.3,0.2,0.4,0.2
		s0.3-0.1,0.4-0.2l1.7-1.7C-183.4,402.5-183.4,402.1-183.7,401.9z"/>
	<path class="st6" d="M-191.5,405.3c-0.2-0.2-0.6-0.2-0.8,0l-1.7,1.7c-0.2,0.2-0.2,0.6,0,0.8c0.1,0.1,0.3,0.2,0.4,0.2
		s0.3-0.1,0.4-0.2l1.7-1.7C-191.3,405.9-191.3,405.5-191.5,405.3z"/>
</g>
<g>
	<path class="st8" d="M-180.5,439.7h-10.6c-0.8,0-1.5-0.7-1.5-1.5s0.7-1.5,1.5-1.5h8.5c-0.2-0.4-0.3-0.8-0.3-1.3s0.1-0.9,0.3-1.3
		h-8.5c-2.2,0-4,1.8-4,4c0,2.2,1.8,4,4,4h10.6c0.8,0,1.5,0.7,1.5,1.5s-0.7,1.5-1.5,1.5h-17.6c0.2,0.4,0.3,0.8,0.3,1.3
		s-0.1,0.9-0.3,1.3h17.6c2.2,0,4-1.8,4-4S-178.3,439.7-180.5,439.7z"/>
	<rect x="-188.8" y="418.1" class="st9" width="7.8" height="9"/>
	<path class="st8" d="M-178.4,432.6v-14.5h-2.5v14.5c0.4-0.2,0.8-0.3,1.3-0.3S-178.8,432.4-178.4,432.6z"/>
	<path class="st10" d="M-182.6,436.8c0.5,1.1,1.6,1.9,2.9,1.9v-6.4c-0.5,0-0.9,0.1-1.3,0.3c-0.7,0.3-1.3,0.9-1.6,1.6
		c-0.2,0.4-0.3,0.8-0.3,1.3C-182.9,435.9-182.8,436.4-182.6,436.8z"/>
	<path class="st11" d="M-179.7,438.7c1.8,0,3.2-1.4,3.2-3.2c0-1.3-0.8-2.4-1.9-2.9c-0.4-0.2-0.8-0.3-1.3-0.3V438.7z"/>
	<path class="st10" d="M-204.2,446.4c0,1.8,1.4,3.2,3.2,3.2v-6.4C-202.8,443.2-204.2,444.7-204.2,446.4z"/>
	<path class="st11" d="M-198.1,445.1c-0.5-1.1-1.6-1.9-2.9-1.9v6.4c1.3,0,2.4-0.8,2.9-1.9c0.2-0.4,0.3-0.8,0.3-1.3
		C-197.8,446-197.9,445.5-198.1,445.1z"/>
	<path class="st12" d="M-198.5,430.5c0,1.4-1.1,2.5-2.5,2.5v8.4l5.4-6.7c0.9-1.2,1.5-2.7,1.5-4.2c0-3.8-3.1-6.8-6.8-6.8v4.3
		C-199.7,427.9-198.5,429.1-198.5,430.5z"/>
	<path class="st13" d="M-198.5,430.5c0-1.4-1.1-2.5-2.5-2.5v5.1C-199.7,433-198.5,431.9-198.5,430.5z"/>
	<path class="st9" d="M-201.1,433c-1.4,0-2.5-1.1-2.5-2.5c0-1.4,1.1-2.5,2.5-2.5v-4.3c-3.8,0-6.8,3.1-6.8,6.8c0,1.5,0.5,3,1.5,4.2
		l5.4,6.7V433z"/>
	<path class="st7" d="M-203.6,430.5c0,1.4,1.1,2.5,2.5,2.5v-5.1C-202.5,427.9-203.6,429.1-203.6,430.5z"/>
</g>
<path class="st7" d="M-248.9,407.1c-7.5,0-13.7,6.1-13.7,13.7c0,7.5,6.1,13.7,13.7,13.7s13.7-6.1,13.7-13.7
	C-235.3,413.2-241.4,407.1-248.9,407.1z M-254.2,410.3c-0.2,0.3-0.5,0.7-0.7,1.1c-0.3,0.6-0.6,1.2-0.9,1.9c-0.6-0.2-1.1-0.3-1.7-0.5
	C-256.6,411.8-255.4,410.9-254.2,410.3z M-258.9,414.6c0.8,0.3,1.6,0.6,2.4,0.8c-0.3,1.3-0.5,2.7-0.6,4.2h-3.5
	C-260.4,417.8-259.8,416.1-258.9,414.6z M-258.9,426.9c-0.9-1.5-1.5-3.2-1.7-5h3.5c0.1,1.5,0.3,2.9,0.6,4.2
	C-257.3,426.3-258.1,426.6-258.9,426.9z M-257.5,428.7c0.6-0.2,1.1-0.4,1.7-0.5c0.3,0.7,0.6,1.3,0.9,1.9c0.2,0.4,0.5,0.8,0.7,1.1
	C-255.4,430.6-256.6,429.7-257.5,428.7z M-250,431.9c-1.4-0.5-2.7-2.1-3.6-4.2c1.2-0.2,2.4-0.4,3.6-0.4V431.9z M-250,425.1
	c-1.4,0.1-2.9,0.2-4.3,0.5c-0.3-1.1-0.5-2.4-0.6-3.7h4.8V425.1z M-250,419.6h-4.8c0.1-1.3,0.3-2.5,0.6-3.7c1.4,0.3,2.8,0.4,4.3,0.5
	V419.6z M-250,414.2c-1.2-0.1-2.4-0.2-3.6-0.4c0.9-2.1,2.1-3.7,3.6-4.2V414.2z M-238.9,414.6c0.9,1.5,1.5,3.2,1.7,5h-3.5
	c-0.1-1.5-0.3-2.9-0.6-4.2C-240.5,415.2-239.7,414.9-238.9,414.6z M-240.3,412.8c-0.6,0.2-1.1,0.4-1.7,0.5c-0.3-0.7-0.6-1.3-0.9-1.9
	c-0.2-0.4-0.5-0.8-0.7-1.1C-242.4,410.9-241.3,411.8-240.3,412.8z M-247.8,409.6c1.4,0.5,2.7,2.1,3.6,4.2c-1.2,0.2-2.4,0.4-3.6,0.4
	V409.6z M-247.8,416.5c1.4-0.1,2.9-0.2,4.3-0.5c0.3,1.1,0.5,2.4,0.6,3.7h-4.8L-247.8,416.5L-247.8,416.5z M-247.8,421.9h4.8
	c-0.1,1.3-0.3,2.5-0.6,3.7c-1.4-0.3-2.8-0.4-4.3-0.5L-247.8,421.9L-247.8,421.9z M-247.8,431.9v-4.6c1.2,0.1,2.4,0.2,3.6,0.4
	C-245.1,429.8-246.4,431.4-247.8,431.9z M-243.6,431.2c0.2-0.3,0.5-0.7,0.7-1.1c0.3-0.6,0.6-1.2,0.9-1.9c0.6,0.2,1.1,0.3,1.7,0.5
	C-241.3,429.7-242.4,430.6-243.6,431.2z M-238.9,426.9c-0.8-0.3-1.6-0.6-2.4-0.8c0.3-1.3,0.5-2.7,0.6-4.2h3.5
	C-237.4,423.7-238,425.4-238.9,426.9z"/>
</svg>
