<?xml version="1.0" encoding="utf-8"?>
<!-- Generator: Adobe Illustrator 19.0.0, SVG Export Plug-In . SVG Version: 6.00 Build 0)  -->
<svg version="1.1" id="Capa_1" xmlns="http://www.w3.org/2000/svg" xmlns:xlink="http://www.w3.org/1999/xlink" x="0px" y="0px"
	 viewBox="-935 517 48 48" style="enable-background:new -935 517 48 48;" xml:space="preserve">
<style type="text/css">
	.st0{fill:none;}
	.st1{fill:#1BABDD;}
	.st2{fill:#FFFFFF;}
	.st3{opacity:0.7;clip-path:url(#SVGID_2_);fill:#2489A8;}
</style>
<path class="st0" d="M-1736,1394h48v48h-48V1394z"/>
<circle class="st1" cx="-911" cy="541" r="22.9"/>
<path class="st2" d="M-922.4,529.3"/>
<g>
	<defs>
		<circle id="SVGID_1_" cx="-911" cy="541" r="22.9"/>
	</defs>
	<clipPath id="SVGID_2_">
		<use xlink:href="#SVGID_1_"  style="overflow:visible;"/>
	</clipPath>
	<path class="st3" d="M-923.8,529.3l-19.3,26.6l37.2,13.8l7-17.3l-2.7,0.1l-3.8-1l-1.5-0.5l-1.4-0.3l-2-1.3c0,0-1.1-1.2-1.2-1.3
		c-0.1-0.1-2.4-0.7-2.4-0.7l-1.6-1.5l-1.3-0.9l-0.8-1.2l-1.3-1.5l-1.3-1.4l-0.5-2.2v-1.7l-0.1-0.9L-923.8,529.3z"/>
</g>
<path class="st2" d="M-919,539.3c2,4,5.2,7.2,9.2,9.2l3.1-3.1c0.3-0.3,0.9-0.5,1.4-0.3c1.5,0.5,3.3,0.8,5,0.8c0.8,0,1.4,0.6,1.4,1.4
	v4.9c0,0.8-0.6,1.4-1.4,1.4c-13.1,0-23.7-10.6-23.7-23.7c0-0.8,0.6-1.4,1.4-1.4h4.9c0.8,0,1.4,0.6,1.4,1.4c0,1.7,0.3,3.4,0.8,5
	c0.1,0.5,0.1,1-0.3,1.4L-919,539.3z"/>
</svg>
