<?xml version="1.0" encoding="utf-8"?>
<!-- Generator: Adobe Illustrator 19.0.0, SVG Export Plug-In . SVG Version: 6.00 Build 0)  -->
<svg version="1.1" id="Capa_1" xmlns="http://www.w3.org/2000/svg" xmlns:xlink="http://www.w3.org/1999/xlink" x="0px" y="0px"
	 viewBox="-935 517 48 48" style="enable-background:new -935 517 48 48;" xml:space="preserve">
<style type="text/css">
	.st0{fill:none;}
	.st1{fill:#FFFFFF;}
	.st2{fill:#EA2E49;}
	.st3{clip-path:url(#SVGID_2_);fill:#A02744;}
</style>
<path class="st0" d="M-1736,1394h48v48h-48V1394z"/>
<path id="XMLID_2_" class="st1" d="M-1459.1,1118.1c2,4,5.2,7.2,9.2,9.2l3.1-3.1c0.3-0.3,0.9-0.5,1.4-0.3c1.5,0.5,3.3,0.8,5,0.8
	c0.8,0,1.4,0.6,1.4,1.4v4.9c0,0.8-0.6,1.4-1.4,1.4c-13.1,0-23.7-10.6-23.7-23.7c0-0.8,0.6-1.4,1.4-1.4h4.9c0.8,0,1.4,0.6,1.4,1.4
	c0,1.7,0.3,3.4,0.8,5c0.1,0.5,0.1,1-0.3,1.4L-1459.1,1118.1z"/>
<circle class="st2" cx="-911" cy="540.5" r="22.9"/>
<g>
	<defs>
		<circle id="SVGID_1_" cx="-911" cy="540.5" r="22.9"/>
	</defs>
	<clipPath id="SVGID_2_">
		<use xlink:href="#SVGID_1_"  style="overflow:visible;"/>
	</clipPath>
	<polygon class="st3" points="-925,551.2 -906.5,569.6 -882,545.2 -897.1,530.1 -924,530.1 	"/>
</g>
<g id="XMLID_6_">
	<path id="XMLID_8_" class="st1" d="M-897.3,529.5h-27.3c-0.2,0-0.4,0.2-0.4,0.4v21.3c0,0.2,0.2,0.4,0.4,0.4h27.3
		c0.2,0,0.4-0.2,0.4-0.4v-21.3C-896.9,529.7-897.1,529.5-897.3,529.5z M-899.6,548.1l-6.1-6.4c-0.1-0.1-0.2-0.1-0.3,0l-4.3,3.7
		l-5.4-6.7l-0.1-0.1c-0.1,0-0.1,0-0.1,0.1l-6.4,8.6V532h22.8v16.1L-899.6,548.1L-899.6,548.1z"/>
	<path id="XMLID_1_" class="st1" d="M-906.3,538.6c1.2,0,2.2-1,2.2-2.2s-1-2.2-2.2-2.2c-1.2,0-2.2,1-2.2,2.2
		S-907.5,538.6-906.3,538.6z"/>
</g>
</svg>
