<?xml version="1.0" encoding="utf-8"?>
<!-- Generator: Adobe Illustrator 19.0.0, SVG Export Plug-In . SVG Version: 6.00 Build 0)  -->
<svg version="1.1" xmlns="http://www.w3.org/2000/svg" xmlns:xlink="http://www.w3.org/1999/xlink" x="0px" y="0px"
	 viewBox="0 0 915 450" style="enable-background:new 0 0 915 450;" xml:space="preserve">
<style type="text/css">
	.st0{fill:#FFFFFF;}
	.st1{fill:#1989BC;}
	.st2{fill:#4894A9;}
	.st3{font-family:'BebasNeue';}
	.st4{font-size:38px;}
	.st5{font-size:51px;}
	.st6{font-family:'DJBGetDigital';}
	.st7{font-size:98.5384px;}
	.st8{fill:#42763F;}
	.st9{fill:#386835;}
	.st10{fill:#30372F;}
	.st11{fill:#F2F2F2;}
	.st12{fill:#AEB5AC;}
	.st13{fill:#333739;}
	.st14{fill:#2C9ED8;}
	.st15{fill:#D0D0D1;}
	.st16{fill:#1E2D32;}
	.st17{fill:#BBC5C7;}
	.st18{fill:#30353E;}
	.st19{fill:#CBCFD5;}
	.st20{opacity:0.77;fill:none;stroke:#1E2632;stroke-miterlimit:10;}
	.st21{fill:#181E24;}
	.st22{fill:#CCCCCC;}
	.st23{fill:none;stroke:#C23431;stroke-width:3;stroke-miterlimit:10;}
	.st24{fill:#0B5476;}
	.st25{fill:#8E9498;}
	.st26{fill:#272C2F;}
	.st27{fill:#FEFEFE;}
	.st28{fill:#262E32;}
	.st29{fill:#C5C9CB;}
	.st30{fill:#D7AD8F;}
	.st31{fill:#EED2B8;}
	.st32{opacity:0.78;}
	.st33{fill:#E9C2A3;}
	.st34{fill:#1A191A;}
	.st35{fill:#1C1F27;}
	.st36{fill:#222632;}
	.st37{fill:#1A1E26;}
	.st38{fill:#202531;}
	.st39{fill:#EAC04A;}
	.st40{fill:#252523;}
	.st41{fill:#364D63;}
	.st42{fill:#C9B241;}
	.st43{fill:#E0B94D;}
	.st44{fill:#CB962E;}
	.st45{fill:none;}
	.st46{fill:#C33C3A;}
	.st47{fill:#2D333E;}
	.st48{fill:#494A4E;}
	.st49{fill:#49494D;}
	.st50{fill:#292C3C;}
	.st51{fill:#233542;}
	.st52{fill:#283F60;}
	.st53{opacity:0.65;fill:#E8EAEC;}
	.st54{fill:#AB2724;}
	.st55{fill:#A83937;}
	.st56{fill:#D3D2D3;}
	.st57{fill:#C2302B;}
	.st58{fill:#A44342;}
	.st59{fill:#2D3548;}
	.st60{fill:#D7CFCF;}
	.st61{fill:#364768;}
	.st62{fill:#3A597D;}
	.st63{font-size:20.7276px;}
	.st64{fill:#2C3447;}
	.st65{fill:#A22925;}
	.st66{opacity:0.25;fill:none;stroke:#EBEAEA;stroke-miterlimit:10;}
	.st67{opacity:0.67;fill:#FFFFFF;}
	.st68{font-size:4.4745px;}
</style>
<g id="Capa_2">
	<rect id="XMLID_46_" class="st0" width="915" height="451.8"/>
	<polygon id="XMLID_1_" class="st1" points="915,-1 563,109.4 563,451.8 915,451.8 	"/>
	<polygon id="XMLID_56_" class="st2" points="563,109 854.8,0 915,0 	"/>
	<text id="XMLID_51_" transform="matrix(1 0 0 1 635.2328 164.0372)"><tspan x="0" y="0" class="st0 st3 st4">SERVICIO TÉCNICO</tspan><tspan x="-0.3" y="47" class="st0 st3 st5">ELECTRÓNICO</tspan></text>
	<text id="XMLID_57_" transform="matrix(1 0 0 1 575.4404 324.8037)" class="st0 st6 st7">“GARCÍA”</text>
	<polygon id="XMLID_72_" class="st0" points="574.7,340.7 901.3,340.7 739,344 	"/>
</g>
<g id="Capa_1">
	<rect id="XMLID_158_" x="170.8" y="188.3" class="st8" width="216.4" height="130.6"/>
	<path id="XMLID_157_" class="st9" d="M184.9,205.2v11.2h-2.3v-14.2h52.8c0,0-2.2,1.5-2.2,2.9L184.9,205.2z"/>
	<polygon id="XMLID_156_" class="st9" points="241.5,212.3 244.1,212.3 244.1,227.9 271.9,227.9 271.9,267.2 289.9,267.2 
		289.9,269.7 269.6,269.7 269.6,230.2 241.5,230.2 	"/>
	<rect id="XMLID_155_" x="282.2" y="229.5" class="st9" width="69.5" height="2.4"/>
	<rect id="XMLID_152_" x="301.2" y="267.1" class="st9" width="13.6" height="2.7"/>
	<polygon id="XMLID_151_" class="st9" points="282.8,281.4 308.8,281.4 335.2,297.5 335.2,295 309.9,279.4 282.8,279.4 	"/>
	<polygon id="XMLID_150_" class="st9" points="282.8,290.1 282.8,292.2 309,292.2 335.2,308.6 335.2,305.9 310.5,290.1 	"/>
	<path id="XMLID_149_" class="st10" d="M308.9,216.1h-49.5c-1.1,0-2.1-0.9-2.1-2v-8.6v-5.6c0-1.1,0.9-2,2.1-2h49.5
		c1.1,0,2.1,0.9,2.1,2v14.2C311,215.2,310,216.1,308.9,216.1z"/>
	<path id="XMLID_148_" class="st11" d="M247.6,212.3h-9.9c-2.6,0-4.8-2.2-4.8-4.8V207c0-2.6,2.2-4.8,4.8-4.8h9.9
		c2.6,0,4.8,2.2,4.8,4.8v0.5C252.4,210.2,250.3,212.3,247.6,212.3z"/>
	<path id="XMLID_145_" class="st11" d="M330.8,212.3h-9.9c-2.6,0-4.8-2.2-4.8-4.8V207c0-2.6,2.2-4.8,4.8-4.8h9.9
		c2.6,0,4.8,2.2,4.8,4.8v0.5C335.6,210.2,333.4,212.3,330.8,212.3z"/>
	<path id="XMLID_143_" class="st12" d="M257.3,208.5h-15.9c0,0-1.5-0.1-1.5-1.5c0-1.4,1.5-1.4,1.5-1.4h15.9V208.5z"/>
	<path id="XMLID_81_" class="st12" d="M311,205.8v2.9h16.2c0,0,1-0.3,1-1.5c0-1.2-1.1-1.5-1.1-1.5H311z"/>
	<rect id="XMLID_82_" x="351.7" y="197.9" class="st13" width="26.6" height="119.5"/>
	<ellipse id="XMLID_83_" class="st14" cx="367.7" cy="207.2" rx="8.1" ry="8"/>
	<ellipse id="XMLID_84_" class="st14" cx="367.7" cy="230" rx="8.1" ry="8"/>
	<ellipse id="XMLID_85_" class="st15" cx="367.7" cy="230" rx="6.6" ry="6.4"/>
	<ellipse id="XMLID_86_" class="st15" cx="367.7" cy="207.2" rx="6.6" ry="6.4"/>
	<rect id="XMLID_87_" x="359.6" y="217.5" class="st14" width="16.2" height="2.6"/>
	<rect id="XMLID_88_" x="359.6" y="240.3" class="st14" width="16.2" height="2.5"/>
	<rect id="XMLID_89_" x="353.3" y="228.5" class="st14" width="2.4" height="3.4"/>
	<rect id="XMLID_90_" x="353.2" y="205.8" class="st14" width="2.7" height="3.4"/>
	<rect id="XMLID_91_" x="280.7" y="238.3" class="st16" width="23.5" height="20.3"/>
	<polygon id="XMLID_92_" class="st17" points="282.2,228.9 285.1,228.9 285.1,238.3 282,238.3 	"/>
	<polygon id="XMLID_93_" class="st17" points="288.3,228.9 291.2,228.9 291.2,238.3 288.1,238.3 	"/>
	<polygon id="XMLID_94_" class="st17" points="294.2,228.9 297.1,228.9 297.1,238.3 294,238.3 	"/>
	<polygon id="XMLID_95_" class="st17" points="299.8,228.9 302.7,228.9 302.7,238.3 299.6,238.3 	"/>
	<polygon id="XMLID_96_" class="st17" points="282.2,258.6 285.1,258.6 285.1,268 282,268 	"/>
	<polygon id="XMLID_97_" class="st17" points="288.5,258.6 291.4,258.6 291.4,268 288.3,268 	"/>
	<polygon id="XMLID_98_" class="st17" points="294.1,258.6 297,258.6 297,268 293.9,268 	"/>
	<polygon id="XMLID_99_" class="st17" points="299.6,258.6 302.5,258.6 302.5,268 299.4,268 	"/>
	<path id="XMLID_100_" class="st18" d="M260.3,272.2c-2.4,13.1-15.2,21.9-28.6,19.5s-22.3-14.9-19.9-28.1
		c2.4-13.1,15.2-21.9,28.6-19.5C253.9,246.5,262.7,259.1,260.3,272.2z"/>
	<path id="XMLID_101_" class="st19" d="M253.2,271.5c-1.7,9.5-11,15.8-20.7,14.1c-9.7-1.7-16.1-10.8-14.4-20.3
		c1.7-9.5,11-15.8,20.7-14.1C248.5,252.9,254.9,262,253.2,271.5z"/>
	<polygon id="XMLID_106_" class="st20" points="238.8,251.2 235.4,269.7 221.7,279.1 235.4,269.7 252.9,272.8 235.4,269.7 	"/>
	<path id="XMLID_102_" class="st21" d="M214.9,317.4h-11.9c-1.6,0-2.8-1.3-2.8-2.8v-11.4c0-1.6,1.3-2.8,2.8-2.8h11.9
		c1.6,0,2.8,1.3,2.8,2.8v11.4C217.7,316.1,216.4,317.4,214.9,317.4z"/>
	<path id="XMLID_103_" class="st21" d="M232.5,317.4h-11.9c-1.6,0-2.8-1.3-2.8-2.8v-11.4c0-1.6,1.3-2.8,2.8-2.8h11.9
		c1.6,0,2.8,1.3,2.8,2.8v11.4C235.3,316.1,234.1,317.4,232.5,317.4z"/>
	<path id="XMLID_104_" class="st21" d="M250.1,317.4h-11.9c-1.6,0-2.8-1.3-2.8-2.8v-11.4c0-1.6,1.3-2.8,2.8-2.8h11.9
		c1.6,0,2.8,1.3,2.8,2.8v11.4C253,316.1,251.7,317.4,250.1,317.4z"/>
	<path id="XMLID_105_" class="st21" d="M267.7,317.4h-11.9c-1.6,0-2.8-1.3-2.8-2.8v-11.4c0-1.6,1.3-2.8,2.8-2.8h11.9
		c1.6,0,2.8,1.3,2.8,2.8v11.4C270.6,316.1,269.3,317.4,267.7,317.4z"/>
	<path id="XMLID_107_" class="st21" d="M285.3,317.4h-11.9c-1.6,0-2.8-1.3-2.8-2.8v-11.4c0-1.6,1.3-2.8,2.8-2.8h11.9
		c1.6,0,2.8,1.3,2.8,2.8v11.4C288.2,316.1,286.9,317.4,285.3,317.4z"/>
	<rect id="XMLID_108_" x="204.1" y="304.1" class="st22" width="9.7" height="9.5"/>
	<rect id="XMLID_109_" x="221.7" y="304.1" class="st22" width="9.7" height="9.5"/>
	<rect id="XMLID_110_" x="239.3" y="304.1" class="st22" width="9.7" height="9.5"/>
	<rect id="XMLID_111_" x="257.3" y="304.1" class="st22" width="9.7" height="9.5"/>
	<rect id="XMLID_112_" x="274.5" y="304.1" class="st22" width="9.7" height="9.5"/>
	<path id="XMLID_113_" class="st23" d="M227.3,249.4c0,0,7.6-4.7,16.6,0"/>
	<ellipse id="XMLID_115_" class="st24" cx="367.7" cy="252.9" rx="8.1" ry="8"/>
	<ellipse id="XMLID_114_" class="st25" cx="367.7" cy="252.9" rx="6.6" ry="6.4"/>
	<ellipse id="XMLID_117_" class="st14" cx="367.7" cy="252.9" rx="8.1" ry="8"/>
	<ellipse id="XMLID_116_" class="st15" cx="367.7" cy="252.9" rx="6.6" ry="6.4"/>
	<ellipse id="XMLID_119_" class="st14" cx="367.7" cy="298.6" rx="8.1" ry="8"/>
	<ellipse id="XMLID_118_" class="st15" cx="367.7" cy="298.6" rx="6.6" ry="6.4"/>
	<ellipse id="XMLID_121_" class="st14" cx="366.2" cy="277.2" rx="8.1" ry="8"/>
	<ellipse id="XMLID_120_" class="st15" cx="366.2" cy="277.2" rx="6.6" ry="6.4"/>
	<rect id="XMLID_122_" x="359.6" y="286" class="st14" width="16.2" height="2.5"/>
	<rect id="XMLID_123_" x="268.6" y="278.4" class="st26" width="14.4" height="14.4"/>
	<ellipse id="XMLID_124_" class="st27" cx="275.6" cy="285.6" rx="5.1" ry="5"/>
	<polygon id="XMLID_125_" class="st28" points="213.1,234.5 192.6,234.5 192.6,214.7 213.1,214.7 213.1,215.4 	"/>
	<path id="XMLID_126_" class="st29" d="M224.9,214.7c0,0,2.4,0.5,2.4,1.9s0,16.2,0,16.2s-0.4,2-2.1,2c-1.7,0-12.1,0-12.1,0v-20.1
		L224.9,214.7z"/>
	<path id="XMLID_128_" class="st0" d="M185.7,220H182c-1,0-1.7-0.8-1.7-1.7v-0.2c0-1,0.8-1.7,1.7-1.7h3.7c1,0,1.7,0.8,1.7,1.7v0.2
		C187.4,219.2,186.6,220,185.7,220z"/>
	<rect id="XMLID_127_" x="185.5" y="217" class="st29" width="7.1" height="2.4"/>
	<path id="XMLID_130_" class="st0" d="M185.7,226.5H182c-1,0-1.7-0.8-1.7-1.7v-0.2c0-1,0.8-1.7,1.7-1.7h3.7c1,0,1.7,0.8,1.7,1.7v0.2
		C187.4,225.7,186.6,226.5,185.7,226.5z"/>
	<rect id="XMLID_129_" x="185.5" y="223.4" class="st29" width="7.1" height="2.4"/>
	<path id="XMLID_80_" class="st30" d="M197.2,220c0,0,3.3-0.5,4.9,0c1.5,0.5,4,4.3,3.4,6.8c-0.6,2.6-3.6,6.8-5.8,9.4
		c-2.2,2.5-19,15.4-19,15.4s-8.7,5.5-10.6,6s-19.8,34.5-19.3,35.1c0.4,0.6,0.7,0.5,1.2,0.5c0.5,0,15.3-1.4,17-1.2s8.8-8.2,10.7-8.7
		c0,0,5.9-16.6,9.5-20.3s6.1-13.9,26.6-23.7c0,0,6.8-3.3,11.3,4.2c0,0,0.2,0.4,0.2,1.2c0,0.8-0.3,2.1-1.4,3.7c0,0-8,9.7-8.4,11.8
		c0,0-10.6,25.5-16.1,34.6c0,0-9.4,40.6-10.5,43.2s-2.5,11.9-11.8,22.2c0,0-1.2,1.6-1.2,2.4l-57.4-4.3c0,0-0.4-20.6-1.5-23.5
		s-13.6-35.3-13.6-35.3s-5.5-9.9,0-15.4s6.9-5.4,10.9-9.9c4-4.5,17.4-23.8,21.9-26.9s15.4-10.4,27.6-13c0,0,17.1-10.5,21.9-10.6
		C187.7,223.9,196.8,220.1,197.2,220z"/>
	<path id="XMLID_79_" class="st31" d="M216.7,245.3c0,0,7-4.1,10.6-0.4c0,0-0.5,2.6-1.4,3.7c-0.9,1.2-8.5,10.3-8.3,11.5
		s-4.2-2.2-4.4-3.9C213,254.3,210.7,249.1,216.7,245.3z"/>
	<path id="XMLID_78_" class="st31" d="M187.9,223.8c0,0,9.6-5.2,12.7-3.8c0,0-0.6,2.2-2.2,3.3c-1.6,1.1-4.1,2.3-6,2
		C190.4,225,187.9,223.8,187.9,223.8z"/>
	<g id="XMLID_75_" class="st32">
		<path id="XMLID_71_" class="st33" d="M165.8,234.6l-8,4.7c-1.3,0.8-2.7,1.6-4,2.4c-1.3,0.8-2.6,1.6-3.9,2.5
			c-0.6,0.4-1.2,0.9-1.8,1.4l-1.7,1.6c-1.1,1.1-2.2,2.2-3.3,3.3c-1.1,1.1-2.1,2.3-3,3.5c-0.9,1.2-1.8,2.5-2.6,3.8l0,0l0,0
			c-2.4,2.8-4.7,5.7-7.2,8.5l-3.6,4.2c-1.2,1.4-2.4,2.8-3.7,4.2l-1.8,2.1c-0.6,0.7-1.2,1.4-1.9,2.1c-0.7,0.7-1.4,1.2-2.1,1.8
			c-0.7,0.6-1.4,1.2-2.1,1.8c-1.4,1.2-2.7,2.5-3.6,4c-0.5,0.8-0.7,1.6-0.9,2.5c-0.1,0.5-0.1,0.9-0.2,1.4c0,0.2-0.1,0.5-0.1,0.7
			l0,0.1c0,0,0,0-0.1,0c0,0,0-0.1,0.1-0.1c0-0.1,0.1-0.2,0.1-0.3l0.1,0c0,0.1-0.1,0.2-0.1,0.3c0,0.1,0,0.1-0.1,0.2
			c-0.1,0.1-0.2,0-0.2-0.1l0-0.1c0-0.2,0-0.5,0-0.7c0-0.5,0.1-0.9,0.1-1.4c0.1-0.9,0.3-1.9,0.8-2.7c0.9-1.7,2.2-3.1,3.6-4.4
			c1.4-1.3,2.8-2.4,4.1-3.7c0.6-0.6,1.2-1.4,1.8-2.1l1.8-2.1c1.2-1.4,2.4-2.8,3.7-4.1l3.7-4.1c2.5-2.7,5-5.4,7.5-8.2l0,0
			c0.8-1.3,1.8-2.6,2.7-3.8c0.9-1.2,1.9-2.4,3-3.6c1-1.2,2-2.3,3.1-3.5l1.6-1.7c0.6-0.6,1.2-1,1.9-1.5c0.6-0.5,1.3-0.9,1.9-1.3
			c0.7-0.4,1.3-0.8,2-1.2c1.3-0.8,2.7-1.5,4.1-2.3C160.2,237.2,162.9,235.8,165.8,234.6L165.8,234.6z"/>
	</g>
	<polygon id="XMLID_74_" class="st34" points="183.2,372.1 183.2,364.4 117.8,358.4 116.5,366.4 150.7,369.4 	"/>
	<polygon id="XMLID_73_" class="st35" points="113,366.4 150.7,369.4 186.5,372.1 179.1,451.4 105.9,451.4 	"/>
	<polygon id="XMLID_50_" class="st36" points="150.7,369.4 141.9,451.4 179.1,451.4 186.5,372.1 	"/>
	<path id="XMLID_49_" class="st30" d="M335.1,236.9c0,0-3.4-0.2-4.8,0.4c-1.5,0.6-3.6,4.8-2.8,7.4c0.8,2.6,4.2,6.8,6.6,9.2
		s20.4,14.5,20.4,14.5s9.2,5,11.1,5.4s22.9,34.2,22.5,34.9s-0.7,0.6-1.2,0.7s-15.4-0.1-17.1,0.2c-1.7,0.3-9.5-7.8-11.4-8.2
		c0,0-7.4-16.7-11.3-20.3s-7.3-14-28.7-22.4c0,0-7.1-2.8-10.9,5.3c0,0-0.2,0.4-0.1,1.3c0.1,0.9,0.5,2.1,1.8,3.8
		c0,0,8.9,9.5,9.4,11.5c0,0,12.9,25.6,19.2,34.6c0,0,13,41.4,14.3,44c1.3,2.6,3.5,12.2,13.8,22.2c0,0,1.4,1.5,1.4,2.4l56.9-9.2
		c0,0-1.5-21.5-0.7-24.5c0.8-3.1,10.4-37.8,10.4-37.8s4.6-10.7-1.4-16c-5.9-5.2-7.4-5.1-11.8-9.4c-4.4-4.3-19.5-23.3-24.3-26.2
		c-4.8-2.9-16.3-9.5-28.7-11.3c0,0-18-9.5-22.9-9.2C344.9,240.2,335.5,236.9,335.1,236.9z"/>
	<path id="XMLID_48_" class="st31" d="M317.9,264.8c0,0-7.4-3.7-10.6,0.5c0,0,0.7,2.6,1.8,3.8c1,1.1,9.4,10,9.3,11.2
		c-0.1,1.2,4-2.6,4-4.5C322.4,273.9,324.2,268.4,317.9,264.8z"/>
	<path id="XMLID_47_" class="st31" d="M344.7,240.1c0,0-10.1-4.6-13-2.9c0,0,0.8,2.2,2.5,3.2c1.7,1,4.3,2.1,6.2,1.6
		C342.3,241.6,344.7,240.1,344.7,240.1z"/>
	<g id="XMLID_53_" class="st32">
		<path id="XMLID_77_" class="st33" d="M367.8,249.4c3,1.1,5.9,2.3,8.8,3.6c1.4,0.7,2.9,1.3,4.3,2c0.7,0.4,1.4,0.7,2.1,1.1
			c0.7,0.4,1.4,0.8,2.1,1.2c0.7,0.4,1.4,0.9,2,1.4l1.7,1.6c1.2,1.1,2.3,2.2,3.4,3.3c1.1,1.1,2.2,2.3,3.2,3.5c1.1,1.2,2.1,2.4,3,3.7
			l0,0c2.7,2.6,5.5,5.2,8.3,7.9l4.1,4c1.4,1.3,2.7,2.7,4.1,4l2,2c0.7,0.7,1.3,1.4,2,2c1.4,1.2,3,2.3,4.5,3.5
			c1.5,1.2,2.9,2.6,3.9,4.2c0.1,0.2,0.2,0.4,0.4,0.6l0.3,0.7c0.1,0.5,0.3,1,0.3,1.4c0.1,0.5,0.2,0.9,0.2,1.4c0,0.2,0.1,0.5,0.1,0.7
			l0,0.1c0,0,0,0.1-0.1,0.1c0,0-0.1,0-0.1,0c0-0.1-0.1-0.1-0.1-0.2c0-0.1-0.1-0.2-0.1-0.3l0.1,0c0,0.1,0.1,0.2,0.1,0.3
			c0,0.1,0.1,0.1,0.1,0.1c0,0-0.1,0-0.1,0l0-0.1c0-0.2-0.1-0.5-0.1-0.7c-0.1-0.5-0.2-0.9-0.3-1.4c-0.2-0.9-0.5-1.8-1.1-2.5
			c-0.5-0.8-1.1-1.5-1.8-2.1c-0.7-0.6-1.4-1.2-2.2-1.8c-0.7-0.6-1.5-1.1-2.3-1.7c-0.8-0.6-1.6-1.1-2.3-1.7c-0.7-0.6-1.4-1.3-2.1-2
			l-2-2c-1.4-1.3-2.7-2.7-4-4l-4-4.1c-2.7-2.7-5.3-5.5-7.9-8.2l0,0l0,0c-0.9-1.3-1.9-2.5-2.9-3.7c-1.1-1.2-2.2-2.3-3.3-3.4
			c-1.2-1.1-2.3-2.1-3.6-3.1l-1.8-1.5c-0.3-0.2-0.6-0.5-0.9-0.7l-1-0.6c-2.7-1.6-5.5-3-8.4-4.4L367.8,249.4L367.8,249.4z"/>
	</g>
	<polygon id="XMLID_54_" class="st34" points="359.1,383.8 359.7,389.9 391.7,386 428,382 428,374 392.1,379.5 	"/>
	<polygon id="XMLID_61_" class="st37" points="355.8,389.9 391.7,386 429.6,382 438.1,451.8 363.8,451.8 	"/>
	<polygon id="XMLID_55_" class="st38" points="391.7,386 400.2,451.8 438.1,451.8 429.6,382 	"/>
	<path id="XMLID_2_" class="st39" d="M482.3,276.2h-52.4c-6.6,0-12-5.4-12-12V146.7c0-6.6,5.4-12,12-12h52.4c6.6,0,12,5.4,12,12
		v117.5C494.3,270.8,488.9,276.2,482.3,276.2z"/>
	<path id="XMLID_3_" class="st40" d="M479.4,271.2h-46.2c-6.6,0-12-5.4-12-12V152c0-6.6,5.4-12,12-12h46.2c6.6,0,12,5.4,12,12v107.1
		C491.4,265.8,486,271.2,479.4,271.2z"/>
	<rect id="XMLID_4_" x="427" y="147.5" class="st0" width="59.3" height="27.2"/>
	<rect id="XMLID_5_" x="428.8" y="149.7" class="st41" width="56" height="23.2"/>
	<path id="XMLID_6_" class="st42" d="M446,191.8h-14.3c-1.6,0-2.8-1.3-2.8-2.8v-2.9c0-1.6,1.3-2.8,2.8-2.8H446
		c1.6,0,2.8,1.3,2.8,2.8v2.9C448.9,190.6,447.6,191.8,446,191.8z"/>
	<path id="XMLID_8_" class="st42" d="M483.5,191.8h-14.3c-1.6,0-2.8-1.3-2.8-2.8v-2.9c0-1.6,1.3-2.8,2.8-2.8h14.3
		c1.6,0,2.8,1.3,2.8,2.8v2.9C486.3,190.6,485.1,191.8,483.5,191.8z"/>
	<path id="XMLID_26_" class="st43" d="M456.5,205.4c-14.9,0-26.9,11.8-26.9,26.4s12.1,26.4,26.9,26.4c14.9,0,26.9-11.8,26.9-26.4
		S471.4,205.4,456.5,205.4z M461.7,217.4c0,0,0-3.4-5.7-3.4c-5.7,0-6.9,3.4-6.9,3.4v-4c7-4.3,12.5,0,12.5,0V217.4z"/>
	<path id="XMLID_13_" class="st44" d="M439.9,211.1v25c0,0-0.2,1.9,1.5,1.9c1.7,0,7.8,0,7.8,0c0-6.8,0-13.7,0-20.5
		c0-0.7,0-1.4,0-2.1c0-0.7,0-1.3,0-2c0.4-0.3,1-0.6,1.7-0.9c0.5-0.2,2.2-0.9,4.4-1c3.2-0.1,5.6,1.3,6.5,1.9v24.6h9.6
		c0,0,1,0.4,1-1.5s0-26,0-26S457,198.9,439.9,211.1z"/>
	<path id="XMLID_14_" class="st45" d="M461.7,215.3"/>
	<path id="XMLID_15_" class="st45" d="M461.7,217.4c0,0-0.1-3.4-5.7-3.4c-5.6,0-6.9,3.4-6.9,3.4v-4c0,0,5.9-4.2,12.6,0L461.7,217.4z
		"/>
	<path id="XMLID_16_" class="st44" d="M449.1,213.4c0,0,5.8-4.2,12.6,0l0,4c0,0-0.1-3.4-5.7-3.4s-6.9,3.4-6.9,3.4V213.4z"/>
	<path id="XMLID_7_" class="st46" d="M191.4,148.2h14.5c0,0,1.5-0.1,1.5,1.5s0,27.7,0,27.7s-0.1,1.1-1.1,1.1c-1,0-6.9,0-6.9,0h-7.3
		c0,0-6.1-1.2-8.5-5.3h-94c0,0-5.3-0.1-5.3-3.1c0-3,0-13.6,0-13.6s0.1-3.4,4.5-3.4c4.4,0,95,0,95,0S187.6,148.2,191.4,148.2z"/>
	<path id="XMLID_9_" class="st47" d="M84.4,156.5v13.6c0,0-6.2,0.2-6.2-1.5s0-10.8,0-10.8S78.5,156.5,84.4,156.5z"/>
	<polygon id="XMLID_10_" class="st47" points="78.2,157.8 53.6,158.6 53.6,168.4 78.2,168.9 	"/>
	<path id="XMLID_12_" class="st47" d="M53.6,158.6c0,0-2,0.1-2,1.5c0,0.9,0,3.5,0,5.1c0,0.9,0,1.5,0,1.5s-0.1,1.7,2,1.7"/>
	<path id="XMLID_11_" class="st47" d="M51.6,161.5c0,0-12.9-1.1-21.7,7.4c-8.8,8.5-8.6,20.5-7.8,24.1c0.8,3.6,2.9,9.8,6.9,13.8
		s12.1,7.3,12.6,7.3c0.5,0,4.3,1,7.5,1s30.4,0,30.4,0s5.5,1.3,16.9-6.6c0,0,8.2-6.5,10.4-14.9c2.2-8.4,1.4-20.3,1.4-20.3h-3.7
		c0,0,0.4,16.8-1.2,20.1s-5,9.4-8.4,12.1c-3.4,2.7-10.2,6-15,6s-30.9,0-30.9,0s-6.8,1.5-16.1-6.6c0,0-4.7-2.1-7.5-12.2
		c0,0-2.2-15.6,8.9-21.8c0,0,5.8-5.6,17.5-5.5V161.5z"/>
	<path id="XMLID_18_" class="st47" d="M104.4,173.3v-20.7c0,0,0-1.3,2.2-1.3c0,0,1.7-0.1,1.7,1.3c0,1.4,0,20.7,0,20.7"/>
	<path id="XMLID_17_" class="st47" d="M117.7,151.3c0,0-2-0.2-2,1.9s-1.6,19.2-1.9,21.1c0,0,0,1.1,1.5,1.1c0,0,2.1,0.1,2.1-2.1
		c0-2.3,2.1-20.1,2.1-20.1S119.2,151.3,117.7,151.3z"/>
	<path id="XMLID_21_" class="st47" d="M122.7,151.3c0,0-2.1,0-2.1,2s-0.8,11.6-1.8,20.4c0,0-0.1,1.5,1.5,1.5c1.6,0,2-2,2-2l2-20.1
		C124.2,153.2,124.5,151.7,122.7,151.3z"/>
	<path id="XMLID_19_" class="st47" d="M112.3,151.3c0,0-2.2-0.2-2.2,1.9c0,2.1-1.8,19.4-2.2,21.3c0,0,0.1,1.1,1.7,1.1
		c0,0,2.4,0.1,2.4-2.2s2.4-20.3,2.4-20.3S114,151.3,112.3,151.3z"/>
	<path id="XMLID_20_" class="st47" d="M127.8,151.1c0,0-2.1,0-2.1,2c0,2-0.8,11.6-1.8,20.4c0,0-0.1,1.5,1.5,1.5c1.6,0,2-2,2-2
		l2-20.1C129.3,153,129.6,151.5,127.8,151.1z"/>
	<path id="XMLID_22_" class="st47" d="M132.9,151.3c0,0-2.1,0-2.1,2s-0.8,11.6-1.8,20.4c0,0-0.1,1.5,1.5,1.5c1.6,0,2-2,2-2l2-20.1
		C134.5,153.2,134.7,151.7,132.9,151.3z"/>
	<path id="XMLID_23_" class="st47" d="M137.6,151.3c0,0-2.1,0-2.1,2s-0.8,11.6-1.8,20.4c0,0-0.1,1.5,1.5,1.5c1.6,0,2-2,2-2l2-20.1
		C139.2,153.2,139.4,151.7,137.6,151.3z"/>
	<polyline id="XMLID_28_" class="st47" points="139.4,173.9 135.7,173.9 135.7,184.5 139.1,184.5 139.2,173.9 	"/>
	<polyline id="XMLID_29_" class="st47" points="135.7,184.5 135,184.5 135,186.8 139.9,186.8 139.9,184.5 135,184.5 	"/>
	<polygon id="XMLID_30_" class="st47" points="133.2,186.8 132.4,200.4 128.4,208.5 128.4,215.4 146.3,215.4 146.3,208.2 
		142.6,200.4 141.9,186.8 	"/>
	<path id="XMLID_32_" class="st47" d="M128.4,215.4l-3.1,2.2v2.4c0,0,0.2,0.6,0.6,0.6c0.3,0,23.4,0,23.4,0s0.4,0,0.4-0.4
		s0-2.7,0-2.7l-3.3-2.2"/>
	<path id="XMLID_33_" class="st48" d="M129.9,220.6h2.4V231c0,0-1.1,1.1-2.2,0L129.9,220.6z"/>
	<path id="XMLID_31_" class="st49" d="M142.7,220.6h2.4V231c0,0-1.1,1.1-2.2,0L142.7,220.6z"/>
	<polyline id="XMLID_35_" class="st50" points="207.5,156.8 207.5,170.4 216.1,170.4 216.1,156.8 207.5,156.8 216,156.8 	"/>
	<path id="XMLID_36_" class="st50" d="M216.1,170.4c0,0-0.2,1.9,1,1.9c1.2,0,5.9,0,5.9,0s2.2-0.5,2.2-1.2c0-0.6,0-10.1,0-13
		c0-0.5,0-0.9,0-0.9s-1.2-1.8-2.2-1.8s-6.2,0-6.2,0s-0.6,0.3-0.6,1.4"/>
	<path id="XMLID_34_" class="st51" d="M268.3,158h-43.2v11.7H268c0,0,0.6,0.1,0.6-0.8c0-0.8,0-10.6,0-10.6S268.6,158,268.3,158z"/>
	<polygon id="XMLID_38_" class="st52" points="268.6,159.1 268.6,168.9 286.4,163.7 	"/>
	<path id="XMLID_37_" class="st53" d="M211,158v10.6c0,0-0.1,0.5-0.4,0.5c-0.3,0-0.4-0.4-0.4-0.4V158c0,0,0.1-0.4,0.4-0.4
		S211,158,211,158z"/>
	<path id="XMLID_39_" class="st53" d="M209.8,158v10.6c0,0-0.1,0.5-0.4,0.5s-0.4-0.4-0.4-0.4V158c0,0,0.1-0.4,0.4-0.4
		C209.7,157.6,209.8,158,209.8,158z"/>
	<path id="XMLID_41_" class="st53" d="M213.5,158v10.6c0,0-0.1,0.5-0.4,0.5s-0.4-0.4-0.4-0.4V158c0,0,0.1-0.4,0.4-0.4
		S213.5,158,213.5,158z"/>
	<path id="XMLID_40_" class="st53" d="M212.3,158v10.6c0,0-0.1,0.5-0.4,0.5c-0.3,0-0.4-0.4-0.4-0.4V158c0,0,0.1-0.4,0.4-0.4
		S212.3,158,212.3,158z"/>
	<path id="XMLID_42_" class="st53" d="M214.9,158v10.6c0,0-0.1,0.5-0.4,0.5s-0.4-0.4-0.4-0.4V158c0,0,0.1-0.4,0.4-0.4
		C214.8,157.6,214.9,158,214.9,158z"/>
	<path id="XMLID_62_" class="st54" d="M472.5,276.2h5.5v17.5c0,0-0.5,6.1,4.6,6.1c5.1,0,21.3,4.1,22.2,16.7v95.4
		c0,0-4,23.1-26.6,26.7c0,0-17.3,0.5-24-5.5s-8.9-7.5-14.8-21.7s-34.8-84.8-34.8-84.8s-9.8-18.8-18.8-22.5L370,289.5l3.2-3.2
		c0,0,29.3,17.9,37.7,39.7c8.4,21.8,35.3,84.7,35.3,84.7s6,23.8,30.7,20.9c0,0,13.9-0.4,20.9-19.5c0,0,0.7-1.4,0.7-4.5
		s0-91.2,0-91.2s-0.9-11.8-15.1-11.8c0,0-10.5,0.2-10.5-8.9s0.1-19.5,0.1-19.5"/>
	<path id="XMLID_64_" class="st55" d="M323.7,257.5l6.5-7.9c0,0,43.2,36.5,43,36.7c0,0-0.1,0.1-0.1,0.1c-0.6,0.6-3,3.1-3,3.1
		s-1.4,0.3-2.3-0.4C366.8,288.5,324.9,261.2,323.7,257.5z"/>
	<path id="XMLID_63_" class="st55" d="M330.1,249.6c5.1,1.4,41.9,34.1,42.9,34.8c1,0.7,0,2,0,2"/>
	<path id="XMLID_67_" class="st56" d="M321.4,255.9l7.1-8.8c0,0,1.2-1.2,2.3-0.1s-0.7,2.9-0.7,2.9l-6.5,7.9c0,0-1.2,2-2.3,1
		C320.2,257.6,320.1,257.1,321.4,255.9z"/>
	<path id="XMLID_69_" class="st57" d="M312.3,242.6c0,0-2.5,2.5-0.9,4.2c1.6,1.6,9.9,9.2,9.9,9.2l6.4-8l-11.4-7.5
		c0,0-1.9-0.3-3.3,1.1C312.8,241.8,312.5,242.2,312.3,242.6z"/>
	<path id="XMLID_70_" class="st58" d="M313.1,241.5c0,0-12.8-11.2-17.5-12c0,0,10.4,11.3,16,14L313.1,241.5z"/>
	<path id="XMLID_135_" class="st59" d="M206.8,230.2l6.5,7.9c0,0-45.4,33.8-45.6,33.6c0,0,0-0.1-0.1-0.1c-0.5-0.7-2.4-3.6-2.4-3.6
		s0-1.4,0.9-2.1C166.8,265,202.9,230.6,206.8,230.2z"/>
	<path id="XMLID_134_" class="st59" d="M213.2,238.1c-2.5,4.6-42.8,33-43.7,33.9c-0.9,0.8-2-0.4-2-0.4"/>
	<path id="XMLID_133_" class="st60" d="M208.9,228.3l7.3,8.7c0,0,1,1.4-0.4,2.2c-1.3,0.8-2.7-1.3-2.7-1.3l-6.5-7.9
		c0,0-1.7-1.6-0.5-2.4C207.4,226.8,207.9,226.8,208.9,228.3z"/>
	<path id="XMLID_132_" class="st61" d="M224,222.4c0,0-2-2.9-4-1.7c-1.9,1.2-11.2,7.6-11.2,7.6l6.6,7.8l9.9-9.4c0,0,0.7-1.7-0.4-3.4
		C224.7,223.1,224.4,222.7,224,222.4z"/>
	<path id="XMLID_131_" class="st62" d="M224.9,223.4c0,0,13.9-9.9,15.7-14.2c0,0-13.4,7.6-17.3,12.4L224.9,223.4z"/>
	<g id="XMLID_136_">
		<g id="XMLID_167_">
			<path id="XMLID_171_" class="st59" d="M453.3,278c0,23.8,0,47.6,0,71.5c0,3.2,5,3.2,5,0c0-23.8,0-47.6,0-71.5
				C458.3,274.7,453.3,274.7,453.3,278L453.3,278z"/>
		</g>
	</g>
	<g id="XMLID_137_">
		<g id="XMLID_172_">
			<path id="XMLID_176_" class="st59" d="M453.2,349.8c-0.9,12.7-11.8,18.4-23.4,18.9c-12.1,0.6-24.4,0-36.5,0
				c-25.3-0.1-50.6-0.1-75.9-0.2c-25.2-0.1-50.3,0.2-75.5-0.2c-12.4-0.2-23.4-2.6-34.3-8.7c-4.6-2.5-9-5.4-12.6-9.3
				c-4.1-4.4-6.3-9.8-9.1-15c-5.7-10.5-14.1-18.4-22-27.1c-4.6-5.1-8.4-11.1-6.8-18.2c1.4-6.5,6-12.1,10.1-17c2-2.5-1.5-6-3.5-3.5
				c-6.6,7.9-13.9,17.4-11.5,28.3c2.4,10.9,12.8,18.1,19.7,26.1c4.5,5.2,8.1,10.8,11.2,17c2.6,5.1,5.3,10.1,9.5,14.2
				c8,7.7,19.4,13.5,30.1,16.2c13.1,3.3,27.3,2.1,40.8,2.1c14.6,0,29.3,0.1,43.9,0.1c29,0.1,57.9,0.2,86.9,0.2c8.3,0,16.6,0,25,0.1
				c6.4,0,13,0.3,19.3-1.2c11.1-2.6,18.8-11.5,19.6-22.8C458.4,346.6,453.4,346.6,453.2,349.8L453.2,349.8z"/>
		</g>
	</g>
	<text id="XMLID_138_" transform="matrix(1.0181 0 0 1 445.9431 169.321)" class="st0 st6 st63">-1.65</text>
	<path id="XMLID_43_" class="st64" d="M453.5,277.6l4.8,0.1l0.2-6.5c0,0,1.2,0.2,1.2-1.1c0-1.3,0.2-5.8,0.2-5.8s0.2-1.2-1.2-1.2
		c-1.3,0-4.8-0.1-4.8-0.1s-1.3-0.1-1.3,1.2c0,1.3-0.2,6-0.2,6s-0.3,0.7,0.7,0.8"/>
	<path id="XMLID_27_" class="st65" d="M473.1,277.6l4.8,0.1l0.2-6.5c0,0,1.2,0.2,1.2-1.1c0-1.3,0.2-5.8,0.2-5.8s0.2-1.2-1.2-1.2
		c-1.3,0-4.8-0.1-4.8-0.1s-1.3-0.1-1.3,1.2c0,1.3-0.2,6-0.2,6s-0.3,0.7,0.7,0.8"/>
	<line id="XMLID_45_" class="st66" x1="453.7" y1="264.5" x2="459" y2="264.6"/>
	<line id="XMLID_44_" class="st66" x1="453.7" y1="265.5" x2="458.9" y2="265.7"/>
	<line id="XMLID_139_" class="st66" x1="453.7" y1="266.6" x2="458.9" y2="266.7"/>
	<line id="XMLID_142_" class="st66" x1="453.5" y1="267.5" x2="458.8" y2="267.7"/>
	<line id="XMLID_141_" class="st66" x1="453.5" y1="268.6" x2="458.7" y2="268.7"/>
	<line id="XMLID_140_" class="st66" x1="453.5" y1="269.6" x2="458.7" y2="269.7"/>
	<line id="XMLID_160_" class="st66" x1="473.4" y1="264.5" x2="478.6" y2="264.6"/>
	<line id="XMLID_154_" class="st66" x1="473.3" y1="265.5" x2="478.6" y2="265.7"/>
	<line id="XMLID_153_" class="st66" x1="473.3" y1="266.6" x2="478.5" y2="266.7"/>
	<line id="XMLID_147_" class="st66" x1="473.2" y1="267.5" x2="478.4" y2="267.7"/>
	<line id="XMLID_146_" class="st66" x1="473.2" y1="268.6" x2="478.4" y2="268.7"/>
	<line id="XMLID_144_" class="st66" x1="473.1" y1="269.6" x2="478.4" y2="269.7"/>
	<text id="XMLID_161_" transform="matrix(8.793008e-002 -0.9785 0.9963 8.636545e-002 113.1995 440.2458)" class="st67 st6 st68">GNS DESIGN</text>
</g>
</svg>
