<?xml version="1.0" encoding="utf-8"?>
<!-- Generator: Adobe Illustrator 19.0.0, SVG Export Plug-In . SVG Version: 6.00 Build 0)  -->
<svg version="1.1" id="Capa_1" xmlns="http://www.w3.org/2000/svg" xmlns:xlink="http://www.w3.org/1999/xlink" x="0px" y="0px"
	 viewBox="-935 517 48 48" style="enable-background:new -935 517 48 48;" xml:space="preserve">
<style type="text/css">
	.st0{fill:none;}
	.st1{display:none;fill:#2980B9;stroke:#078FDB;stroke-width:2;stroke-miterlimit:10;}
	.st2{fill:#FFFFFF;}
	.st3{display:none;}
	.st4{display:inline;fill:#FFFFFF;}
	.st5{display:inline;fill:#D1AF43;}
	.st6{display:inline;fill:#D6C990;}
	.st7{display:inline;fill:#F7E6A1;}
	.st8{display:inline;fill:#7383BF;}
	.st9{display:inline;fill:#6472A0;}
	.st10{display:inline;fill:#EFCE4A;}
	.st11{clip-path:url(#SVGID_2_);}
	.st12{fill:#F7E6A1;}
	.st13{fill:#EFCE4A;}
	.st14{fill:#0A7CC9;}
	.st15{fill:#158ED1;}
	.st16{fill:#EA1840;}
</style>
<path class="st0" d="M-1736,1394h48v48h-48V1394z"/>
<circle class="st1" cx="-911" cy="541" r="22.9"/>
<path id="XMLID_2_" class="st2" d="M-1459.1,1118.1c2,4,5.2,7.2,9.2,9.2l3.1-3.1c0.3-0.3,0.9-0.5,1.4-0.3c1.5,0.5,3.3,0.8,5,0.8
	c0.8,0,1.4,0.6,1.4,1.4v4.9c0,0.8-0.6,1.4-1.4,1.4c-13.1,0-23.7-10.6-23.7-23.7c0-0.8,0.6-1.4,1.4-1.4h4.9c0.8,0,1.4,0.6,1.4,1.4
	c0,1.7,0.3,3.4,0.8,5c0.1,0.5,0.1,1-0.3,1.4L-1459.1,1118.1z"/>
<g id="XMLID_6_" class="st3">
	<path id="XMLID_8_" class="st4" d="M-1437.7,1107.9h-27.3c-0.2,0-0.4,0.2-0.4,0.4v21.3c0,0.2,0.2,0.4,0.4,0.4h27.3
		c0.2,0,0.4-0.2,0.4-0.4v-21.3C-1437.2,1108.1-1437.4,1107.9-1437.7,1107.9z M-1439.9,1126.5l-6.1-6.4c-0.1-0.1-0.2-0.1-0.3,0
		l-4.3,3.7l-5.4-6.7l-0.1-0.1c-0.1,0-0.1,0-0.1,0.1l-6.4,8.6v-15.3h22.8L-1439.9,1126.5L-1439.9,1126.5L-1439.9,1126.5z"/>
	<path id="XMLID_1_" class="st4" d="M-1446.6,1117c1.2,0,2.2-1,2.2-2.2c0-1.2-1-2.2-2.2-2.2c-1.2,0-2.2,1-2.2,2.2
		C-1448.8,1116-1447.8,1117-1446.6,1117z"/>
</g>
<g class="st3">
	<polygon class="st5" points="-969.6,521.3 -972.2,522.3 -969.6,524.9 	"/>
	<polygon class="st6" points="-980.5,540.3 -980.5,557 -978.5,556.2 -971.6,549.2 	"/>
	<polygon class="st6" points="-969.6,524.9 -972.2,522.3 -980.5,525.7 -980.5,529 -969.6,539.9 	"/>
	<polygon class="st7" points="-959.4,537.1 -959.4,535.1 -969.6,524.9 -969.6,539.9 -965.9,543.6 	"/>
	<polygon class="st8" points="-959.4,550.1 -959.4,548.4 -960.2,549.2 	"/>
	<polygon class="st9" points="-952.8,541.8 -959.4,548.4 -959.4,550.1 -954.6,554.9 -949.2,552.6 -949.2,545.3 	"/>
	<polygon class="st6" points="-949.2,526.9 -949.2,521.3 -958.1,525.1 -952.8,530.4 	"/>
	<polygon class="st6" points="-958.4,536.1 -959.4,535.1 -959.4,537.1 	"/>
	<polygon class="st7" points="-945.4,523.1 -949.2,521.3 -949.2,526.9 	"/>
	<polygon class="st8" points="-938.3,544.9 -938.3,527.3 -947.1,536.1 	"/>
	<polygon class="st8" points="-949.2,552.6 -938.3,557 -938.3,556.3 -949.2,545.3 	"/>
	<polygon class="st5" points="-969.6,547.3 -969.6,539.9 -980.5,529 -980.5,540.3 -971.6,549.2 	"/>
	<polygon class="st10" points="-965.4,554.4 -959.4,557 -959.4,550.1 -960.2,549.2 	"/>
	<polygon class="st10" points="-969.6,539.9 -969.6,547.3 -965.9,543.6 	"/>
	<polygon class="st5" points="-959.4,557 -954.6,554.9 -959.4,550.1 	"/>
	<polygon class="st10" points="-959.4,525.7 -969.6,521.3 -969.6,524.9 -959.4,535.1 	"/>
	<polygon class="st5" points="-959.4,535.1 -958.4,536.1 -952.8,530.4 -958.1,525.1 -959.4,525.7 	"/>
	<polygon class="st5" points="-949.2,545.3 -949.2,538.2 -952.8,541.8 	"/>
	<polygon class="st10" points="-947.1,536.1 -949.2,538.2 -949.2,545.3 -938.3,556.3 -938.3,544.9 	"/>
	<polygon class="st5" points="-969.6,551.2 -971.6,549.2 -978.5,556.2 -969.6,552.6 	"/>
	<polygon class="st10" points="-969.6,552.6 -967.2,553.6 -969.6,551.2 	"/>
	<polygon class="st10" points="-965.9,543.6 -960.2,549.2 -959.4,548.4 -959.4,537.1 	"/>
	<polygon class="st5" points="-949.2,526.9 -952.8,530.4 -949.2,534 	"/>
	<polygon class="st5" points="-959.4,537.1 -959.4,548.4 -952.8,541.8 -958.4,536.1 	"/>
	<polygon class="st10" points="-949.2,534 -947.1,536.1 -938.3,527.3 -938.3,526.4 -945.4,523.1 -949.2,526.9 	"/>
	<polygon class="st5" points="-971.6,549.2 -969.6,551.2 -969.6,547.3 	"/>
	<polygon class="st10" points="-965.9,543.6 -969.6,547.3 -969.6,551.2 -967.2,553.6 -965.4,554.4 -960.2,549.2 	"/>
	<polygon class="st5" points="-952.8,530.4 -958.4,536.1 -952.8,541.8 -949.2,538.2 -949.2,534 	"/>
	<polygon class="st10" points="-949.2,538.2 -947.1,536.1 -949.2,534 	"/>
</g>
<g>
	<g>
		<defs>
			<circle id="SVGID_1_" cx="-911" cy="541" r="22.3"/>
		</defs>
		<clipPath id="SVGID_2_">
			<use xlink:href="#SVGID_1_"  style="overflow:visible;"/>
		</clipPath>
		<g class="st11">
			<polygon class="st12" points="-934.3,517.6 -934.3,564.4 -887.6,564.4 -887.6,517.6 -894.8,517.6 			"/>
			<polygon class="st13" points="-934.3,540.3 -892.1,517.6 -887.8,522 -934.3,547.6 			"/>
			<polygon class="st13" points="-895.7,562.2 -905.9,515.4 -900.5,512.4 -888.7,564.2 			"/>
			<polygon class="st13" points="-933.3,551.2 -891.1,528.5 -886.8,532.9 -933.3,558.5 			"/>
			<polygon class="st13" points="-920.4,566.1 -930.6,519.3 -925.2,516.3 -913.4,568.1 			"/>
			<path class="st14" d="M-914.5,563"/>
			<polygon class="st15" points="-919.9,539.6 -902.7,530.2 -901.8,534.2 -919,543.5 			"/>
			<polygon class="st13" points="-924.1,561.9 -891,544.1 -887.6,547.5 -924.1,567.6 			"/>
		</g>
	</g>
	<path id="XMLID_12_" class="st16" d="M-905.5,544.6c0.1,0.1,0.2,0.1,0.3,0.1s0.2,0,0.3-0.1c0.5-0.6,1.5-1.8,2.6-3.3
		c1.4-2,2.9-4.8,2.9-7.4c0-3.3-2.6-6.1-5.8-6.1s-5.8,2.8-5.8,6.1c0,2.6,1.5,5.4,2.9,7.4C-907,542.8-906,543.9-905.5,544.6z
		 M-905.2,530.1c1.9,0,3.5,1.6,3.5,3.7c0,2-1.5,3.7-3.5,3.7c-1.9,0-3.5-1.6-3.5-3.7S-907.1,530.1-905.2,530.1z"/>
</g>
</svg>
