<?xml version="1.0" encoding="utf-8"?>
<!-- Generator: Adobe Illustrator 19.0.0, SVG Export Plug-In . SVG Version: 6.00 Build 0)  -->
<svg version="1.1" id="Capa_1" xmlns="http://www.w3.org/2000/svg" xmlns:xlink="http://www.w3.org/1999/xlink" x="0px" y="0px"
	 viewBox="-283 705 512 512" style="enable-background:new -283 705 512 512;" xml:space="preserve">
<style type="text/css">
	.st0{fill:#018DA6;}
</style>
<path class="st0" d="M220.5,1129.6h-53.6V1057c20.1-3.7,35.4-20.5,35.4-40.7c0-10.2-4.1-35.6-10.7-58.9c-9.5-33.4-19.9-48.9-33-48.9
	s-23.5,15.5-33,48.9c-6.6,23.3-10.7,48.7-10.7,58.9c0,20.2,15.3,37,35.4,40.7v72.6H96.1V923.7c10.3-3.5,17.7-13.2,17.7-24.6v-35.4
	c0-4.6-3.7-8.3-8.3-8.3h-9.4v-10h18.2c4.6,0,8.3-3.7,8.3-8.3s-3.7-8.3-8.3-8.3h-53c-4.6,0-8.3,3.7-8.3,8.3s3.7,8.3,8.3,8.3h18.2v10
	h-9.4c-4.6,0-8.3,3.7-8.3,8.3v35.4c0,11.4,7.4,21.2,17.7,24.6v205.9h-29l-5.6-27.6h7.5c4.6,0,8.3-3.7,8.3-8.3c0-4.6-3.7-8.3-8.3-8.3
	H34.8h-0.1h-0.5v-18.8h9.4c4.6,0,8.3-3.7,8.3-8.3c0-4.6-3.7-8.3-8.3-8.3h-9.4v-10h9.4c4.6,0,8.3-3.7,8.3-8.3s-3.7-8.3-8.3-8.3
	h-159.2c-4.6,0-8.3,3.7-8.3,8.3s3.7,8.3,8.3,8.3h9.4v10h-9.4c-4.6,0-8.3,3.7-8.3,8.3c0,4.6,3.7,8.3,8.3,8.3h9.4v18.8h-0.5h-0.1
	h-17.6c-4.6,0-8.3,3.7-8.3,8.3c0,4.6,3.7,8.3,8.3,8.3h7.5l-5.6,27.6h-64.4v-81.2c34.8-4.1,61.9-33.8,61.9-69.7
	c0-62.3-60.1-192.6-62.7-198.1c-1.4-2.9-4.3-4.8-7.5-4.8s-6.2,1.9-7.5,4.8c-2.6,5.5-62.7,135.8-62.7,198.1
	c0,35.9,27.1,65.6,61.9,69.7v81.2h-71.3c-4.6,0-8.3,3.7-8.3,8.3c0,4.6,3.7,8.3,8.3,8.3h495.4c4.6,0,8.3-3.7,8.3-8.3
	C228.8,1133.4,225.1,1129.6,220.5,1129.6z M131.5,1016.3c0-7.4,3.2-29.5,9.3-51.8c8.9-32.5,16.3-38.4,17.7-39.3
	c1.4,0.9,8.9,6.8,17.7,39.3c6.1,22.3,9.3,44.4,9.3,51.8c0,11.1-7.9,20.5-18.8,23.7v-17c0-4.6-3.7-8.3-8.3-8.3s-8.3,3.7-8.3,8.3v17
	C139.4,1036.8,131.5,1027.4,131.5,1016.3z M78.4,872h18.8v27.1c0,5.2-4.2,9.4-9.4,9.4s-9.4-4.2-9.4-9.4
	C78.4,899.1,78.4,872,78.4,872z M-248.9,978.7c0-46,37.3-136.7,53.6-174.3c16.3,37.5,53.6,128.2,53.6,174.3c0,26.8-19.7,49-45.3,53
	v-26.4l0,0v-23.1l24.1-24.1c3.2-3.2,3.2-8.5,0-11.7s-8.5-3.2-11.7,0l-12.4,12.4v-15.4c0-4.6-3.7-8.3-8.3-8.3s-8.3,3.7-8.3,8.3v35.4
	l0,0v6.5l-12.4-12.4c-3.2-3.2-8.5-3.2-11.7,0s-3.2,8.5,0,11.7l24.1,24.1v23C-229.2,1027.7-248.9,1005.4-248.9,978.7z M-89.7,1040.1
	H17.6v10H-89.7V1040.1z M-89.7,1066.6H17.6v18.8H-89.7V1066.6z M-100,1102H28l5.6,27.6h-139.3L-100,1102z"/>
</svg>
