<?xml version="1.0" encoding="utf-8"?>
<!-- Generator: Adobe Illustrator 19.0.0, SVG Export Plug-In . SVG Version: 6.00 Build 0)  -->
<svg version="1.1" id="Capa_1" xmlns="http://www.w3.org/2000/svg" xmlns:xlink="http://www.w3.org/1999/xlink" x="0px" y="0px"
	 viewBox="-273 396.9 48 48" style="enable-background:new -273 396.9 48 48;" xml:space="preserve">
<style type="text/css">
	.st0{fill:none;}
	.st1{fill:#48B5FF;}
	.st2{fill:#FFFFFF;}
	.st3{fill:#F0C419;}
	.st4{fill:#EDE21B;}
	.st5{fill:#D0E8F9;}
	.st6{fill:#ABCADD;}
	.st7{fill:#ABC5D3;}
</style>
<path class="st0" d="M-1074,1273.9h48v48h-48V1273.9z"/>
<circle class="st1" cx="-249" cy="420.9" r="22.9"/>
<path id="XMLID_2_" class="st2" d="M-797.1,998c2,4,5.2,7.2,9.2,9.2l3.1-3.1c0.3-0.3,0.9-0.5,1.4-0.3c1.5,0.5,3.3,0.8,5,0.8
	c0.8,0,1.4,0.6,1.4,1.4v4.9c0,0.8-0.6,1.4-1.4,1.4c-13.1,0-23.7-10.6-23.7-23.7c0-0.8,0.6-1.4,1.4-1.4h4.9c0.8,0,1.4,0.6,1.4,1.4
	c0,1.7,0.3,3.4,0.8,5c0.1,0.5,0.1,1-0.3,1.4L-797.1,998z"/>
<g id="XMLID_6_">
	<path id="XMLID_8_" class="st2" d="M-775.7,987.8H-803c-0.2,0-0.4,0.2-0.4,0.4v21.3c0,0.2,0.2,0.4,0.4,0.4h27.3
		c0.2,0,0.4-0.2,0.4-0.4v-21.3C-775.2,988-775.4,987.8-775.7,987.8z M-777.9,1006.4l-6.1-6.4c-0.1-0.1-0.2-0.1-0.3,0l-4.3,3.7
		l-5.4-6.7l-0.1-0.1c-0.1,0-0.1,0-0.1,0.1l-6.4,8.6v-15.3h22.8v16.1L-777.9,1006.4L-777.9,1006.4z"/>
	<path id="XMLID_1_" class="st2" d="M-784.6,996.9c1.2,0,2.2-1,2.2-2.2s-1-2.2-2.2-2.2c-1.2,0-2.2,1-2.2,2.2
		S-785.8,996.9-784.6,996.9z"/>
</g>
<g id="XMLID_9_">
	<g id="XMLID_10_">
		<g id="XMLID_11_">
			<path id="XMLID_19_" class="st2" d="M-194.9,398.8h-7.1c-0.3,0-0.5,0.2-0.6,0.5l-1.4,4.7l9.6,1l0.8-3.6
				C-194.1,400.6-194.6,399.7-194.9,398.8z"/>
			<path id="XMLID_18_" class="st2" d="M-185.9,406l2.9,0.3l-0.9-3c-0.1,0.2-0.2,0.3-0.3,0.5C-184.8,404.6-185.4,405.3-185.9,406z"
				/>
			<path id="XMLID_17_" class="st2" d="M-192.2,403.8l-0.3,1.5l1.6,0.2C-191.3,404.9-191.7,404.4-192.2,403.8L-192.2,403.8z"/>
			<path id="XMLID_16_" class="st2" d="M-205.8,410.4c-0.1,0.2,0,0.4,0.1,0.6s0.3,0.3,0.5,0.3h9.5l0.9-4.3l-9.7-1.1L-205.8,410.4z"
				/>
			<path id="XMLID_15_" class="st2" d="M-182.5,408.3l-10.4-1.1l-0.8,4.1h11.2l0,0c0.4,0,0.6-0.3,0.6-0.6c0-0.1,0-0.2,0-0.2
				L-182.5,408.3z"/>
			<path id="XMLID_12_" class="st2" d="M-188.5,406.8c0.1,0.1,0.2,0.1,0.3,0.1c0.1,0,0.2,0,0.3-0.1c0.6-0.6,1.7-1.9,2.9-3.5
				c1.5-2.1,3.2-5.1,3.2-7.8c0-3.5-2.9-6.4-6.4-6.4s-6.4,2.9-6.4,6.4c0,2.7,1.7,5.7,3.2,7.8C-190.2,404.9-189.1,406.1-188.5,406.8z
				 M-188.2,391.5c2.1,0,3.9,1.7,3.9,3.9c0,2.1-1.7,3.9-3.9,3.9c-2.1,0-3.9-1.7-3.9-3.9S-190.3,391.5-188.2,391.5z"/>
		</g>
	</g>
</g>
<g>
	<path class="st3" d="M-261.8,415.8c0-0.3-0.3-0.6-0.6-0.6h-2.3c-0.3,0-0.6,0.3-0.6,0.6s0.3,0.6,0.6,0.6h2.3
		C-262,416.3-261.8,416.1-261.8,415.8z"/>
	<path class="st3" d="M-253.4,404c-0.3,0-0.6,0.3-0.6,0.6v2.3c0,0.3,0.3,0.6,0.6,0.6s0.6-0.3,0.6-0.6v-2.3
		C-252.8,404.2-253.1,404-253.4,404z"/>
	<path class="st3" d="M-261.5,406.8c-0.2-0.2-0.6-0.2-0.8,0c-0.2,0.2-0.2,0.6,0,0.8l2.2,2.2c0.1,0.1,0.3,0.2,0.4,0.2
		s0.3-0.1,0.4-0.2c0.2-0.2,0.2-0.6,0-0.8L-261.5,406.8z"/>
	<path class="st3" d="M-244.5,406.8c-0.2-0.2-0.6-0.2-0.8,0l-2.2,2.2c-0.2,0.2-0.2,0.6,0,0.8c0.1,0.1,0.3,0.2,0.4,0.2
		s0.3-0.1,0.4-0.2l2.2-2.2C-244.2,407.4-244.2,407.1-244.5,406.8z"/>
	<path class="st3" d="M-256.8,406.3c-0.1-0.3-0.5-0.4-0.7-0.3c-0.3,0.1-0.4,0.5-0.3,0.7l0.5,1.1c0.1,0.2,0.3,0.3,0.5,0.3
		c0.1,0,0.1,0,0.2,0c0.3-0.1,0.4-0.5,0.3-0.7L-256.8,406.3z"/>
	<path class="st3" d="M-249.4,405.9c-0.3-0.1-0.6,0-0.7,0.3l-0.4,1.1c-0.1,0.3,0,0.6,0.3,0.7c0.1,0,0.1,0,0.2,0
		c0.2,0,0.4-0.1,0.5-0.4l0.4-1.1C-249,406.3-249.1,406-249.4,405.9z"/>
	<path class="st3" d="M-261.8,418.8l-1.1,0.5c-0.3,0.1-0.4,0.5-0.3,0.7c0.1,0.2,0.3,0.3,0.5,0.3c0.1,0,0.1,0,0.2,0l1.1-0.5
		c0.3-0.1,0.4-0.5,0.3-0.7C-261.2,418.8-261.6,418.6-261.8,418.8z"/>
	<path class="st3" d="M-263,412.5l1.1,0.4c0.1,0,0.1,0,0.2,0c0.2,0,0.4-0.1,0.5-0.4c0.1-0.3,0-0.6-0.3-0.7l-1.1-0.4
		c-0.3-0.1-0.6,0-0.7,0.3C-263.4,412.1-263.3,412.4-263,412.5z"/>
</g>
<g>
	<path class="st4" d="M-258,422c0.4,0,0.8,0.1,1.2,0.2c-0.3-1.1,0-2.4,0.8-3.4c1.1-1.3,2.7-1.7,4.2-1.3l0,0c0.5-1.2,1.5-2.1,2.8-2.4
		c0.5-0.1,0.9-0.1,1.4-0.1c0-0.1,0-0.2,0-0.3c0-1.2,0.3-2.2,0.9-3.2c-1.4-2.3-3.8-3.8-6.6-3.8c-4.3,0-7.8,3.5-7.8,7.8
		C-261.2,418.3-259.9,420.6-258,422z"/>
</g>
<path class="st5" d="M-231.3,418.9L-231.3,418.9c0,0.2,0,0.3,0,0.5c0,0.3-0.3,0.6-0.6,0.6c-0.3,0-0.6-0.3-0.6-0.6
	c0-1.9-1.5-3.4-3.4-3.4s-3.4,1.5-3.4,3.4c0,0.3-0.3,0.6-0.6,0.6c-0.3,0-0.6-0.3-0.6-0.6c0-2.3,1.7-4.2,3.9-4.5
	c-0.1-2.8-2.5-5.1-5.3-5.1c-2.9,0-5.2,2.3-5.3,5.1c0.5,0.1,0.9,0.3,1.3,0.6c1,0.6,1.7,1.6,2,2.8c0.1,0.3-0.1,0.6-0.4,0.7
	c-0.3,0.1-0.6-0.1-0.7-0.4c-0.4-1.8-2.3-2.9-4.1-2.5c-1.8,0.4-2.9,2.2-2.5,4.1c0.1,0.3-0.1,0.6-0.4,0.7c0,0-0.1,0-0.1,0
	c-0.3,0-0.5-0.2-0.5-0.4c-0.2-0.7-0.2-1.4,0-2.1c-1.2-0.2-2.3,0.3-3.1,1.2c-0.7,0.9-0.9,2-0.7,3c0,0,0,0,0,0
	c0.2,0.7,0.5,1.3,1.1,1.8c0.2,0.2,0.3,0.6,0.1,0.8c-0.1,0.1-0.3,0.2-0.4,0.2c-0.1,0-0.3,0-0.4-0.1c-0.7-0.6-1.2-1.3-1.4-2.1
	c-2.3-0.6-4.7,0.4-5.9,2.4c-0.7,1.2-1,2.7-0.6,4c0.3,1.4,1.2,2.6,2.4,3.3c0.3,0.2,0.4,0.5,0.2,0.8c-0.1,0.2-0.3,0.3-0.5,0.3
	c-0.1,0-0.1,0-0.2-0.1c0.9,0.5,1.9,0.8,3,0.9l4.6,0c3,0,5.5-1.9,6.6-4.5c1.1,2.6,3.7,4.5,6.8,4.5c5.3,0,9.6-4.3,9.6-9.6v-5.6
	L-231.3,418.9z"/>
<g>
	<path class="st6" d="M-235.3,415c-0.1-3.5-3-6.2-6.5-6.2c-3.5,0-6.3,2.7-6.5,6.1c-0.3,0-0.6,0-0.9,0.1c-1.3,0.3-2.4,1.2-2.9,2.3
		c-1.6-0.3-3.3,0.2-4.4,1.5c-0.7,0.9-1.1,1.9-1,3c-2.6-0.5-5.3,0.7-6.7,3c-0.9,1.5-1.2,3.2-0.8,4.9s1.5,3.1,2.9,4
		c0.1,0.1,0.2,0.1,0.3,0.1c0.2,0,0.4-0.1,0.5-0.3c0.2-0.3,0.1-0.6-0.2-0.8c-1.2-0.7-2.1-1.9-2.4-3.3c-0.3-1.4-0.1-2.8,0.6-4
		c1.2-2,3.6-3,5.9-2.4c0.3,0.8,0.7,1.6,1.4,2.1c0.1,0.1,0.2,0.1,0.4,0.1c0.2,0,0.3-0.1,0.4-0.2c0.2-0.2,0.2-0.6-0.1-0.8
		c-0.6-0.5-0.9-1.1-1.1-1.8c0,0,0,0,0,0c-0.3-1,0-2.1,0.7-3c0.8-0.9,1.9-1.4,3.1-1.2c-0.2,0.7-0.2,1.4,0,2.1
		c0.1,0.3,0.3,0.4,0.5,0.4c0,0,0.1,0,0.1,0c0.3-0.1,0.5-0.4,0.4-0.7c-0.4-1.8,0.7-3.6,2.5-4.1c1.8-0.4,3.6,0.7,4.1,2.5
		c0.1,0.3,0.4,0.5,0.7,0.4c0.3-0.1,0.5-0.4,0.4-0.7c-0.3-1.2-1-2.2-2-2.8c-0.4-0.3-0.9-0.4-1.3-0.6c0.1-2.9,2.5-5.1,5.3-5.1
		c2.9,0,5.2,2.3,5.3,5.1c-2.2,0.3-3.9,2.2-3.9,4.5c0,0.3,0.3,0.6,0.6,0.6c0.3,0,0.6-0.3,0.6-0.6c0-1.9,1.5-3.4,3.4-3.4
		s3.4,1.5,3.4,3.4c0,0,0,0.7,0,1.7c0,0.3,0.3,0.6,0.6,0.6c0.3,0,0.6-0.3,0.6-0.6v-1.7C-231.3,417.2-233.1,415.3-235.3,415z"/>
</g>
<g>
	<path class="st7" d="M-246.9,430.9l-1.7,1.7c-0.2,0.2-0.2,0.6,0,0.8c0.1,0.1,0.3,0.2,0.4,0.2s0.3-0.1,0.4-0.2l1.7-1.7
		c0.2-0.2,0.2-0.6,0-0.8S-246.7,430.7-246.9,430.9z"/>
	<path class="st7" d="M-250.3,434.3l-1.7,1.7c-0.2,0.2-0.2,0.6,0,0.8c0.1,0.1,0.3,0.2,0.4,0.2s0.3-0.1,0.4-0.2l1.7-1.7
		c0.2-0.2,0.2-0.6,0-0.8C-249.7,434.1-250.1,434.1-250.3,434.3z"/>
	<path class="st2" d="M-238.3,427.5c-0.2-0.2-0.6-0.2-0.8,0l-1.7,1.7c-0.2,0.2-0.2,0.6,0,0.8c0.1,0.1,0.3,0.2,0.4,0.2
		s0.3-0.1,0.4-0.2l1.7-1.7C-238,428.1-238,427.7-238.3,427.5z"/>
	<path class="st2" d="M-242.4,430.9l-1.7,1.7c-0.2,0.2-0.2,0.6,0,0.8c0.1,0.1,0.3,0.2,0.4,0.2s0.3-0.1,0.4-0.2l1.7-1.7
		c0.2-0.2,0.2-0.6,0-0.8S-242.2,430.7-242.4,430.9z"/>
	<path class="st2" d="M-247.3,427.5c-0.2-0.2-0.6-0.2-0.8,0l-1.7,1.7c-0.2,0.2-0.2,0.6,0,0.8c0.1,0.1,0.3,0.2,0.4,0.2
		s0.3-0.1,0.4-0.2l1.7-1.7C-247.1,428.1-247.1,427.7-247.3,427.5z"/>
	<path class="st2" d="M-242.8,427.5c-0.2-0.2-0.6-0.2-0.8,0l-1.7,1.7c-0.2,0.2-0.2,0.6,0,0.8c0.1,0.1,0.3,0.2,0.4,0.2
		s0.3-0.1,0.4-0.2l1.7-1.7C-242.5,428.1-242.5,427.7-242.8,427.5z"/>
	<path class="st7" d="M-250.6,430.9c-0.2-0.2-0.6-0.2-0.8,0l-1.7,1.7c-0.2,0.2-0.2,0.6,0,0.8c0.1,0.1,0.3,0.2,0.4,0.2
		s0.3-0.1,0.4-0.2l1.7-1.7C-250.4,431.5-250.4,431.1-250.6,430.9z"/>
</g>
</svg>
