<?xml version="1.0" encoding="utf-8"?>
<!-- Generator: Adobe Illustrator 19.0.0, SVG Export Plug-In . SVG Version: 6.00 Build 0)  -->
<svg version="1.1" id="Layer_1" xmlns="http://www.w3.org/2000/svg" xmlns:xlink="http://www.w3.org/1999/xlink" x="0px" y="0px"
	 viewBox="-43 -56 512 512" style="enable-background:new -43 -56 512 512;" xml:space="preserve">
<style type="text/css">
	.st0{fill:#EDEDED;}
	.st1{fill:#55CD6C;}
	.st2{fill:#FEFEFE;}
</style>
<g>
	<path class="st0" d="M-24.9,437.9L7.9,319c-21.4-36.9-32.8-78-32.8-120.6c0-129.6,106.7-236.2,237.1-236.2S450.9,68.7,450.9,198.3
		S342.6,437.9,212.2,437.9c-41,0-80.4-13.1-115.7-32.8L-24.9,437.9z"/>
	<path class="st1" d="M103.1,362.5l7.3,4.1c30.4,18.9,65.6,30.4,102.5,30.4c107.4,0,196.9-89.4,196.9-198.5S320.4,3.2,212.2,3.2
		S16.1,90.1,16.1,198.4c0,37.7,10.7,74.6,30.4,105.9l4.9,7.3l-18.9,69L103.1,362.5z"/>
	<path class="st2" d="M149,88.4l-15.6-0.8c-4.9,0-9.9,1.7-13.1,4.9c-7.3,6.6-19.7,18.9-23,35.3c-5.8,24.6,3.3,54.2,24.6,83.6
		c21.4,29.6,62.4,77.1,134.6,97.6c23,6.6,41,2.4,55.8-6.6c11.5-7.3,18.9-18.9,21.4-31.1l2.4-11.5c0.8-3.3-0.8-7.3-4.1-9L280.3,227
		c-3.3-1.7-7.3-0.8-9.9,2.4l-20.5,26.2c-1.7,1.7-4.1,2.4-6.6,1.7c-13.9-4.9-60.7-24.6-86.2-73.8c-0.8-2.4-0.8-4.9,0.8-6.6l19.7-22.1
		c1.7-2.4,2.4-5.8,1.7-8.2l-23.8-53.3C154.7,90.9,152.3,88.4,149,88.4"/>
</g>
</svg>
